<svg xmlns="http://www.w3.org/2000/svg" xmlns:rdkit="http://www.rdkit.org/xml" xmlns:xlink="http://www.w3.org/1999/xlink" version="1.1" baseProfile="full" xml:space="preserve" width="750px" height="750px" viewBox="0 0 750 750">
<!-- END OF HEADER -->
<rect style="opacity:1.0;fill:#FFFFFF;stroke:none" width="750.0" height="750.0" x="0.0" y="0.0"> </rect>
<path class="bond-0 atom-0 atom-1" d="M 25.0,136.2 L 51.3,121.0" style="fill:none;fill-rule:evenodd;stroke:#000000;stroke-width:2.0px;stroke-linecap:butt;stroke-linejoin:miter;stroke-opacity:1"/>
<path class="bond-1 atom-1 atom-2" d="M 51.3,121.0 L 81.0,138.2" style="fill:none;fill-rule:evenodd;stroke:#000000;stroke-width:2.0px;stroke-linecap:butt;stroke-linejoin:miter;stroke-opacity:1"/>
<path class="bond-2 atom-2 atom-3" d="M 92.5,138.2 L 117.1,123.9" style="fill:none;fill-rule:evenodd;stroke:#000000;stroke-width:2.0px;stroke-linecap:butt;stroke-linejoin:miter;stroke-opacity:1"/>
<path class="bond-2 atom-2 atom-3" d="M 92.1,128.9 L 109.3,119.0" style="fill:none;fill-rule:evenodd;stroke:#000000;stroke-width:2.0px;stroke-linecap:butt;stroke-linejoin:miter;stroke-opacity:1"/>
<path class="bond-3 atom-3 atom-4" d="M 127.2,123.9 L 152.6,138.6" style="fill:none;fill-rule:evenodd;stroke:#000000;stroke-width:2.0px;stroke-linecap:butt;stroke-linejoin:miter;stroke-opacity:1"/>
<path class="bond-4 atom-4 atom-5" d="M 162.7,138.6 L 187.3,124.3" style="fill:none;fill-rule:evenodd;stroke:#000000;stroke-width:2.0px;stroke-linecap:butt;stroke-linejoin:miter;stroke-opacity:1"/>
<path class="bond-5 atom-5 atom-6" d="M 198.8,124.3 L 221.9,137.6" style="fill:none;fill-rule:evenodd;stroke:#000000;stroke-width:2.0px;stroke-linecap:butt;stroke-linejoin:miter;stroke-opacity:1"/>
<path class="atom-0" d="M 11.4 141.5 Q 11.4 138.7, 12.7 137.2 Q 14.1 135.6, 16.6 135.6 Q 19.0 135.6, 20.3 137.3 L 19.2 138.2 Q 18.3 137.0, 16.6 137.0 Q 14.9 137.0, 14.0 138.2 Q 13.0 139.3, 13.0 141.5 Q 13.0 143.8, 14.0 145.0 Q 14.9 146.2, 16.8 146.2 Q 18.1 146.2, 19.6 145.4 L 20.0 146.6 Q 19.4 147.0, 18.5 147.3 Q 17.6 147.5, 16.6 147.5 Q 14.1 147.5, 12.7 146.0 Q 11.4 144.4, 11.4 141.5 " fill="#000000"/>
<path class="atom-0" d="M 21.0 137.5 L 24.9 137.5 L 24.9 138.4 L 21.0 138.4 L 21.0 137.5 " fill="#000000"/>
<path class="atom-2" d="M 84.2 135.7 L 88.0 141.8 Q 88.3 142.4, 89.0 143.5 Q 89.6 144.6, 89.6 144.7 L 89.6 135.7 L 91.1 135.7 L 91.1 147.3 L 89.5 147.3 L 85.5 140.6 Q 85.0 139.8, 84.5 138.9 Q 84.0 138.0, 83.8 137.7 L 83.8 147.3 L 82.3 147.3 L 82.3 135.7 L 84.2 135.7 " fill="#000000"/>
<path class="atom-3" d="M 121.9 115.2 Q 123.9 115.2, 124.9 116.1 Q 125.9 117.0, 125.9 118.6 Q 125.9 120.2, 124.9 121.2 Q 123.8 122.1, 121.9 122.1 L 120.1 122.1 L 120.1 126.8 L 118.5 126.8 L 118.5 115.2 L 121.9 115.2 M 121.9 120.7 Q 123.0 120.7, 123.6 120.2 Q 124.2 119.7, 124.2 118.6 Q 124.2 117.6, 123.6 117.1 Q 123.0 116.5, 121.9 116.5 L 120.1 116.5 L 120.1 120.7 L 121.9 120.7 " fill="#000000"/>
<path class="atom-3" d="M 117.6 102.5 L 119.2 102.5 L 119.2 107.4 L 125.1 107.4 L 125.1 102.5 L 126.7 102.5 L 126.7 114.1 L 125.1 114.1 L 125.1 108.7 L 119.2 108.7 L 119.2 114.1 L 117.6 114.1 L 117.6 102.5 " fill="#000000"/>
<path class="atom-3" d="M 128.1 113.7 Q 128.4 112.9, 129.1 112.5 Q 129.8 112.1, 130.7 112.1 Q 131.8 112.1, 132.5 112.8 Q 133.1 113.4, 133.1 114.5 Q 133.1 115.6, 132.3 116.7 Q 131.5 117.7, 129.7 119.0 L 133.3 119.0 L 133.3 119.9 L 128.1 119.9 L 128.1 119.1 Q 129.5 118.1, 130.4 117.4 Q 131.2 116.6, 131.6 115.9 Q 132.1 115.3, 132.1 114.5 Q 132.1 113.8, 131.7 113.4 Q 131.3 113.0, 130.7 113.0 Q 130.1 113.0, 129.7 113.2 Q 129.2 113.5, 129.0 114.0 L 128.1 113.7 " fill="#000000"/>
<path class="atom-4" d="M 154.4 145.5 Q 154.5 145.5, 155.0 145.7 Q 155.6 146.0, 156.2 146.1 Q 156.8 146.3, 157.4 146.3 Q 158.5 146.3, 159.1 145.7 Q 159.7 145.2, 159.7 144.3 Q 159.7 143.6, 159.4 143.2 Q 159.1 142.8, 158.6 142.6 Q 158.1 142.4, 157.3 142.2 Q 156.3 141.9, 155.6 141.6 Q 155.0 141.3, 154.6 140.6 Q 154.2 140.0, 154.2 139.0 Q 154.2 137.5, 155.1 136.6 Q 156.1 135.7, 158.1 135.7 Q 159.4 135.7, 161.0 136.4 L 160.6 137.6 Q 159.2 137.0, 158.2 137.0 Q 157.0 137.0, 156.4 137.5 Q 155.8 138.0, 155.8 138.8 Q 155.8 139.4, 156.1 139.8 Q 156.4 140.1, 156.9 140.4 Q 157.4 140.6, 158.2 140.8 Q 159.2 141.1, 159.8 141.5 Q 160.4 141.8, 160.9 142.5 Q 161.3 143.1, 161.3 144.3 Q 161.3 145.9, 160.3 146.7 Q 159.2 147.6, 157.4 147.6 Q 156.4 147.6, 155.6 147.4 Q 154.8 147.1, 153.9 146.8 L 154.4 145.5 " fill="#000000"/>
<path class="atom-5" d="M 190.5 115.2 L 194.3 121.4 Q 194.7 122.0, 195.3 123.1 Q 195.9 124.2, 195.9 124.2 L 195.9 115.2 L 197.5 115.2 L 197.5 126.8 L 195.9 126.8 L 191.8 120.1 Q 191.3 119.3, 190.8 118.4 Q 190.3 117.5, 190.2 117.2 L 190.2 126.8 L 188.7 126.8 L 188.7 115.2 L 190.5 115.2 " fill="#000000"/>
<path class="atom-5" d="M 188.5 102.5 L 190.1 102.5 L 190.1 107.4 L 196.0 107.4 L 196.0 102.5 L 197.6 102.5 L 197.6 114.1 L 196.0 114.1 L 196.0 108.7 L 190.1 108.7 L 190.1 114.1 L 188.5 114.1 L 188.5 102.5 " fill="#000000"/>
<path class="atom-5" d="M 199.0 113.7 Q 199.3 112.9, 200.0 112.5 Q 200.7 112.1, 201.6 112.1 Q 202.7 112.1, 203.4 112.8 Q 204.0 113.4, 204.0 114.5 Q 204.0 115.6, 203.2 116.7 Q 202.4 117.7, 200.6 119.0 L 204.2 119.0 L 204.2 119.9 L 199.0 119.9 L 199.0 119.1 Q 200.4 118.1, 201.3 117.4 Q 202.1 116.6, 202.5 115.9 Q 203.0 115.3, 203.0 114.5 Q 203.0 113.8, 202.6 113.4 Q 202.2 113.0, 201.6 113.0 Q 201.0 113.0, 200.6 113.2 Q 200.1 113.5, 199.9 114.0 L 199.0 113.7 " fill="#000000"/>
<path class="atom-5" d="M 199.1 104.6 L 201.1 104.6 L 201.1 102.4 L 202.0 102.4 L 202.0 104.6 L 204.1 104.6 L 204.1 105.3 L 202.0 105.3 L 202.0 107.5 L 201.1 107.5 L 201.1 105.3 L 199.1 105.3 L 199.1 104.6 " fill="#000000"/>
<path class="atom-6" d="M 223.2 141.5 Q 223.2 138.7, 224.6 137.2 Q 226.0 135.6, 228.5 135.6 Q 231.1 135.6, 232.5 137.2 Q 233.9 138.7, 233.9 141.5 Q 233.9 144.3, 232.5 145.9 Q 231.1 147.5, 228.5 147.5 Q 226.0 147.5, 224.6 145.9 Q 223.2 144.4, 223.2 141.5 M 228.5 146.2 Q 230.3 146.2, 231.2 145.0 Q 232.2 143.9, 232.2 141.5 Q 232.2 139.2, 231.2 138.1 Q 230.3 136.9, 228.5 136.9 Q 226.8 136.9, 225.8 138.1 Q 224.8 139.2, 224.8 141.5 Q 224.8 143.9, 225.8 145.0 Q 226.8 146.2, 228.5 146.2 " fill="#000000"/>
<path class="atom-6" d="M 234.7 137.5 L 238.6 137.5 L 238.6 138.4 L 234.7 138.4 L 234.7 137.5 " fill="#000000"/>
<path class="atom-1" d="M 53.7,117.3 L 53.7,117.4 L 53.7,117.5 L 53.7,117.6 L 53.7,117.6 L 53.7,117.7 L 53.6,117.7 L 53.6,117.8 L 53.6,117.9 L 53.5,117.9 L 53.5,118.0 L 53.4,118.0 L 53.3,118.0 L 53.3,118.1 L 53.2,118.1 L 53.1,118.1 L 53.1,118.1 L 53.0,118.2 L 52.9,118.2 L 52.9,118.2 L 52.8,118.2 L 52.7,118.1 L 52.7,118.1 L 52.6,118.1 L 52.5,118.1 L 52.5,118.0 L 52.4,118.0 L 52.4,117.9 L 52.3,117.9 L 52.3,117.8 L 52.2,117.8 L 52.2,117.7 L 52.2,117.7 L 52.1,117.6 L 52.1,117.5 L 52.1,117.4 L 52.1,117.4 L 52.1,117.3 L 52.1,117.2 L 52.1,117.2 L 52.1,117.1 L 52.2,117.0 L 52.2,117.0 L 52.2,116.9 L 52.3,116.8 L 52.3,116.8 L 52.4,116.7 L 52.4,116.7 L 52.5,116.7 L 52.5,116.6 L 52.6,116.6 L 52.7,116.6 L 52.7,116.5 L 52.8,116.5 L 52.9,116.5 L 52.9,116.5 L 53.0,116.5 L 53.1,116.5 L 53.1,116.6 L 53.2,116.6 L 53.3,116.6 L 53.3,116.6 L 53.4,116.7 L 53.5,116.7 L 53.5,116.8 L 53.6,116.8 L 53.6,116.9 L 53.6,116.9 L 53.7,117.0 L 53.7,117.1 L 53.7,117.1 L 53.7,117.2 L 53.7,117.3 L 53.7,117.3 L 52.9,117.3 Z" style="fill:#000000;fill-rule:evenodd;fill-opacity:1;stroke:#000000;stroke-width:0.0px;stroke-linecap:butt;stroke-linejoin:miter;stroke-opacity:1;"/>
<path class="atom-1" d="M 50.5,117.3 L 50.5,117.4 L 50.5,117.5 L 50.4,117.6 L 50.4,117.6 L 50.4,117.7 L 50.4,117.7 L 50.3,117.8 L 50.3,117.9 L 50.2,117.9 L 50.2,118.0 L 50.1,118.0 L 50.1,118.0 L 50.0,118.1 L 49.9,118.1 L 49.9,118.1 L 49.8,118.1 L 49.7,118.2 L 49.7,118.2 L 49.6,118.2 L 49.5,118.2 L 49.5,118.1 L 49.4,118.1 L 49.3,118.1 L 49.3,118.1 L 49.2,118.0 L 49.1,118.0 L 49.1,117.9 L 49.0,117.9 L 49.0,117.8 L 49.0,117.8 L 48.9,117.7 L 48.9,117.7 L 48.9,117.6 L 48.8,117.5 L 48.8,117.4 L 48.8,117.4 L 48.8,117.3 L 48.8,117.2 L 48.8,117.2 L 48.9,117.1 L 48.9,117.0 L 48.9,117.0 L 49.0,116.9 L 49.0,116.8 L 49.0,116.8 L 49.1,116.7 L 49.1,116.7 L 49.2,116.7 L 49.3,116.6 L 49.3,116.6 L 49.4,116.6 L 49.5,116.5 L 49.5,116.5 L 49.6,116.5 L 49.7,116.5 L 49.7,116.5 L 49.8,116.5 L 49.9,116.6 L 49.9,116.6 L 50.0,116.6 L 50.1,116.6 L 50.1,116.7 L 50.2,116.7 L 50.2,116.8 L 50.3,116.8 L 50.3,116.9 L 50.4,116.9 L 50.4,117.0 L 50.4,117.1 L 50.4,117.1 L 50.5,117.2 L 50.5,117.3 L 50.5,117.3 L 49.6,117.3 Z" style="fill:#000000;fill-rule:evenodd;fill-opacity:1;stroke:#000000;stroke-width:0.0px;stroke-linecap:butt;stroke-linejoin:miter;stroke-opacity:1;"/>
<path class="bond-0 atom-0 atom-1" d="M 453.3,124.2 L 408.5,143.3" style="fill:none;fill-rule:evenodd;stroke:#000000;stroke-width:2.0px;stroke-linecap:butt;stroke-linejoin:miter;stroke-opacity:1"/>
<path class="bond-1 atom-1 atom-2" d="M 392.0,140.6 L 356.3,113.8" style="fill:none;fill-rule:evenodd;stroke:#000000;stroke-width:2.0px;stroke-linecap:butt;stroke-linejoin:miter;stroke-opacity:1"/>
<path class="bond-2 atom-2 atom-3" d="M 337.6,110.8 L 303.6,125.2" style="fill:none;fill-rule:evenodd;stroke:#000000;stroke-width:2.0px;stroke-linecap:butt;stroke-linejoin:miter;stroke-opacity:1"/>
<path class="atom-0" d="M 461.1 111.3 Q 464.4 111.3, 466.0 112.8 Q 467.6 114.2, 467.6 116.8 Q 467.6 119.5, 465.9 121.0 Q 464.3 122.4, 461.1 122.4 L 458.1 122.4 L 458.1 130.2 L 455.5 130.2 L 455.5 111.3 L 461.1 111.3 M 461.1 120.3 Q 463.0 120.3, 464.0 119.4 Q 464.9 118.5, 464.9 116.8 Q 464.9 115.2, 464.0 114.3 Q 463.0 113.4, 461.1 113.4 L 458.1 113.4 L 458.1 120.3 L 461.1 120.3 " fill="#000000"/>
<path class="atom-0" d="M 468.9 111.3 L 471.4 111.3 L 471.4 119.3 L 481.1 119.3 L 481.1 111.3 L 483.6 111.3 L 483.6 130.2 L 481.1 130.2 L 481.1 121.5 L 471.4 121.5 L 471.4 130.2 L 468.9 130.2 L 468.9 111.3 " fill="#000000"/>
<path class="atom-1" d="M 394.9 153.3 Q 395.1 153.4, 396.0 153.8 Q 396.9 154.2, 397.8 154.4 Q 398.8 154.6, 399.8 154.6 Q 401.6 154.6, 402.6 153.8 Q 403.6 152.9, 403.6 151.4 Q 403.6 150.3, 403.1 149.7 Q 402.6 149.0, 401.8 148.7 Q 401.0 148.3, 399.7 147.9 Q 398.0 147.4, 397.0 147.0 Q 396.0 146.5, 395.3 145.5 Q 394.6 144.5, 394.6 142.7 Q 394.6 140.4, 396.2 138.9 Q 397.8 137.4, 401.0 137.4 Q 403.2 137.4, 405.7 138.5 L 405.0 140.5 Q 402.8 139.6, 401.1 139.6 Q 399.2 139.6, 398.2 140.4 Q 397.2 141.1, 397.2 142.4 Q 397.2 143.4, 397.7 144.1 Q 398.3 144.7, 399.0 145.0 Q 399.8 145.4, 401.1 145.8 Q 402.8 146.3, 403.8 146.8 Q 404.8 147.4, 405.5 148.5 Q 406.3 149.5, 406.3 151.4 Q 406.3 154.0, 404.5 155.4 Q 402.8 156.8, 399.9 156.8 Q 398.2 156.8, 396.9 156.4 Q 395.7 156.1, 394.2 155.4 L 394.9 153.3 " fill="#000000"/>
<path class="atom-2" d="M 342.8 97.3 L 348.9 107.3 Q 349.6 108.3, 350.5 110.1 Q 351.5 111.9, 351.6 112.0 L 351.6 97.3 L 354.1 97.3 L 354.1 116.2 L 351.5 116.2 L 344.9 105.3 Q 344.1 104.0, 343.3 102.5 Q 342.5 101.1, 342.2 100.6 L 342.2 116.2 L 339.8 116.2 L 339.8 97.3 L 342.8 97.3 " fill="#000000"/>
<path class="atom-2" d="M 356.3 100.7 L 359.6 100.7 L 359.6 97.2 L 361.1 97.2 L 361.1 100.7 L 364.5 100.7 L 364.5 102.0 L 361.1 102.0 L 361.1 105.5 L 359.6 105.5 L 359.6 102.0 L 356.3 102.0 L 356.3 100.7 " fill="#000000"/>
<path class="atom-3" d="M 261.4 123.4 L 263.9 123.4 L 263.9 131.5 L 273.6 131.5 L 273.6 123.4 L 276.1 123.4 L 276.1 142.3 L 273.6 142.3 L 273.6 133.6 L 263.9 133.6 L 263.9 142.3 L 261.4 142.3 L 261.4 123.4 " fill="#000000"/>
<path class="atom-3" d="M 281.4 123.4 L 287.6 133.4 Q 288.2 134.4, 289.2 136.2 Q 290.2 138.0, 290.2 138.1 L 290.2 123.4 L 292.7 123.4 L 292.7 142.3 L 290.1 142.3 L 283.5 131.4 Q 282.7 130.1, 281.9 128.6 Q 281.1 127.2, 280.9 126.7 L 280.9 142.3 L 278.4 142.3 L 278.4 123.4 L 281.4 123.4 " fill="#000000"/>
<path class="atom-3" d="M 294.9 126.6 L 301.4 126.6 L 301.4 128.0 L 294.9 128.0 L 294.9 126.6 " fill="#000000"/>
<path class="atom-0" d="M 489.0,120.7 L 489.0,120.9 L 489.0,121.0 L 488.9,121.1 L 488.9,121.2 L 488.8,121.3 L 488.8,121.4 L 488.7,121.5 L 488.7,121.6 L 488.6,121.7 L 488.5,121.8 L 488.4,121.8 L 488.3,121.9 L 488.2,121.9 L 488.1,122.0 L 488.0,122.0 L 487.9,122.1 L 487.8,122.1 L 487.7,122.1 L 487.6,122.1 L 487.4,122.1 L 487.3,122.0 L 487.2,122.0 L 487.1,122.0 L 487.0,121.9 L 486.9,121.9 L 486.8,121.8 L 486.7,121.7 L 486.6,121.6 L 486.6,121.5 L 486.5,121.4 L 486.4,121.3 L 486.4,121.2 L 486.4,121.1 L 486.3,121.0 L 486.3,120.9 L 486.3,120.8 L 486.3,120.7 L 486.3,120.6 L 486.3,120.5 L 486.4,120.3 L 486.4,120.2 L 486.4,120.1 L 486.5,120.0 L 486.6,119.9 L 486.6,119.9 L 486.7,119.8 L 486.8,119.7 L 486.9,119.6 L 487.0,119.6 L 487.1,119.5 L 487.2,119.5 L 487.3,119.4 L 487.4,119.4 L 487.6,119.4 L 487.7,119.4 L 487.8,119.4 L 487.9,119.4 L 488.0,119.5 L 488.1,119.5 L 488.2,119.5 L 488.3,119.6 L 488.4,119.7 L 488.5,119.7 L 488.6,119.8 L 488.7,119.9 L 488.7,120.0 L 488.8,120.1 L 488.8,120.2 L 488.9,120.3 L 488.9,120.4 L 489.0,120.5 L 489.0,120.6 L 489.0,120.7 L 487.6,120.7 Z" style="fill:#000000;fill-rule:evenodd;fill-opacity:1;stroke:#000000;stroke-width:0.0px;stroke-linecap:butt;stroke-linejoin:miter;stroke-opacity:1;"/>
<path class="atom-2" d="M 350.9,95.2 L 350.9,95.3 L 350.9,95.5 L 350.9,95.6 L 350.9,95.7 L 350.8,95.8 L 350.8,95.9 L 350.7,96.0 L 350.6,96.1 L 350.5,96.2 L 350.5,96.2 L 350.4,96.3 L 350.3,96.4 L 350.2,96.4 L 350.1,96.5 L 350.0,96.5 L 349.9,96.5 L 349.7,96.6 L 349.6,96.6 L 349.5,96.6 L 349.4,96.5 L 349.3,96.5 L 349.2,96.5 L 349.1,96.5 L 349.0,96.4 L 348.9,96.3 L 348.8,96.3 L 348.7,96.2 L 348.6,96.1 L 348.5,96.0 L 348.5,95.9 L 348.4,95.8 L 348.4,95.7 L 348.3,95.6 L 348.3,95.5 L 348.3,95.4 L 348.3,95.3 L 348.3,95.2 L 348.3,95.1 L 348.3,94.9 L 348.3,94.8 L 348.4,94.7 L 348.4,94.6 L 348.5,94.5 L 348.5,94.4 L 348.6,94.3 L 348.7,94.3 L 348.8,94.2 L 348.9,94.1 L 349.0,94.1 L 349.1,94.0 L 349.2,94.0 L 349.3,93.9 L 349.4,93.9 L 349.5,93.9 L 349.6,93.9 L 349.7,93.9 L 349.9,93.9 L 350.0,93.9 L 350.1,94.0 L 350.2,94.0 L 350.3,94.1 L 350.4,94.1 L 350.5,94.2 L 350.5,94.3 L 350.6,94.4 L 350.7,94.5 L 350.8,94.6 L 350.8,94.7 L 350.9,94.8 L 350.9,94.9 L 350.9,95.0 L 350.9,95.1 L 350.9,95.2 L 349.6,95.2 Z" style="fill:#000000;fill-rule:evenodd;fill-opacity:1;stroke:#000000;stroke-width:0.0px;stroke-linecap:butt;stroke-linejoin:miter;stroke-opacity:1;"/>
<path class="atom-2" d="M 345.6,95.2 L 345.6,95.3 L 345.6,95.5 L 345.5,95.6 L 345.5,95.7 L 345.5,95.8 L 345.4,95.9 L 345.4,96.0 L 345.3,96.1 L 345.2,96.2 L 345.1,96.2 L 345.0,96.3 L 344.9,96.4 L 344.8,96.4 L 344.7,96.5 L 344.6,96.5 L 344.5,96.5 L 344.4,96.6 L 344.3,96.6 L 344.2,96.6 L 344.1,96.5 L 343.9,96.5 L 343.8,96.5 L 343.7,96.5 L 343.6,96.4 L 343.5,96.3 L 343.4,96.3 L 343.3,96.2 L 343.3,96.1 L 343.2,96.0 L 343.1,95.9 L 343.1,95.8 L 343.0,95.7 L 343.0,95.6 L 343.0,95.5 L 342.9,95.4 L 342.9,95.3 L 342.9,95.2 L 342.9,95.1 L 343.0,94.9 L 343.0,94.8 L 343.0,94.7 L 343.1,94.6 L 343.1,94.5 L 343.2,94.4 L 343.3,94.3 L 343.3,94.3 L 343.4,94.2 L 343.5,94.1 L 343.6,94.1 L 343.7,94.0 L 343.8,94.0 L 343.9,93.9 L 344.1,93.9 L 344.2,93.9 L 344.3,93.9 L 344.4,93.9 L 344.5,93.9 L 344.6,93.9 L 344.7,94.0 L 344.8,94.0 L 344.9,94.1 L 345.0,94.1 L 345.1,94.2 L 345.2,94.3 L 345.3,94.4 L 345.4,94.5 L 345.4,94.6 L 345.5,94.7 L 345.5,94.8 L 345.5,94.9 L 345.6,95.0 L 345.6,95.1 L 345.6,95.2 L 344.3,95.2 Z" style="fill:#000000;fill-rule:evenodd;fill-opacity:1;stroke:#000000;stroke-width:0.0px;stroke-linecap:butt;stroke-linejoin:miter;stroke-opacity:1;"/>
<path class="bond-0 atom-0 atom-1" d="M 570.7,148.4 L 626.2,116.4" style="fill:none;fill-rule:evenodd;stroke:#000000;stroke-width:2.0px;stroke-linecap:butt;stroke-linejoin:miter;stroke-opacity:1"/>
<path class="bond-1 atom-1 atom-2" d="M 648.9,116.4 L 705.3,149.0" style="fill:none;fill-rule:evenodd;stroke:#000000;stroke-width:2.0px;stroke-linecap:butt;stroke-linejoin:miter;stroke-opacity:1"/>
<path class="atom-0" d="M 511.4 142.8 L 514.9 142.8 L 514.9 153.9 L 528.2 153.9 L 528.2 142.8 L 531.8 142.8 L 531.8 168.9 L 528.2 168.9 L 528.2 156.8 L 514.9 156.8 L 514.9 168.9 L 511.4 168.9 L 511.4 142.8 " fill="#000000"/>
<path class="atom-0" d="M 534.9 167.9 Q 535.6 166.3, 537.1 165.4 Q 538.6 164.5, 540.7 164.5 Q 543.3 164.5, 544.7 165.9 Q 546.2 167.3, 546.2 169.8 Q 546.2 172.4, 544.3 174.7 Q 542.4 177.1, 538.5 179.9 L 546.5 179.9 L 546.5 181.9 L 534.9 181.9 L 534.9 180.3 Q 538.1 178.0, 540.0 176.3 Q 541.9 174.6, 542.8 173.0 Q 543.8 171.5, 543.8 169.9 Q 543.8 168.3, 542.9 167.4 Q 542.1 166.4, 540.7 166.4 Q 539.3 166.4, 538.4 167.0 Q 537.4 167.6, 536.8 168.8 L 534.9 167.9 " fill="#000000"/>
<path class="atom-0" d="M 552.1 142.8 L 560.6 156.6 Q 561.4 158.0, 562.8 160.4 Q 564.2 162.9, 564.2 163.0 L 564.2 142.8 L 567.7 142.8 L 567.7 168.9 L 564.1 168.9 L 555.0 153.8 Q 553.9 152.0, 552.8 150.0 Q 551.7 147.9, 551.3 147.3 L 551.3 168.9 L 547.9 168.9 L 547.9 142.8 L 552.1 142.8 " fill="#000000"/>
<path class="atom-1" d="M 636.9 96.8 Q 641.4 96.8, 643.6 98.8 Q 645.8 100.8, 645.8 104.4 Q 645.8 108.0, 643.5 110.1 Q 641.2 112.1, 636.9 112.1 L 632.7 112.1 L 632.7 122.8 L 629.2 122.8 L 629.2 96.8 L 636.9 96.8 M 636.9 109.2 Q 639.4 109.2, 640.8 108.0 Q 642.2 106.8, 642.2 104.4 Q 642.2 102.1, 640.8 100.9 Q 639.5 99.7, 636.9 99.7 L 632.7 99.7 L 632.7 109.2 L 636.9 109.2 " fill="#000000"/>
<path class="atom-1" d="M 627.3 68.1 L 630.9 68.1 L 630.9 79.2 L 644.2 79.2 L 644.2 68.1 L 647.7 68.1 L 647.7 94.2 L 644.2 94.2 L 644.2 82.1 L 630.9 82.1 L 630.9 94.2 L 627.3 94.2 L 627.3 68.1 " fill="#000000"/>
<path class="atom-2" d="M 721.0 155.2 Q 723.5 155.9, 724.8 157.4 Q 726.1 158.9, 726.1 161.2 Q 726.1 164.8, 723.8 166.8 Q 721.5 168.9, 717.1 168.9 L 708.4 168.9 L 708.4 142.8 L 716.1 142.8 Q 720.5 142.8, 722.8 144.6 Q 725.0 146.4, 725.0 149.7 Q 725.0 153.7, 721.0 155.2 M 711.9 145.7 L 711.9 153.9 L 716.1 153.9 Q 718.6 153.9, 720.0 152.9 Q 721.3 151.8, 721.3 149.7 Q 721.3 145.7, 716.1 145.7 L 711.9 145.7 M 717.1 165.9 Q 719.7 165.9, 721.0 164.7 Q 722.4 163.5, 722.4 161.2 Q 722.4 159.0, 720.9 158.0 Q 719.4 156.9, 716.6 156.9 L 711.9 156.9 L 711.9 165.9 L 717.1 165.9 " fill="#000000"/>
<path class="atom-2" d="M 730.6 149.9 L 731.0 152.6 Q 733.0 149.6, 736.2 149.6 Q 737.2 149.6, 738.6 150.0 L 738.1 153.1 Q 736.5 152.7, 735.6 152.7 Q 734.1 152.7, 733.0 153.3 Q 732.0 153.9, 731.2 155.3 L 731.2 168.9 L 727.8 168.9 L 727.8 149.9 L 730.6 149.9 " fill="#000000"/>
<path class="bond-0 atom-0 atom-1" d="M 217.9,370.6 L 193.6,383.7" style="fill:none;fill-rule:evenodd;stroke:#000000;stroke-width:2.0px;stroke-linecap:butt;stroke-linejoin:miter;stroke-opacity:1"/>
<path class="bond-1 atom-1 atom-2" d="M 193.6,383.7 L 169.7,369.0" style="fill:none;fill-rule:evenodd;stroke:#000000;stroke-width:2.0px;stroke-linecap:butt;stroke-linejoin:miter;stroke-opacity:1"/>
<path class="bond-1 atom-1 atom-2" d="M 193.5,375.9 L 176.7,365.6" style="fill:none;fill-rule:evenodd;stroke:#000000;stroke-width:2.0px;stroke-linecap:butt;stroke-linejoin:miter;stroke-opacity:1"/>
<path class="bond-2 atom-2 atom-3" d="M 161.6,368.7 L 146.6,376.8" style="fill:none;fill-rule:evenodd;stroke:#000000;stroke-width:2.0px;stroke-linecap:butt;stroke-linejoin:miter;stroke-opacity:1"/>
<path class="bond-3 atom-3 atom-4" d="M 132.2,379.3 L 113.0,367.4" style="fill:none;fill-rule:evenodd;stroke:#000000;stroke-width:2.0px;stroke-linecap:butt;stroke-linejoin:miter;stroke-opacity:1"/>
<path class="bond-4 atom-4 atom-5" d="M 104.8,367.1 L 80.1,380.5" style="fill:none;fill-rule:evenodd;stroke:#000000;stroke-width:2.0px;stroke-linecap:butt;stroke-linejoin:miter;stroke-opacity:1"/>
<path class="bond-5 atom-5 atom-6" d="M 80.1,380.5 L 56.7,366.2" style="fill:none;fill-rule:evenodd;stroke:#000000;stroke-width:2.0px;stroke-linecap:butt;stroke-linejoin:miter;stroke-opacity:1"/>
<path class="bond-6 atom-6 atom-7" d="M 47.5,365.8 L 31.0,374.7" style="fill:none;fill-rule:evenodd;stroke:#000000;stroke-width:2.0px;stroke-linecap:butt;stroke-linejoin:miter;stroke-opacity:1"/>
<path class="atom-0" d="M 220.4 363.4 L 223.5 368.3 Q 223.8 368.8, 224.2 369.7 Q 224.7 370.6, 224.8 370.6 L 224.8 363.4 L 226.0 363.4 L 226.0 372.7 L 224.7 372.7 L 221.4 367.3 Q 221.1 366.7, 220.7 366.0 Q 220.3 365.3, 220.1 365.0 L 220.1 372.7 L 218.9 372.7 L 218.9 363.4 L 220.4 363.4 " fill="#000000"/>
<path class="atom-0" d="M 227.1 363.4 L 228.3 363.4 L 228.3 367.4 L 233.1 367.4 L 233.1 363.4 L 234.3 363.4 L 234.3 372.7 L 233.1 372.7 L 233.1 368.4 L 228.3 368.4 L 228.3 372.7 L 227.1 372.7 L 227.1 363.4 " fill="#000000"/>
<path class="atom-0" d="M 235.5 365.0 L 238.6 365.0 L 238.6 365.7 L 235.5 365.7 L 235.5 365.0 " fill="#000000"/>
<path class="atom-2" d="M 165.5 361.8 Q 167.0 361.8, 167.8 362.6 Q 168.6 363.3, 168.6 364.6 Q 168.6 365.9, 167.8 366.6 Q 167.0 367.3, 165.5 367.3 L 164.0 367.3 L 164.0 371.1 L 162.7 371.1 L 162.7 361.8 L 165.5 361.8 M 165.5 366.3 Q 166.4 366.3, 166.9 365.8 Q 167.3 365.4, 167.3 364.6 Q 167.3 363.7, 166.9 363.3 Q 166.4 362.9, 165.5 362.9 L 164.0 362.9 L 164.0 366.3 L 165.5 366.3 " fill="#000000"/>
<path class="atom-3" d="M 134.8 377.4 L 137.8 382.4 Q 138.1 382.8, 138.6 383.7 Q 139.1 384.6, 139.1 384.7 L 139.1 377.4 L 140.4 377.4 L 140.4 386.7 L 139.1 386.7 L 135.8 381.4 Q 135.4 380.7, 135.0 380.0 Q 134.6 379.3, 134.5 379.1 L 134.5 386.7 L 133.3 386.7 L 133.3 377.4 L 134.8 377.4 " fill="#000000"/>
<path class="atom-3" d="M 141.4 379.1 L 143.1 379.1 L 143.1 377.4 L 143.8 377.4 L 143.8 379.1 L 145.5 379.1 L 145.5 379.7 L 143.8 379.7 L 143.8 381.5 L 143.1 381.5 L 143.1 379.7 L 141.4 379.7 L 141.4 379.1 " fill="#000000"/>
<path class="atom-3" d="M 133.2 387.7 L 134.5 387.7 L 134.5 391.6 L 139.2 391.6 L 139.2 387.7 L 140.5 387.7 L 140.5 396.9 L 139.2 396.9 L 139.2 392.7 L 134.5 392.7 L 134.5 396.9 L 133.2 396.9 L 133.2 387.7 " fill="#000000"/>
<path class="atom-3" d="M 141.6 396.6 Q 141.8 396.0, 142.4 395.7 Q 142.9 395.4, 143.6 395.4 Q 144.6 395.4, 145.1 395.9 Q 145.6 396.4, 145.6 397.3 Q 145.6 398.2, 144.9 399.0 Q 144.3 399.9, 142.9 400.9 L 145.7 400.9 L 145.7 401.6 L 141.6 401.6 L 141.6 401.0 Q 142.7 400.2, 143.4 399.6 Q 144.1 399.0, 144.4 398.4 Q 144.7 397.9, 144.7 397.3 Q 144.7 396.7, 144.4 396.4 Q 144.2 396.1, 143.6 396.1 Q 143.1 396.1, 142.8 396.3 Q 142.5 396.5, 142.3 396.9 L 141.6 396.6 " fill="#000000"/>
<path class="atom-4" d="M 106.3 368.1 Q 106.4 368.1, 106.8 368.3 Q 107.2 368.5, 107.7 368.6 Q 108.2 368.7, 108.7 368.7 Q 109.6 368.7, 110.1 368.3 Q 110.6 367.9, 110.6 367.1 Q 110.6 366.6, 110.3 366.3 Q 110.1 366.0, 109.7 365.8 Q 109.3 365.6, 108.6 365.4 Q 107.8 365.2, 107.3 365.0 Q 106.8 364.7, 106.5 364.2 Q 106.1 363.7, 106.1 362.9 Q 106.1 361.7, 106.9 361.0 Q 107.7 360.3, 109.3 360.3 Q 110.4 360.3, 111.6 360.8 L 111.3 361.8 Q 110.2 361.3, 109.3 361.3 Q 108.4 361.3, 107.9 361.7 Q 107.4 362.1, 107.4 362.7 Q 107.4 363.2, 107.7 363.5 Q 107.9 363.8, 108.3 364.0 Q 108.7 364.2, 109.3 364.4 Q 110.2 364.6, 110.7 364.9 Q 111.2 365.2, 111.5 365.7 Q 111.9 366.2, 111.9 367.1 Q 111.9 368.4, 111.0 369.1 Q 110.2 369.8, 108.7 369.8 Q 107.9 369.8, 107.3 369.6 Q 106.7 369.4, 105.9 369.1 L 106.3 368.1 " fill="#000000"/>
<path class="atom-4" d="M 112.5 361.7 L 115.7 361.7 L 115.7 362.4 L 112.5 362.4 L 112.5 361.7 " fill="#000000"/>
<path class="atom-6" d="M 50.1 358.7 L 53.1 363.6 Q 53.4 364.1, 53.9 365.0 Q 54.4 365.8, 54.4 365.9 L 54.4 358.7 L 55.6 358.7 L 55.6 368.0 L 54.4 368.0 L 51.1 362.6 Q 50.7 362.0, 50.3 361.2 Q 49.9 360.5, 49.8 360.3 L 49.8 368.0 L 48.6 368.0 L 48.6 358.7 L 50.1 358.7 " fill="#000000"/>
<path class="atom-6" d="M 48.5 348.5 L 49.7 348.5 L 49.7 352.4 L 54.5 352.4 L 54.5 348.5 L 55.8 348.5 L 55.8 357.7 L 54.5 357.7 L 54.5 353.5 L 49.7 353.5 L 49.7 357.7 L 48.5 357.7 L 48.5 348.5 " fill="#000000"/>
<path class="atom-6" d="M 56.9 357.4 Q 57.1 356.8, 57.6 356.5 Q 58.2 356.2, 58.9 356.2 Q 59.9 356.2, 60.4 356.7 Q 60.9 357.2, 60.9 358.1 Q 60.9 359.0, 60.2 359.8 Q 59.6 360.7, 58.2 361.7 L 61.0 361.7 L 61.0 362.4 L 56.9 362.4 L 56.9 361.8 Q 58.0 361.0, 58.7 360.4 Q 59.4 359.8, 59.7 359.2 Q 60.0 358.7, 60.0 358.1 Q 60.0 357.5, 59.7 357.2 Q 59.4 356.9, 58.9 356.9 Q 58.4 356.9, 58.1 357.1 Q 57.8 357.3, 57.5 357.7 L 56.9 357.4 " fill="#000000"/>
<path class="atom-6" d="M 56.9 350.1 L 58.5 350.1 L 58.5 348.4 L 59.3 348.4 L 59.3 350.1 L 61.0 350.1 L 61.0 350.8 L 59.3 350.8 L 59.3 352.5 L 58.5 352.5 L 58.5 350.8 L 56.9 350.8 L 56.9 350.1 " fill="#000000"/>
<path class="atom-7" d="M 11.4 374.3 L 12.6 374.3 L 12.6 378.2 L 17.4 378.2 L 17.4 374.3 L 18.6 374.3 L 18.6 383.6 L 17.4 383.6 L 17.4 379.3 L 12.6 379.3 L 12.6 383.6 L 11.4 383.6 L 11.4 374.3 " fill="#000000"/>
<path class="atom-7" d="M 21.2 374.3 L 24.3 379.2 Q 24.6 379.7, 25.0 380.6 Q 25.5 381.4, 25.6 381.5 L 25.6 374.3 L 26.8 374.3 L 26.8 383.6 L 25.5 383.6 L 22.3 378.2 Q 21.9 377.6, 21.5 376.8 Q 21.1 376.1, 21.0 375.9 L 21.0 383.6 L 19.7 383.6 L 19.7 374.3 L 21.2 374.3 " fill="#000000"/>
<path class="atom-7" d="M 27.9 375.8 L 31.1 375.8 L 31.1 376.5 L 27.9 376.5 L 27.9 375.8 " fill="#000000"/>
<path class="atom-4" d="M 118.3,364.9 L 118.3,365.0 L 118.3,365.0 L 118.3,365.1 L 118.3,365.1 L 118.2,365.2 L 118.2,365.2 L 118.2,365.3 L 118.1,365.3 L 118.1,365.4 L 118.1,365.4 L 118.0,365.4 L 118.0,365.5 L 117.9,365.5 L 117.9,365.5 L 117.8,365.5 L 117.8,365.5 L 117.7,365.6 L 117.7,365.6 L 117.6,365.6 L 117.5,365.6 L 117.5,365.5 L 117.4,365.5 L 117.4,365.5 L 117.3,365.5 L 117.3,365.5 L 117.2,365.4 L 117.2,365.4 L 117.2,365.3 L 117.1,365.3 L 117.1,365.3 L 117.1,365.2 L 117.0,365.2 L 117.0,365.1 L 117.0,365.0 L 117.0,365.0 L 117.0,364.9 L 117.0,364.9 L 117.0,364.8 L 117.0,364.8 L 117.0,364.7 L 117.0,364.7 L 117.1,364.6 L 117.1,364.6 L 117.1,364.5 L 117.2,364.5 L 117.2,364.4 L 117.2,364.4 L 117.3,364.4 L 117.3,364.3 L 117.4,364.3 L 117.4,364.3 L 117.5,364.3 L 117.5,364.3 L 117.6,364.2 L 117.7,364.2 L 117.7,364.3 L 117.8,364.3 L 117.8,364.3 L 117.9,364.3 L 117.9,364.3 L 118.0,364.3 L 118.0,364.4 L 118.1,364.4 L 118.1,364.4 L 118.1,364.5 L 118.2,364.5 L 118.2,364.6 L 118.2,364.6 L 118.3,364.7 L 118.3,364.7 L 118.3,364.8 L 118.3,364.8 L 118.3,364.9 L 117.6,364.9 Z" style="fill:#000000;fill-rule:evenodd;fill-opacity:1;stroke:#000000;stroke-width:0.0px;stroke-linecap:butt;stroke-linejoin:miter;stroke-opacity:1;"/>
<path class="bond-0 atom-0 atom-1" d="M 265.1,384.5 L 285.6,373.1" style="fill:none;fill-rule:evenodd;stroke:#000000;stroke-width:2.0px;stroke-linecap:butt;stroke-linejoin:miter;stroke-opacity:1"/>
<path class="bond-1 atom-1 atom-2" d="M 292.4,373.3 L 309.0,383.3" style="fill:none;fill-rule:evenodd;stroke:#000000;stroke-width:2.0px;stroke-linecap:butt;stroke-linejoin:miter;stroke-opacity:1"/>
<path class="bond-1 atom-1 atom-2" d="M 292.1,379.5 L 303.7,386.5" style="fill:none;fill-rule:evenodd;stroke:#000000;stroke-width:2.0px;stroke-linecap:butt;stroke-linejoin:miter;stroke-opacity:1"/>
<path class="bond-2 atom-2 atom-3" d="M 315.8,383.5 L 333.0,374.0" style="fill:none;fill-rule:evenodd;stroke:#000000;stroke-width:2.0px;stroke-linecap:butt;stroke-linejoin:miter;stroke-opacity:1"/>
<path class="bond-2 atom-2 atom-3" d="M 315.7,377.3 L 327.7,370.6" style="fill:none;fill-rule:evenodd;stroke:#000000;stroke-width:2.0px;stroke-linecap:butt;stroke-linejoin:miter;stroke-opacity:1"/>
<path class="bond-3 atom-3 atom-4" d="M 339.7,374.1 L 356.0,383.9" style="fill:none;fill-rule:evenodd;stroke:#000000;stroke-width:2.0px;stroke-linecap:butt;stroke-linejoin:miter;stroke-opacity:1"/>
<path class="bond-3 atom-3 atom-4" d="M 339.4,380.3 L 350.7,387.1" style="fill:none;fill-rule:evenodd;stroke:#000000;stroke-width:2.0px;stroke-linecap:butt;stroke-linejoin:miter;stroke-opacity:1"/>
<path class="bond-4 atom-4 atom-5" d="M 367.9,381.7 L 380.4,374.8" style="fill:none;fill-rule:evenodd;stroke:#000000;stroke-width:2.0px;stroke-linecap:butt;stroke-linejoin:miter;stroke-opacity:1"/>
<path class="bond-5 atom-5 atom-6" d="M 387.1,375.0 L 407.2,387.0" style="fill:none;fill-rule:evenodd;stroke:#000000;stroke-width:2.0px;stroke-linecap:butt;stroke-linejoin:miter;stroke-opacity:1"/>
<path class="bond-6 atom-6 atom-7" d="M 407.2,387.0 L 427.7,375.6" style="fill:none;fill-rule:evenodd;stroke:#000000;stroke-width:2.0px;stroke-linecap:butt;stroke-linejoin:miter;stroke-opacity:1"/>
<path class="bond-6 atom-6 atom-7" d="M 407.6,380.5 L 422.0,372.6" style="fill:none;fill-rule:evenodd;stroke:#000000;stroke-width:2.0px;stroke-linecap:butt;stroke-linejoin:miter;stroke-opacity:1"/>
<path class="bond-7 atom-7 atom-8" d="M 434.5,375.8 L 454.5,387.9" style="fill:none;fill-rule:evenodd;stroke:#000000;stroke-width:2.0px;stroke-linecap:butt;stroke-linejoin:miter;stroke-opacity:1"/>
<path class="bond-8 atom-8 atom-9" d="M 454.5,387.9 L 474.0,377.1" style="fill:none;fill-rule:evenodd;stroke:#000000;stroke-width:2.0px;stroke-linecap:butt;stroke-linejoin:miter;stroke-opacity:1"/>
<path class="atom-1" d="M 286.8 373.9 Q 286.9 373.9, 287.2 374.1 Q 287.6 374.3, 288.0 374.4 Q 288.4 374.4, 288.8 374.4 Q 289.5 374.4, 290.0 374.1 Q 290.4 373.7, 290.4 373.1 Q 290.4 372.7, 290.2 372.4 Q 290.0 372.2, 289.6 372.0 Q 289.3 371.9, 288.8 371.7 Q 288.1 371.5, 287.6 371.3 Q 287.2 371.1, 286.9 370.7 Q 286.7 370.3, 286.7 369.6 Q 286.7 368.6, 287.3 368.0 Q 288.0 367.4, 289.3 367.4 Q 290.2 367.4, 291.2 367.8 L 291.0 368.7 Q 290.0 368.3, 289.3 368.3 Q 288.6 368.3, 288.2 368.6 Q 287.7 368.9, 287.8 369.4 Q 287.8 369.9, 288.0 370.1 Q 288.2 370.4, 288.5 370.5 Q 288.8 370.6, 289.3 370.8 Q 290.0 371.0, 290.5 371.2 Q 290.9 371.5, 291.2 371.9 Q 291.5 372.4, 291.5 373.1 Q 291.5 374.2, 290.7 374.8 Q 290.0 375.3, 288.8 375.3 Q 288.2 375.3, 287.6 375.2 Q 287.1 375.0, 286.5 374.8 L 286.8 373.9 " fill="#000000"/>
<path class="atom-2" d="M 310.2 388.0 Q 310.3 388.0, 310.7 388.2 Q 311.0 388.3, 311.4 388.4 Q 311.8 388.5, 312.2 388.5 Q 313.0 388.5, 313.4 388.2 Q 313.8 387.8, 313.8 387.2 Q 313.8 386.8, 313.6 386.5 Q 313.4 386.2, 313.1 386.1 Q 312.7 386.0, 312.2 385.8 Q 311.5 385.6, 311.1 385.4 Q 310.7 385.2, 310.4 384.8 Q 310.1 384.4, 310.1 383.7 Q 310.1 382.7, 310.8 382.1 Q 311.4 381.5, 312.7 381.5 Q 313.6 381.5, 314.7 381.9 L 314.4 382.8 Q 313.5 382.4, 312.8 382.4 Q 312.0 382.4, 311.6 382.7 Q 311.2 383.0, 311.2 383.5 Q 311.2 384.0, 311.4 384.2 Q 311.6 384.5, 311.9 384.6 Q 312.3 384.7, 312.8 384.9 Q 313.5 385.1, 313.9 385.3 Q 314.3 385.6, 314.6 386.0 Q 314.9 386.4, 314.9 387.2 Q 314.9 388.3, 314.2 388.9 Q 313.5 389.4, 312.3 389.4 Q 311.6 389.4, 311.1 389.3 Q 310.6 389.1, 309.9 388.9 L 310.2 388.0 " fill="#000000"/>
<path class="atom-3" d="M 334.2 374.8 Q 334.3 374.8, 334.6 374.9 Q 335.0 375.1, 335.4 375.2 Q 335.8 375.3, 336.2 375.3 Q 336.9 375.3, 337.3 374.9 Q 337.8 374.6, 337.8 373.9 Q 337.8 373.5, 337.5 373.3 Q 337.3 373.0, 337.0 372.8 Q 336.7 372.7, 336.1 372.5 Q 335.4 372.3, 335.0 372.1 Q 334.6 371.9, 334.3 371.5 Q 334.0 371.1, 334.0 370.4 Q 334.0 369.4, 334.7 368.8 Q 335.4 368.2, 336.7 368.2 Q 337.6 368.2, 338.6 368.7 L 338.3 369.5 Q 337.4 369.1, 336.7 369.1 Q 336.0 369.1, 335.5 369.4 Q 335.1 369.7, 335.1 370.3 Q 335.1 370.7, 335.3 370.9 Q 335.6 371.2, 335.9 371.3 Q 336.2 371.5, 336.7 371.6 Q 337.4 371.9, 337.8 372.1 Q 338.2 372.3, 338.5 372.8 Q 338.8 373.2, 338.8 373.9 Q 338.8 375.0, 338.1 375.6 Q 337.4 376.2, 336.2 376.2 Q 335.5 376.2, 335.0 376.0 Q 334.5 375.9, 333.9 375.6 L 334.2 374.8 " fill="#000000"/>
<path class="atom-3" d="M 333.3 359.5 L 334.4 359.5 L 334.4 362.8 L 338.3 362.8 L 338.3 359.5 L 339.4 359.5 L 339.4 367.2 L 338.3 367.2 L 338.3 363.7 L 334.4 363.7 L 334.4 367.2 L 333.3 367.2 L 333.3 359.5 " fill="#000000"/>
<path class="atom-3" d="M 340.3 360.9 L 341.7 360.9 L 341.7 359.5 L 342.3 359.5 L 342.3 360.9 L 343.7 360.9 L 343.7 361.4 L 342.3 361.4 L 342.3 362.9 L 341.7 362.9 L 341.7 361.4 L 340.3 361.4 L 340.3 360.9 " fill="#000000"/>
<path class="atom-4" d="M 358.1 382.3 L 360.6 386.4 Q 360.9 386.8, 361.3 387.6 Q 361.7 388.3, 361.7 388.3 L 361.7 382.3 L 362.7 382.3 L 362.7 390.1 L 361.7 390.1 L 359.0 385.6 Q 358.6 385.1, 358.3 384.4 Q 358.0 383.8, 357.9 383.7 L 357.9 390.1 L 356.9 390.1 L 356.9 382.3 L 358.1 382.3 " fill="#000000"/>
<path class="atom-4" d="M 363.6 383.7 L 365.0 383.7 L 365.0 382.3 L 365.6 382.3 L 365.6 383.7 L 367.0 383.7 L 367.0 384.2 L 365.6 384.2 L 365.6 385.7 L 365.0 385.7 L 365.0 384.2 L 363.6 384.2 L 363.6 383.7 " fill="#000000"/>
<path class="atom-5" d="M 383.5 369.1 Q 384.9 369.1, 385.5 369.7 Q 386.2 370.3, 386.2 371.3 Q 386.2 372.4, 385.5 373.0 Q 384.8 373.6, 383.5 373.6 L 382.3 373.6 L 382.3 376.8 L 381.3 376.8 L 381.3 369.1 L 383.5 369.1 M 383.5 372.7 Q 384.3 372.7, 384.7 372.4 Q 385.1 372.0, 385.1 371.3 Q 385.1 370.6, 384.7 370.3 Q 384.3 369.9, 383.5 369.9 L 382.3 369.9 L 382.3 372.7 L 383.5 372.7 " fill="#000000"/>
<path class="atom-5" d="M 380.7 360.5 L 381.7 360.5 L 381.7 363.8 L 385.7 363.8 L 385.7 360.5 L 386.8 360.5 L 386.8 368.3 L 385.7 368.3 L 385.7 364.7 L 381.7 364.7 L 381.7 368.3 L 380.7 368.3 L 380.7 360.5 " fill="#000000"/>
<path class="atom-5" d="M 387.7 361.9 L 389.1 361.9 L 389.1 360.5 L 389.7 360.5 L 389.7 361.9 L 391.1 361.9 L 391.1 362.5 L 389.7 362.5 L 389.7 363.9 L 389.1 363.9 L 389.1 362.5 L 387.7 362.5 L 387.7 361.9 " fill="#000000"/>
<path class="atom-7" d="M 428.9 376.4 Q 429.0 376.5, 429.4 376.6 Q 429.7 376.8, 430.1 376.9 Q 430.5 377.0, 430.9 377.0 Q 431.6 377.0, 432.1 376.6 Q 432.5 376.2, 432.5 375.6 Q 432.5 375.2, 432.3 374.9 Q 432.1 374.7, 431.7 374.5 Q 431.4 374.4, 430.9 374.2 Q 430.2 374.0, 429.8 373.8 Q 429.4 373.6, 429.1 373.2 Q 428.8 372.8, 428.8 372.1 Q 428.8 371.1, 429.4 370.5 Q 430.1 369.9, 431.4 369.9 Q 432.3 369.9, 433.3 370.3 L 433.1 371.2 Q 432.2 370.8, 431.4 370.8 Q 430.7 370.8, 430.3 371.1 Q 429.9 371.4, 429.9 372.0 Q 429.9 372.4, 430.1 372.6 Q 430.3 372.9, 430.6 373.0 Q 430.9 373.2, 431.4 373.3 Q 432.2 373.5, 432.6 373.8 Q 433.0 374.0, 433.3 374.4 Q 433.6 374.9, 433.6 375.6 Q 433.6 376.7, 432.9 377.3 Q 432.2 377.8, 431.0 377.8 Q 430.3 377.8, 429.7 377.7 Q 429.2 377.5, 428.6 377.3 L 428.9 376.4 " fill="#000000"/>
<path class="atom-7" d="M 434.1 371.2 L 435.5 371.2 L 435.5 369.8 L 436.1 369.8 L 436.1 371.2 L 437.5 371.2 L 437.5 371.7 L 436.1 371.7 L 436.1 373.2 L 435.5 373.2 L 435.5 371.7 L 434.1 371.7 L 434.1 371.2 " fill="#000000"/>
<path class="atom-9" d="M 474.9 374.6 Q 474.9 372.8, 475.8 371.7 Q 476.8 370.7, 478.5 370.7 Q 480.2 370.7, 481.1 371.7 Q 482.0 372.8, 482.0 374.6 Q 482.0 376.5, 481.1 377.6 Q 480.2 378.6, 478.5 378.6 Q 476.8 378.6, 475.8 377.6 Q 474.9 376.5, 474.9 374.6 M 478.5 377.8 Q 479.7 377.8, 480.3 377.0 Q 480.9 376.2, 480.9 374.6 Q 480.9 373.1, 480.3 372.3 Q 479.7 371.6, 478.5 371.6 Q 477.3 371.6, 476.6 372.3 Q 476.0 373.1, 476.0 374.6 Q 476.0 376.2, 476.6 377.0 Q 477.3 377.8, 478.5 377.8 " fill="#000000"/>
<path class="atom-9" d="M 482.6 370.8 L 483.6 370.8 L 483.6 374.1 L 487.6 374.1 L 487.6 370.8 L 488.6 370.8 L 488.6 378.5 L 487.6 378.5 L 487.6 374.9 L 483.6 374.9 L 483.6 378.5 L 482.6 378.5 L 482.6 370.8 " fill="#000000"/>
<path class="atom-0" d="M 262.3,381.8 L 262.3,381.8 L 262.3,381.9 L 262.3,381.9 L 262.3,382.0 L 262.3,382.0 L 262.2,382.0 L 262.2,382.1 L 262.2,382.1 L 262.2,382.2 L 262.1,382.2 L 262.1,382.2 L 262.1,382.2 L 262.0,382.3 L 262.0,382.3 L 261.9,382.3 L 261.9,382.3 L 261.8,382.3 L 261.8,382.3 L 261.7,382.3 L 261.7,382.3 L 261.6,382.3 L 261.6,382.3 L 261.6,382.3 L 261.5,382.3 L 261.5,382.2 L 261.4,382.2 L 261.4,382.2 L 261.4,382.1 L 261.3,382.1 L 261.3,382.1 L 261.3,382.0 L 261.3,382.0 L 261.3,381.9 L 261.2,381.9 L 261.2,381.8 L 261.2,381.8 L 261.2,381.8 L 261.2,381.7 L 261.2,381.7 L 261.3,381.6 L 261.3,381.6 L 261.3,381.5 L 261.3,381.5 L 261.3,381.4 L 261.4,381.4 L 261.4,381.4 L 261.4,381.3 L 261.5,381.3 L 261.5,381.3 L 261.6,381.3 L 261.6,381.3 L 261.6,381.2 L 261.7,381.2 L 261.7,381.2 L 261.8,381.2 L 261.8,381.2 L 261.9,381.2 L 261.9,381.3 L 262.0,381.3 L 262.0,381.3 L 262.1,381.3 L 262.1,381.3 L 262.1,381.4 L 262.2,381.4 L 262.2,381.4 L 262.2,381.5 L 262.2,381.5 L 262.3,381.6 L 262.3,381.6 L 262.3,381.6 L 262.3,381.7 L 262.3,381.7 L 262.3,381.8 L 261.8,381.8 Z" style="fill:#000000;fill-rule:evenodd;fill-opacity:1;stroke:#000000;stroke-width:0.0px;stroke-linecap:butt;stroke-linejoin:miter;stroke-opacity:1;"/>
<path class="atom-0" d="M 262.3,387.2 L 262.3,387.3 L 262.3,387.3 L 262.3,387.4 L 262.3,387.4 L 262.3,387.5 L 262.2,387.5 L 262.2,387.6 L 262.2,387.6 L 262.2,387.6 L 262.1,387.7 L 262.1,387.7 L 262.1,387.7 L 262.0,387.7 L 262.0,387.8 L 261.9,387.8 L 261.9,387.8 L 261.8,387.8 L 261.8,387.8 L 261.7,387.8 L 261.7,387.8 L 261.6,387.8 L 261.6,387.8 L 261.6,387.8 L 261.5,387.7 L 261.5,387.7 L 261.4,387.7 L 261.4,387.6 L 261.4,387.6 L 261.3,387.6 L 261.3,387.5 L 261.3,387.5 L 261.3,387.5 L 261.3,387.4 L 261.2,387.4 L 261.2,387.3 L 261.2,387.3 L 261.2,387.2 L 261.2,387.2 L 261.2,387.1 L 261.3,387.1 L 261.3,387.0 L 261.3,387.0 L 261.3,387.0 L 261.3,386.9 L 261.4,386.9 L 261.4,386.9 L 261.4,386.8 L 261.5,386.8 L 261.5,386.8 L 261.6,386.7 L 261.6,386.7 L 261.6,386.7 L 261.7,386.7 L 261.7,386.7 L 261.8,386.7 L 261.8,386.7 L 261.9,386.7 L 261.9,386.7 L 262.0,386.7 L 262.0,386.8 L 262.1,386.8 L 262.1,386.8 L 262.1,386.8 L 262.2,386.9 L 262.2,386.9 L 262.2,386.9 L 262.2,387.0 L 262.3,387.0 L 262.3,387.1 L 262.3,387.1 L 262.3,387.2 L 262.3,387.2 L 262.3,387.2 L 261.8,387.2 Z" style="fill:#000000;fill-rule:evenodd;fill-opacity:1;stroke:#000000;stroke-width:0.0px;stroke-linecap:butt;stroke-linejoin:miter;stroke-opacity:1;"/>
<path class="atom-0" d="M 262.3,384.5 L 262.3,384.6 L 262.3,384.6 L 262.3,384.7 L 262.3,384.7 L 262.3,384.7 L 262.2,384.8 L 262.2,384.8 L 262.2,384.9 L 262.2,384.9 L 262.1,384.9 L 262.1,385.0 L 262.1,385.0 L 262.0,385.0 L 262.0,385.0 L 261.9,385.0 L 261.9,385.1 L 261.8,385.1 L 261.8,385.1 L 261.7,385.1 L 261.7,385.1 L 261.6,385.0 L 261.6,385.0 L 261.6,385.0 L 261.5,385.0 L 261.5,385.0 L 261.4,384.9 L 261.4,384.9 L 261.4,384.9 L 261.3,384.8 L 261.3,384.8 L 261.3,384.8 L 261.3,384.7 L 261.3,384.7 L 261.2,384.6 L 261.2,384.6 L 261.2,384.5 L 261.2,384.5 L 261.2,384.4 L 261.2,384.4 L 261.3,384.4 L 261.3,384.3 L 261.3,384.3 L 261.3,384.2 L 261.3,384.2 L 261.4,384.1 L 261.4,384.1 L 261.4,384.1 L 261.5,384.1 L 261.5,384.0 L 261.6,384.0 L 261.6,384.0 L 261.6,384.0 L 261.7,384.0 L 261.7,384.0 L 261.8,384.0 L 261.8,384.0 L 261.9,384.0 L 261.9,384.0 L 262.0,384.0 L 262.0,384.0 L 262.1,384.0 L 262.1,384.1 L 262.1,384.1 L 262.2,384.1 L 262.2,384.2 L 262.2,384.2 L 262.2,384.2 L 262.3,384.3 L 262.3,384.3 L 262.3,384.4 L 262.3,384.4 L 262.3,384.5 L 262.3,384.5 L 261.8,384.5 Z" style="fill:#000000;fill-rule:evenodd;fill-opacity:1;stroke:#000000;stroke-width:0.0px;stroke-linecap:butt;stroke-linejoin:miter;stroke-opacity:1;"/>
<path class="atom-1" d="M 289.5,376.1 L 289.5,376.2 L 289.5,376.2 L 289.5,376.3 L 289.5,376.3 L 289.5,376.4 L 289.5,376.4 L 289.4,376.5 L 289.4,376.5 L 289.4,376.5 L 289.3,376.6 L 289.3,376.6 L 289.3,376.6 L 289.2,376.6 L 289.2,376.7 L 289.1,376.7 L 289.1,376.7 L 289.0,376.7 L 289.0,376.7 L 288.9,376.7 L 288.9,376.7 L 288.9,376.7 L 288.8,376.7 L 288.8,376.7 L 288.7,376.6 L 288.7,376.6 L 288.6,376.6 L 288.6,376.5 L 288.6,376.5 L 288.5,376.5 L 288.5,376.4 L 288.5,376.4 L 288.5,376.4 L 288.5,376.3 L 288.4,376.3 L 288.4,376.2 L 288.4,376.2 L 288.4,376.1 L 288.4,376.1 L 288.4,376.0 L 288.5,376.0 L 288.5,375.9 L 288.5,375.9 L 288.5,375.9 L 288.5,375.8 L 288.6,375.8 L 288.6,375.7 L 288.6,375.7 L 288.7,375.7 L 288.7,375.7 L 288.8,375.6 L 288.8,375.6 L 288.9,375.6 L 288.9,375.6 L 288.9,375.6 L 289.0,375.6 L 289.0,375.6 L 289.1,375.6 L 289.1,375.6 L 289.2,375.6 L 289.2,375.7 L 289.3,375.7 L 289.3,375.7 L 289.3,375.7 L 289.4,375.8 L 289.4,375.8 L 289.4,375.8 L 289.5,375.9 L 289.5,375.9 L 289.5,376.0 L 289.5,376.0 L 289.5,376.1 L 289.5,376.1 L 289.5,376.1 L 289.0,376.1 Z" style="fill:#000000;fill-rule:evenodd;fill-opacity:1;stroke:#000000;stroke-width:0.0px;stroke-linecap:butt;stroke-linejoin:miter;stroke-opacity:1;"/>
<path class="atom-4" d="M 369.2,386.2 L 369.2,386.2 L 369.2,386.3 L 369.2,386.3 L 369.2,386.4 L 369.2,386.4 L 369.1,386.5 L 369.1,386.5 L 369.1,386.5 L 369.1,386.6 L 369.0,386.6 L 369.0,386.6 L 368.9,386.7 L 368.9,386.7 L 368.9,386.7 L 368.8,386.7 L 368.8,386.7 L 368.7,386.7 L 368.7,386.7 L 368.6,386.7 L 368.6,386.7 L 368.5,386.7 L 368.5,386.7 L 368.4,386.7 L 368.4,386.7 L 368.4,386.6 L 368.3,386.6 L 368.3,386.6 L 368.3,386.6 L 368.2,386.5 L 368.2,386.5 L 368.2,386.4 L 368.2,386.4 L 368.1,386.4 L 368.1,386.3 L 368.1,386.3 L 368.1,386.2 L 368.1,386.2 L 368.1,386.1 L 368.1,386.1 L 368.1,386.0 L 368.2,386.0 L 368.2,385.9 L 368.2,385.9 L 368.2,385.9 L 368.3,385.8 L 368.3,385.8 L 368.3,385.8 L 368.4,385.7 L 368.4,385.7 L 368.4,385.7 L 368.5,385.7 L 368.5,385.7 L 368.6,385.6 L 368.6,385.6 L 368.7,385.6 L 368.7,385.6 L 368.8,385.7 L 368.8,385.7 L 368.9,385.7 L 368.9,385.7 L 368.9,385.7 L 369.0,385.7 L 369.0,385.8 L 369.1,385.8 L 369.1,385.8 L 369.1,385.9 L 369.1,385.9 L 369.2,386.0 L 369.2,386.0 L 369.2,386.0 L 369.2,386.1 L 369.2,386.1 L 369.2,386.2 L 368.7,386.2 Z" style="fill:#000000;fill-rule:evenodd;fill-opacity:1;stroke:#000000;stroke-width:0.0px;stroke-linecap:butt;stroke-linejoin:miter;stroke-opacity:1;"/>
<path class="atom-5" d="M 384.3,359.7 L 384.3,359.7 L 384.3,359.8 L 384.3,359.8 L 384.2,359.9 L 384.2,359.9 L 384.2,359.9 L 384.2,360.0 L 384.2,360.0 L 384.1,360.1 L 384.1,360.1 L 384.0,360.1 L 384.0,360.1 L 384.0,360.2 L 383.9,360.2 L 383.9,360.2 L 383.8,360.2 L 383.8,360.2 L 383.7,360.2 L 383.7,360.2 L 383.6,360.2 L 383.6,360.2 L 383.6,360.2 L 383.5,360.2 L 383.5,360.2 L 383.4,360.1 L 383.4,360.1 L 383.4,360.1 L 383.3,360.0 L 383.3,360.0 L 383.3,360.0 L 383.2,359.9 L 383.2,359.9 L 383.2,359.8 L 383.2,359.8 L 383.2,359.7 L 383.2,359.7 L 383.2,359.7 L 383.2,359.6 L 383.2,359.6 L 383.2,359.5 L 383.2,359.5 L 383.2,359.4 L 383.3,359.4 L 383.3,359.3 L 383.3,359.3 L 383.4,359.3 L 383.4,359.2 L 383.4,359.2 L 383.5,359.2 L 383.5,359.2 L 383.6,359.2 L 383.6,359.1 L 383.6,359.1 L 383.7,359.1 L 383.7,359.1 L 383.8,359.1 L 383.8,359.1 L 383.9,359.1 L 383.9,359.2 L 384.0,359.2 L 384.0,359.2 L 384.0,359.2 L 384.1,359.3 L 384.1,359.3 L 384.2,359.3 L 384.2,359.4 L 384.2,359.4 L 384.2,359.4 L 384.2,359.5 L 384.3,359.5 L 384.3,359.6 L 384.3,359.6 L 384.3,359.7 L 383.7,359.7 Z" style="fill:#000000;fill-rule:evenodd;fill-opacity:1;stroke:#000000;stroke-width:0.0px;stroke-linecap:butt;stroke-linejoin:miter;stroke-opacity:1;"/>
<path class="atom-8" d="M 456.2,390.3 L 456.2,390.4 L 456.2,390.4 L 456.2,390.5 L 456.2,390.5 L 456.1,390.6 L 456.1,390.6 L 456.1,390.6 L 456.1,390.7 L 456.0,390.7 L 456.0,390.7 L 456.0,390.8 L 455.9,390.8 L 455.9,390.8 L 455.8,390.8 L 455.8,390.9 L 455.7,390.9 L 455.7,390.9 L 455.6,390.9 L 455.6,390.9 L 455.6,390.9 L 455.5,390.9 L 455.5,390.8 L 455.4,390.8 L 455.4,390.8 L 455.3,390.8 L 455.3,390.8 L 455.3,390.7 L 455.2,390.7 L 455.2,390.7 L 455.2,390.6 L 455.2,390.6 L 455.1,390.5 L 455.1,390.5 L 455.1,390.4 L 455.1,390.4 L 455.1,390.3 L 455.1,390.3 L 455.1,390.3 L 455.1,390.2 L 455.1,390.2 L 455.1,390.1 L 455.2,390.1 L 455.2,390.0 L 455.2,390.0 L 455.2,390.0 L 455.3,389.9 L 455.3,389.9 L 455.3,389.9 L 455.4,389.8 L 455.4,389.8 L 455.5,389.8 L 455.5,389.8 L 455.6,389.8 L 455.6,389.8 L 455.6,389.8 L 455.7,389.8 L 455.7,389.8 L 455.8,389.8 L 455.8,389.8 L 455.9,389.8 L 455.9,389.9 L 456.0,389.9 L 456.0,389.9 L 456.0,389.9 L 456.1,390.0 L 456.1,390.0 L 456.1,390.1 L 456.1,390.1 L 456.2,390.1 L 456.2,390.2 L 456.2,390.2 L 456.2,390.3 L 456.2,390.3 L 455.6,390.3 Z" style="fill:#000000;fill-rule:evenodd;fill-opacity:1;stroke:#000000;stroke-width:0.0px;stroke-linecap:butt;stroke-linejoin:miter;stroke-opacity:1;"/>
<path class="atom-8" d="M 454.0,390.3 L 454.0,390.4 L 454.0,390.4 L 454.0,390.5 L 454.0,390.5 L 453.9,390.6 L 453.9,390.6 L 453.9,390.6 L 453.9,390.7 L 453.8,390.7 L 453.8,390.7 L 453.8,390.8 L 453.7,390.8 L 453.7,390.8 L 453.6,390.8 L 453.6,390.9 L 453.6,390.9 L 453.5,390.9 L 453.5,390.9 L 453.4,390.9 L 453.4,390.9 L 453.3,390.9 L 453.3,390.8 L 453.2,390.8 L 453.2,390.8 L 453.1,390.8 L 453.1,390.8 L 453.1,390.7 L 453.0,390.7 L 453.0,390.7 L 453.0,390.6 L 453.0,390.6 L 452.9,390.5 L 452.9,390.5 L 452.9,390.4 L 452.9,390.4 L 452.9,390.3 L 452.9,390.3 L 452.9,390.3 L 452.9,390.2 L 452.9,390.2 L 452.9,390.1 L 453.0,390.1 L 453.0,390.0 L 453.0,390.0 L 453.0,390.0 L 453.1,389.9 L 453.1,389.9 L 453.1,389.9 L 453.2,389.8 L 453.2,389.8 L 453.3,389.8 L 453.3,389.8 L 453.4,389.8 L 453.4,389.8 L 453.5,389.8 L 453.5,389.8 L 453.6,389.8 L 453.6,389.8 L 453.6,389.8 L 453.7,389.8 L 453.7,389.9 L 453.8,389.9 L 453.8,389.9 L 453.8,389.9 L 453.9,390.0 L 453.9,390.0 L 453.9,390.1 L 453.9,390.1 L 454.0,390.1 L 454.0,390.2 L 454.0,390.2 L 454.0,390.3 L 454.0,390.3 L 453.4,390.3 Z" style="fill:#000000;fill-rule:evenodd;fill-opacity:1;stroke:#000000;stroke-width:0.0px;stroke-linecap:butt;stroke-linejoin:miter;stroke-opacity:1;"/>
<path class="bond-0 atom-0 atom-1" d="M 585.0,367.5 L 624.7,344.5" style="fill:none;fill-rule:evenodd;stroke:#000000;stroke-width:2.0px;stroke-linecap:butt;stroke-linejoin:miter;stroke-opacity:1"/>
<path class="bond-0 atom-0 atom-1" d="M 594.8,384.4 L 634.5,361.5" style="fill:none;fill-rule:evenodd;stroke:#000000;stroke-width:2.0px;stroke-linecap:butt;stroke-linejoin:miter;stroke-opacity:1"/>
<path class="bond-1 atom-1 atom-2" d="M 661.6,353.0 L 718.9,386.1" style="fill:none;fill-rule:evenodd;stroke:#000000;stroke-width:2.0px;stroke-linecap:butt;stroke-linejoin:miter;stroke-opacity:1"/>
<path class="atom-0" d="M 511.4 378.9 L 515.1 378.9 L 515.1 390.7 L 529.3 390.7 L 529.3 378.9 L 533.1 378.9 L 533.1 406.6 L 529.3 406.6 L 529.3 393.8 L 515.1 393.8 L 515.1 406.6 L 511.4 406.6 L 511.4 378.9 " fill="#000000"/>
<path class="atom-0" d="M 536.4 405.6 Q 537.1 403.9, 538.7 402.9 Q 540.3 401.9, 542.5 401.9 Q 545.3 401.9, 546.9 403.4 Q 548.4 404.9, 548.4 407.6 Q 548.4 410.3, 546.4 412.9 Q 544.4 415.4, 540.3 418.4 L 548.7 418.4 L 548.7 420.5 L 536.4 420.5 L 536.4 418.7 Q 539.8 416.3, 541.8 414.5 Q 543.9 412.7, 544.8 411.0 Q 545.8 409.4, 545.8 407.7 Q 545.8 406.0, 544.9 405.0 Q 544.1 404.0, 542.5 404.0 Q 541.1 404.0, 540.1 404.6 Q 539.1 405.2, 538.4 406.5 L 536.4 405.6 " fill="#000000"/>
<path class="atom-0" d="M 554.7 378.9 L 563.7 393.6 Q 564.6 395.0, 566.1 397.6 Q 567.5 400.2, 567.6 400.4 L 567.6 378.9 L 571.3 378.9 L 571.3 406.6 L 567.5 406.6 L 557.8 390.5 Q 556.6 388.7, 555.4 386.5 Q 554.2 384.3, 553.9 383.7 L 553.9 406.6 L 550.3 406.6 L 550.3 378.9 L 554.7 378.9 " fill="#000000"/>
<path class="atom-0" d="M 574.6 383.9 L 579.4 383.9 L 579.4 378.7 L 581.6 378.7 L 581.6 383.9 L 586.6 383.9 L 586.6 385.7 L 581.6 385.7 L 581.6 390.9 L 579.4 390.9 L 579.4 385.7 L 574.6 385.7 L 574.6 383.9 " fill="#000000"/>
<path class="atom-1" d="M 632.9 343.8 Q 632.9 337.2, 636.2 333.5 Q 639.4 329.7, 645.6 329.7 Q 651.7 329.7, 655.0 333.5 Q 658.3 337.2, 658.3 343.8 Q 658.3 350.6, 655.0 354.4 Q 651.7 358.2, 645.6 358.2 Q 639.5 358.2, 636.2 354.4 Q 632.9 350.6, 632.9 343.8 M 645.6 355.1 Q 649.8 355.1, 652.1 352.3 Q 654.4 349.4, 654.4 343.8 Q 654.4 338.4, 652.1 335.7 Q 649.8 332.9, 645.6 332.9 Q 641.4 332.9, 639.0 335.6 Q 636.8 338.4, 636.8 343.8 Q 636.8 349.4, 639.0 352.3 Q 641.4 355.1, 645.6 355.1 " fill="#000000"/>
<path class="atom-1" d="M 660.3 334.7 L 665.2 334.7 L 665.2 329.5 L 667.3 329.5 L 667.3 334.7 L 672.4 334.7 L 672.4 336.5 L 667.3 336.5 L 667.3 341.7 L 665.2 341.7 L 665.2 336.5 L 660.3 336.5 L 660.3 334.7 " fill="#000000"/>
<path class="atom-2" d="M 722.1 378.9 L 738.6 378.9 L 738.6 382.0 L 725.9 382.0 L 725.9 390.5 L 737.2 390.5 L 737.2 393.7 L 725.9 393.7 L 725.9 406.6 L 722.1 406.6 L 722.1 378.9 " fill="#000000"/>
<path class="bond-0 atom-0 atom-1" d="M 26.3,670.2 L 105.1,624.7" style="fill:none;fill-rule:evenodd;stroke:#000000;stroke-width:2.0px;stroke-linecap:butt;stroke-linejoin:miter;stroke-opacity:1"/>
<path class="bond-1 atom-1 atom-2" d="M 133.7,624.7 L 196.0,660.7" style="fill:none;fill-rule:evenodd;stroke:#000000;stroke-width:2.0px;stroke-linecap:butt;stroke-linejoin:miter;stroke-opacity:1"/>
<path class="atom-1" d="M 113.1 602.3 L 122.4 617.3 Q 123.3 618.8, 124.8 621.5 Q 126.3 624.2, 126.4 624.3 L 126.4 602.3 L 130.1 602.3 L 130.1 630.6 L 126.3 630.6 L 116.3 614.2 Q 115.1 612.3, 113.9 610.1 Q 112.7 607.9, 112.3 607.2 L 112.3 630.6 L 108.7 630.6 L 108.7 602.3 L 113.1 602.3 " fill="#000000"/>
<path class="atom-1" d="M 108.3 571.2 L 112.2 571.2 L 112.2 583.2 L 126.6 583.2 L 126.6 571.2 L 130.5 571.2 L 130.5 599.5 L 126.6 599.5 L 126.6 586.4 L 112.2 586.4 L 112.2 599.5 L 108.3 599.5 L 108.3 571.2 " fill="#000000"/>
<path class="atom-1" d="M 133.9 576.3 L 138.9 576.3 L 138.9 571.0 L 141.1 571.0 L 141.1 576.3 L 146.2 576.3 L 146.2 578.2 L 141.1 578.2 L 141.1 583.4 L 138.9 583.4 L 138.9 578.2 L 133.9 578.2 L 133.9 576.3 " fill="#000000"/>
<path class="atom-2" d="M 199.5 670.3 Q 199.5 663.5, 202.9 659.7 Q 206.2 655.9, 212.5 655.9 Q 218.8 655.9, 222.2 659.7 Q 225.5 663.5, 225.5 670.3 Q 225.5 677.2, 222.1 681.1 Q 218.7 685.0, 212.5 685.0 Q 206.3 685.0, 202.9 681.1 Q 199.5 677.2, 199.5 670.3 M 212.5 681.8 Q 216.8 681.8, 219.2 678.9 Q 221.5 676.0, 221.5 670.3 Q 221.5 664.7, 219.2 661.9 Q 216.8 659.1, 212.5 659.1 Q 208.2 659.1, 205.8 661.9 Q 203.5 664.7, 203.5 670.3 Q 203.5 676.0, 205.8 678.9 Q 208.2 681.8, 212.5 681.8 " fill="#000000"/>
<path class="atom-2" d="M 227.5 660.5 L 237.2 660.5 L 237.2 662.6 L 227.5 662.6 L 227.5 660.5 " fill="#000000"/>
<path class="atom-0" d="M 16.3,661.1 L 16.3,661.2 L 16.3,661.4 L 16.2,661.6 L 16.2,661.7 L 16.1,661.9 L 16.0,662.1 L 15.9,662.2 L 15.8,662.3 L 15.7,662.5 L 15.6,662.6 L 15.5,662.7 L 15.3,662.8 L 15.2,662.9 L 15.0,662.9 L 14.9,663.0 L 14.7,663.0 L 14.5,663.1 L 14.3,663.1 L 14.2,663.1 L 14.0,663.0 L 13.8,663.0 L 13.7,663.0 L 13.5,662.9 L 13.3,662.8 L 13.2,662.7 L 13.1,662.6 L 12.9,662.5 L 12.8,662.4 L 12.7,662.3 L 12.6,662.1 L 12.5,662.0 L 12.4,661.8 L 12.4,661.7 L 12.3,661.5 L 12.3,661.3 L 12.3,661.2 L 12.3,661.0 L 12.3,660.8 L 12.3,660.6 L 12.4,660.5 L 12.4,660.3 L 12.5,660.2 L 12.6,660.0 L 12.7,659.9 L 12.8,659.7 L 12.9,659.6 L 13.1,659.5 L 13.2,659.4 L 13.3,659.3 L 13.5,659.2 L 13.7,659.2 L 13.8,659.1 L 14.0,659.1 L 14.2,659.1 L 14.3,659.1 L 14.5,659.1 L 14.7,659.1 L 14.9,659.1 L 15.0,659.2 L 15.2,659.3 L 15.3,659.3 L 15.5,659.4 L 15.6,659.6 L 15.7,659.7 L 15.8,659.8 L 15.9,659.9 L 16.0,660.1 L 16.1,660.2 L 16.2,660.4 L 16.2,660.6 L 16.3,660.7 L 16.3,660.9 L 16.3,661.1 L 14.3,661.1 Z" style="fill:#000000;fill-rule:evenodd;fill-opacity:1;stroke:#000000;stroke-width:0.0px;stroke-linecap:butt;stroke-linejoin:miter;stroke-opacity:1;"/>
<path class="atom-0" d="M 16.3,679.4 L 16.3,679.6 L 16.3,679.7 L 16.2,679.9 L 16.2,680.1 L 16.1,680.2 L 16.0,680.4 L 15.9,680.5 L 15.8,680.7 L 15.7,680.8 L 15.6,680.9 L 15.5,681.0 L 15.3,681.1 L 15.2,681.2 L 15.0,681.3 L 14.9,681.3 L 14.7,681.4 L 14.5,681.4 L 14.3,681.4 L 14.2,681.4 L 14.0,681.4 L 13.8,681.3 L 13.7,681.3 L 13.5,681.2 L 13.3,681.1 L 13.2,681.1 L 13.1,681.0 L 12.9,680.8 L 12.8,680.7 L 12.7,680.6 L 12.6,680.5 L 12.5,680.3 L 12.4,680.1 L 12.4,680.0 L 12.3,679.8 L 12.3,679.6 L 12.3,679.5 L 12.3,679.3 L 12.3,679.1 L 12.3,679.0 L 12.4,678.8 L 12.4,678.6 L 12.5,678.5 L 12.6,678.3 L 12.7,678.2 L 12.8,678.1 L 12.9,677.9 L 13.1,677.8 L 13.2,677.7 L 13.3,677.6 L 13.5,677.6 L 13.7,677.5 L 13.8,677.4 L 14.0,677.4 L 14.2,677.4 L 14.3,677.4 L 14.5,677.4 L 14.7,677.4 L 14.9,677.5 L 15.0,677.5 L 15.2,677.6 L 15.3,677.7 L 15.5,677.8 L 15.6,677.9 L 15.7,678.0 L 15.8,678.1 L 15.9,678.3 L 16.0,678.4 L 16.1,678.6 L 16.2,678.7 L 16.2,678.9 L 16.3,679.0 L 16.3,679.2 L 16.3,679.4 L 14.3,679.4 Z" style="fill:#000000;fill-rule:evenodd;fill-opacity:1;stroke:#000000;stroke-width:0.0px;stroke-linecap:butt;stroke-linejoin:miter;stroke-opacity:1;"/>
<path class="atom-0" d="M 16.3,670.2 L 16.3,670.4 L 16.3,670.6 L 16.2,670.7 L 16.2,670.9 L 16.1,671.1 L 16.0,671.2 L 15.9,671.4 L 15.8,671.5 L 15.7,671.6 L 15.6,671.7 L 15.5,671.9 L 15.3,671.9 L 15.2,672.0 L 15.0,672.1 L 14.9,672.2 L 14.7,672.2 L 14.5,672.2 L 14.3,672.2 L 14.2,672.2 L 14.0,672.2 L 13.8,672.2 L 13.7,672.1 L 13.5,672.1 L 13.3,672.0 L 13.2,671.9 L 13.1,671.8 L 12.9,671.7 L 12.8,671.6 L 12.7,671.4 L 12.6,671.3 L 12.5,671.1 L 12.4,671.0 L 12.4,670.8 L 12.3,670.7 L 12.3,670.5 L 12.3,670.3 L 12.3,670.1 L 12.3,670.0 L 12.3,669.8 L 12.4,669.6 L 12.4,669.5 L 12.5,669.3 L 12.6,669.2 L 12.7,669.0 L 12.8,668.9 L 12.9,668.8 L 13.1,668.7 L 13.2,668.6 L 13.3,668.5 L 13.5,668.4 L 13.7,668.3 L 13.8,668.3 L 14.0,668.3 L 14.2,668.2 L 14.3,668.2 L 14.5,668.2 L 14.7,668.3 L 14.9,668.3 L 15.0,668.4 L 15.2,668.4 L 15.3,668.5 L 15.5,668.6 L 15.6,668.7 L 15.7,668.8 L 15.8,669.0 L 15.9,669.1 L 16.0,669.2 L 16.1,669.4 L 16.2,669.6 L 16.2,669.7 L 16.3,669.9 L 16.3,670.1 L 16.3,670.2 L 14.3,670.2 Z" style="fill:#000000;fill-rule:evenodd;fill-opacity:1;stroke:#000000;stroke-width:0.0px;stroke-linecap:butt;stroke-linejoin:miter;stroke-opacity:1;"/>
<path class="atom-1" d="M 121.4,568.0 L 121.4,568.2 L 121.4,568.4 L 121.3,568.5 L 121.3,568.7 L 121.2,568.8 L 121.1,569.0 L 121.1,569.1 L 120.9,569.3 L 120.8,569.4 L 120.7,569.5 L 120.6,569.6 L 120.4,569.7 L 120.3,569.8 L 120.1,569.9 L 120.0,569.9 L 119.8,570.0 L 119.6,570.0 L 119.4,570.0 L 119.3,570.0 L 119.1,570.0 L 118.9,570.0 L 118.8,569.9 L 118.6,569.8 L 118.5,569.8 L 118.3,569.7 L 118.2,569.6 L 118.0,569.5 L 117.9,569.3 L 117.8,569.2 L 117.7,569.1 L 117.6,568.9 L 117.6,568.8 L 117.5,568.6 L 117.5,568.4 L 117.4,568.3 L 117.4,568.1 L 117.4,567.9 L 117.4,567.8 L 117.5,567.6 L 117.5,567.4 L 117.6,567.3 L 117.6,567.1 L 117.7,567.0 L 117.8,566.8 L 117.9,566.7 L 118.0,566.6 L 118.2,566.4 L 118.3,566.3 L 118.5,566.3 L 118.6,566.2 L 118.8,566.1 L 118.9,566.1 L 119.1,566.0 L 119.3,566.0 L 119.4,566.0 L 119.6,566.0 L 119.8,566.0 L 120.0,566.1 L 120.1,566.1 L 120.3,566.2 L 120.4,566.3 L 120.6,566.4 L 120.7,566.5 L 120.8,566.6 L 120.9,566.7 L 121.1,566.9 L 121.1,567.0 L 121.2,567.2 L 121.3,567.3 L 121.3,567.5 L 121.4,567.7 L 121.4,567.8 L 121.4,568.0 L 119.4,568.0 Z" style="fill:#000000;fill-rule:evenodd;fill-opacity:1;stroke:#000000;stroke-width:0.0px;stroke-linecap:butt;stroke-linejoin:miter;stroke-opacity:1;"/>
<path class="atom-0" d="M 358.5 610.8 L 367.8 625.8 Q 368.7 627.3, 370.2 630.0 Q 371.6 632.7, 371.7 632.8 L 371.7 610.8 L 375.5 610.8 L 375.5 639.2 L 371.6 639.2 L 361.6 622.8 Q 360.5 620.8, 359.2 618.6 Q 358.0 616.4, 357.7 615.8 L 357.7 639.2 L 354.0 639.2 L 354.0 610.8 L 358.5 610.8 " fill="#000000"/>
<path class="atom-0" d="M 378.8 615.5 L 388.5 615.5 L 388.5 617.6 L 378.8 617.6 L 378.8 615.5 " fill="#000000"/>
<path class="atom-0" d="M 396.5,629.0 L 396.5,629.2 L 396.5,629.3 L 396.4,629.5 L 396.4,629.7 L 396.3,629.8 L 396.2,630.0 L 396.1,630.1 L 396.0,630.3 L 395.9,630.4 L 395.8,630.5 L 395.7,630.6 L 395.5,630.7 L 395.4,630.8 L 395.2,630.9 L 395.0,630.9 L 394.9,631.0 L 394.7,631.0 L 394.5,631.0 L 394.4,631.0 L 394.2,631.0 L 394.0,630.9 L 393.9,630.9 L 393.7,630.8 L 393.5,630.8 L 393.4,630.7 L 393.3,630.6 L 393.1,630.5 L 393.0,630.3 L 392.9,630.2 L 392.8,630.1 L 392.7,629.9 L 392.6,629.8 L 392.6,629.6 L 392.5,629.4 L 392.5,629.3 L 392.5,629.1 L 392.5,628.9 L 392.5,628.7 L 392.5,628.6 L 392.6,628.4 L 392.6,628.2 L 392.7,628.1 L 392.8,627.9 L 392.9,627.8 L 393.0,627.7 L 393.1,627.5 L 393.3,627.4 L 393.4,627.3 L 393.5,627.2 L 393.7,627.2 L 393.9,627.1 L 394.0,627.1 L 394.2,627.0 L 394.4,627.0 L 394.5,627.0 L 394.7,627.0 L 394.9,627.0 L 395.0,627.1 L 395.2,627.1 L 395.4,627.2 L 395.5,627.3 L 395.7,627.4 L 395.8,627.5 L 395.9,627.6 L 396.0,627.7 L 396.1,627.9 L 396.2,628.0 L 396.3,628.2 L 396.4,628.3 L 396.4,628.5 L 396.5,628.7 L 396.5,628.8 L 396.5,629.0 L 394.5,629.0 Z" style="fill:#000000;fill-rule:evenodd;fill-opacity:1;stroke:#000000;stroke-width:0.0px;stroke-linecap:butt;stroke-linejoin:miter;stroke-opacity:1;"/>
<path class="atom-0" d="M 396.5,621.0 L 396.5,621.2 L 396.5,621.3 L 396.4,621.5 L 396.4,621.7 L 396.3,621.8 L 396.2,622.0 L 396.1,622.1 L 396.0,622.3 L 395.9,622.4 L 395.8,622.5 L 395.7,622.6 L 395.5,622.7 L 395.4,622.8 L 395.2,622.9 L 395.0,622.9 L 394.9,623.0 L 394.7,623.0 L 394.5,623.0 L 394.4,623.0 L 394.2,623.0 L 394.0,622.9 L 393.9,622.9 L 393.7,622.8 L 393.5,622.8 L 393.4,622.7 L 393.3,622.6 L 393.1,622.5 L 393.0,622.3 L 392.9,622.2 L 392.8,622.1 L 392.7,621.9 L 392.6,621.8 L 392.6,621.6 L 392.5,621.4 L 392.5,621.3 L 392.5,621.1 L 392.5,620.9 L 392.5,620.7 L 392.5,620.6 L 392.6,620.4 L 392.6,620.2 L 392.7,620.1 L 392.8,619.9 L 392.9,619.8 L 393.0,619.7 L 393.1,619.5 L 393.3,619.4 L 393.4,619.3 L 393.5,619.2 L 393.7,619.2 L 393.9,619.1 L 394.0,619.1 L 394.2,619.0 L 394.4,619.0 L 394.5,619.0 L 394.7,619.0 L 394.9,619.0 L 395.0,619.1 L 395.2,619.1 L 395.4,619.2 L 395.5,619.3 L 395.7,619.4 L 395.8,619.5 L 395.9,619.6 L 396.0,619.7 L 396.1,619.9 L 396.2,620.0 L 396.3,620.2 L 396.4,620.3 L 396.4,620.5 L 396.5,620.7 L 396.5,620.8 L 396.5,621.0 L 394.5,621.0 Z" style="fill:#000000;fill-rule:evenodd;fill-opacity:1;stroke:#000000;stroke-width:0.0px;stroke-linecap:butt;stroke-linejoin:miter;stroke-opacity:1;"/>
<path class="bond-0 atom-0 atom-1" d="M 726.6,614.2 L 700.1,629.5" style="fill:none;fill-rule:evenodd;stroke:#000000;stroke-width:2.0px;stroke-linecap:butt;stroke-linejoin:miter;stroke-opacity:1"/>
<path class="bond-1 atom-1 atom-2" d="M 672.1,634.4 L 637.4,614.5" style="fill:none;fill-rule:evenodd;stroke:#000000;stroke-width:2.0px;stroke-linecap:butt;stroke-linejoin:miter;stroke-opacity:1"/>
<path class="bond-1 atom-1 atom-2" d="M 672.9,621.1 L 648.6,607.1" style="fill:none;fill-rule:evenodd;stroke:#000000;stroke-width:2.0px;stroke-linecap:butt;stroke-linejoin:miter;stroke-opacity:1"/>
<path class="bond-2 atom-2 atom-3" d="M 622.6,614.5 L 596.0,629.8" style="fill:none;fill-rule:evenodd;stroke:#000000;stroke-width:2.0px;stroke-linecap:butt;stroke-linejoin:miter;stroke-opacity:1"/>
<path class="bond-2 atom-2 atom-3" d="M 624.6,627.1 L 606.0,637.9" style="fill:none;fill-rule:evenodd;stroke:#000000;stroke-width:2.0px;stroke-linecap:butt;stroke-linejoin:miter;stroke-opacity:1"/>
<path class="bond-3 atom-3 atom-4" d="M 569.9,635.2 L 529.6,612.0" style="fill:none;fill-rule:evenodd;stroke:#000000;stroke-width:2.0px;stroke-linecap:butt;stroke-linejoin:miter;stroke-opacity:1"/>
<path class="atom-0" d="M 728.6 601.7 L 738.6 601.7 L 738.6 603.6 L 730.8 603.6 L 730.8 608.8 L 737.8 608.8 L 737.8 610.8 L 730.8 610.8 L 730.8 618.6 L 728.6 618.6 L 728.6 601.7 " fill="#000000"/>
<path class="atom-1" d="M 674.0 640.1 Q 674.0 636.1, 676.1 633.8 Q 678.1 631.5, 681.8 631.5 Q 685.6 631.5, 687.6 633.8 Q 689.6 636.1, 689.6 640.1 Q 689.6 644.2, 687.6 646.6 Q 685.5 648.9, 681.8 648.9 Q 678.1 648.9, 676.1 646.6 Q 674.0 644.3, 674.0 640.1 M 681.8 647.0 Q 684.4 647.0, 685.8 645.3 Q 687.2 643.5, 687.2 640.1 Q 687.2 636.8, 685.8 635.1 Q 684.4 633.4, 681.8 633.4 Q 679.2 633.4, 677.8 635.1 Q 676.4 636.8, 676.4 640.1 Q 676.4 643.5, 677.8 645.3 Q 679.2 647.0, 681.8 647.0 " fill="#000000"/>
<path class="atom-1" d="M 690.8 634.5 L 693.8 634.5 L 693.8 631.4 L 695.1 631.4 L 695.1 634.5 L 698.2 634.5 L 698.2 635.7 L 695.1 635.7 L 695.1 638.8 L 693.8 638.8 L 693.8 635.7 L 690.8 635.7 L 690.8 634.5 " fill="#000000"/>
<path class="atom-2" d="M 625.3 616.0 Q 625.4 616.1, 626.2 616.4 Q 627.0 616.7, 627.9 616.9 Q 628.8 617.1, 629.6 617.1 Q 631.2 617.1, 632.2 616.4 Q 633.1 615.6, 633.1 614.2 Q 633.1 613.3, 632.6 612.7 Q 632.2 612.1, 631.5 611.8 Q 630.7 611.5, 629.5 611.2 Q 628.0 610.7, 627.1 610.3 Q 626.2 609.8, 625.6 608.9 Q 625.0 608.0, 625.0 606.5 Q 625.0 604.4, 626.4 603.1 Q 627.9 601.7, 630.7 601.7 Q 632.7 601.7, 634.9 602.7 L 634.4 604.5 Q 632.3 603.7, 630.8 603.7 Q 629.2 603.7, 628.2 604.4 Q 627.3 605.0, 627.4 606.2 Q 627.4 607.1, 627.8 607.7 Q 628.3 608.2, 629.0 608.5 Q 629.7 608.8, 630.8 609.2 Q 632.3 609.7, 633.2 610.2 Q 634.2 610.6, 634.8 611.6 Q 635.5 612.6, 635.5 614.2 Q 635.5 616.6, 633.9 617.8 Q 632.3 619.1, 629.7 619.1 Q 628.2 619.1, 627.1 618.7 Q 626.0 618.4, 624.6 617.9 L 625.3 616.0 " fill="#000000"/>
<path class="atom-3" d="M 574.5 631.6 L 580.1 640.6 Q 580.6 641.5, 581.5 643.1 Q 582.4 644.7, 582.4 644.8 L 582.4 631.6 L 584.7 631.6 L 584.7 648.5 L 582.4 648.5 L 576.4 638.7 Q 575.7 637.6, 575.0 636.3 Q 574.3 635.0, 574.0 634.5 L 574.0 648.5 L 571.8 648.5 L 571.8 631.6 L 574.5 631.6 " fill="#000000"/>
<path class="atom-3" d="M 586.7 634.7 L 589.6 634.7 L 589.6 631.5 L 591.0 631.5 L 591.0 634.7 L 594.0 634.7 L 594.0 635.8 L 591.0 635.8 L 591.0 639.0 L 589.6 639.0 L 589.6 635.8 L 586.7 635.8 L 586.7 634.7 " fill="#000000"/>
<path class="atom-4" d="M 511.4 610.8 Q 511.4 606.6, 513.3 604.4 Q 515.3 602.1, 519.1 602.1 Q 522.6 602.1, 524.4 604.6 L 522.8 605.9 Q 521.5 604.1, 519.1 604.1 Q 516.5 604.1, 515.1 605.8 Q 513.8 607.5, 513.8 610.8 Q 513.8 614.1, 515.2 615.8 Q 516.6 617.6, 519.3 617.6 Q 521.2 617.6, 523.4 616.4 L 524.0 618.2 Q 523.2 618.8, 521.8 619.1 Q 520.5 619.5, 519.0 619.5 Q 515.3 619.5, 513.3 617.2 Q 511.4 615.0, 511.4 610.8 " fill="#000000"/>
<path class="atom-4" d="M 525.4 601.1 L 527.6 601.1 L 527.6 619.3 L 525.4 619.3 L 525.4 601.1 " fill="#000000"/>
<path class="atom-3" d="M 598.8,640.1 L 598.8,640.2 L 598.8,640.3 L 598.8,640.4 L 598.8,640.5 L 598.7,640.6 L 598.7,640.7 L 598.6,640.8 L 598.5,640.8 L 598.5,640.9 L 598.4,641.0 L 598.3,641.0 L 598.2,641.1 L 598.1,641.1 L 598.1,641.2 L 598.0,641.2 L 597.9,641.2 L 597.8,641.3 L 597.7,641.3 L 597.5,641.3 L 597.4,641.3 L 597.3,641.2 L 597.2,641.2 L 597.1,641.2 L 597.1,641.1 L 597.0,641.1 L 596.9,641.0 L 596.8,640.9 L 596.7,640.9 L 596.7,640.8 L 596.6,640.7 L 596.6,640.6 L 596.5,640.5 L 596.5,640.4 L 596.5,640.3 L 596.4,640.2 L 596.4,640.1 L 596.4,640.0 L 596.4,639.9 L 596.5,639.8 L 596.5,639.7 L 596.5,639.6 L 596.6,639.5 L 596.6,639.4 L 596.7,639.4 L 596.7,639.3 L 596.8,639.2 L 596.9,639.1 L 597.0,639.1 L 597.1,639.0 L 597.1,639.0 L 597.2,638.9 L 597.3,638.9 L 597.4,638.9 L 597.5,638.9 L 597.7,638.9 L 597.8,638.9 L 597.9,638.9 L 598.0,638.9 L 598.1,639.0 L 598.1,639.0 L 598.2,639.0 L 598.3,639.1 L 598.4,639.2 L 598.5,639.2 L 598.5,639.3 L 598.6,639.4 L 598.7,639.5 L 598.7,639.6 L 598.8,639.7 L 598.8,639.8 L 598.8,639.9 L 598.8,640.0 L 598.8,640.1 L 597.6,640.1 Z" style="fill:#000000;fill-rule:evenodd;fill-opacity:1;stroke:#000000;stroke-width:0.0px;stroke-linecap:butt;stroke-linejoin:miter;stroke-opacity:1;"/>
</svg>