<svg xmlns="http://www.w3.org/2000/svg" xmlns:rdkit="http://www.rdkit.org/xml" xmlns:xlink="http://www.w3.org/1999/xlink" version="1.1" baseProfile="full" xml:space="preserve" width="750px" height="750px" viewBox="0 0 750 750">
<!-- END OF HEADER -->
<rect style="opacity:1.0;fill:#FFFFFF;stroke:none" width="750.0" height="750.0" x="0.0" y="0.0"> </rect>
<path class="bond-0 atom-0 atom-1" d="M 21.8,116.9 L 50.9,103.0" style="fill:none;fill-rule:evenodd;stroke:#000000;stroke-width:2.0px;stroke-linecap:butt;stroke-linejoin:miter;stroke-opacity:1"/>
<path class="bond-1 atom-1 atom-2" d="M 50.9,103.0 L 79.2,122.3" style="fill:none;fill-rule:evenodd;stroke:#000000;stroke-width:2.0px;stroke-linecap:butt;stroke-linejoin:miter;stroke-opacity:1"/>
<path class="bond-2 atom-2 atom-3" d="M 79.2,122.3 L 110.1,107.5" style="fill:none;fill-rule:evenodd;stroke:#000000;stroke-width:2.0px;stroke-linecap:butt;stroke-linejoin:miter;stroke-opacity:1"/>
<path class="bond-3 atom-3 atom-4" d="M 110.1,107.5 L 138.4,126.9" style="fill:none;fill-rule:evenodd;stroke:#000000;stroke-width:2.0px;stroke-linecap:butt;stroke-linejoin:miter;stroke-opacity:1"/>
<path class="bond-4 atom-4 atom-5" d="M 138.4,126.9 L 139.4,161.1" style="fill:none;fill-rule:evenodd;stroke:#000000;stroke-width:2.0px;stroke-linecap:butt;stroke-linejoin:miter;stroke-opacity:1"/>
<path class="bond-5 atom-5 atom-6" d="M 139.4,161.1 L 172.2,170.8" style="fill:none;fill-rule:evenodd;stroke:#000000;stroke-width:2.0px;stroke-linecap:butt;stroke-linejoin:miter;stroke-opacity:1"/>
<path class="bond-6 atom-6 atom-7" d="M 172.2,170.8 L 191.6,142.5" style="fill:none;fill-rule:evenodd;stroke:#000000;stroke-width:2.0px;stroke-linecap:butt;stroke-linejoin:miter;stroke-opacity:1"/>
<path class="bond-7 atom-7 atom-8" d="M 191.6,142.5 L 225.6,138.0" style="fill:none;fill-rule:evenodd;stroke:#000000;stroke-width:2.0px;stroke-linecap:butt;stroke-linejoin:miter;stroke-opacity:1"/>
<path class="bond-8 atom-8 atom-9" d="M 225.6,138.0 L 238.6,106.3" style="fill:none;fill-rule:evenodd;stroke:#000000;stroke-width:2.0px;stroke-linecap:butt;stroke-linejoin:miter;stroke-opacity:1"/>
<path class="bond-9 atom-9 atom-10" d="M 238.6,106.3 L 217.7,79.2" style="fill:none;fill-rule:evenodd;stroke:#000000;stroke-width:2.0px;stroke-linecap:butt;stroke-linejoin:miter;stroke-opacity:1"/>
<path class="bond-10 atom-10 atom-11" d="M 217.7,79.2 L 183.8,83.7" style="fill:none;fill-rule:evenodd;stroke:#000000;stroke-width:2.0px;stroke-linecap:butt;stroke-linejoin:miter;stroke-opacity:1"/>
<path class="bond-11 atom-11 atom-12" d="M 183.8,83.7 L 170.7,115.4" style="fill:none;fill-rule:evenodd;stroke:#000000;stroke-width:2.0px;stroke-linecap:butt;stroke-linejoin:miter;stroke-opacity:1"/>
<path class="bond-12 atom-12 atom-13" d="M 170.7,115.4 L 151.9,95.6" style="fill:none;fill-rule:evenodd;stroke:#000000;stroke-width:2.0px;stroke-linecap:butt;stroke-linejoin:miter;stroke-opacity:1"/>
<path class="bond-13 atom-12 atom-4" d="M 170.7,115.4 L 138.4,126.9" style="fill:none;fill-rule:evenodd;stroke:#000000;stroke-width:2.0px;stroke-linecap:butt;stroke-linejoin:miter;stroke-opacity:1"/>
<path class="bond-14 atom-12 atom-7" d="M 170.7,115.4 L 191.6,142.5" style="fill:none;fill-rule:evenodd;stroke:#000000;stroke-width:2.0px;stroke-linecap:butt;stroke-linejoin:miter;stroke-opacity:1"/>
<path class="atom-0" d="M 11.4 118.1 Q 11.4 115.7, 12.5 114.4 Q 13.6 113.1, 15.8 113.1 Q 17.8 113.1, 18.8 114.6 L 17.9 115.3 Q 17.2 114.3, 15.8 114.3 Q 14.3 114.3, 13.5 115.3 Q 12.8 116.2, 12.8 118.1 Q 12.8 120.0, 13.6 121.0 Q 14.4 122.0, 15.9 122.0 Q 17.0 122.0, 18.2 121.3 L 18.6 122.4 Q 18.1 122.7, 17.4 122.9 Q 16.6 123.1, 15.7 123.1 Q 13.6 123.1, 12.5 121.8 Q 11.4 120.5, 11.4 118.1 " fill="#000000"/>
<path class="atom-0" d="M 19.4 112.6 L 20.7 112.6 L 20.7 123.0 L 19.4 123.0 L 19.4 112.6 " fill="#000000"/>
<path class="atom-13" d="M 134.6 85.7 L 135.9 85.7 L 135.9 89.8 L 140.9 89.8 L 140.9 85.7 L 142.2 85.7 L 142.2 95.4 L 140.9 95.4 L 140.9 90.9 L 135.9 90.9 L 135.9 95.4 L 134.6 95.4 L 134.6 85.7 " fill="#000000"/>
<path class="atom-13" d="M 144.9 85.7 L 148.1 90.9 Q 148.4 91.4, 148.9 92.3 Q 149.4 93.2, 149.5 93.3 L 149.5 85.7 L 150.7 85.7 L 150.7 95.4 L 149.4 95.4 L 146.0 89.8 Q 145.6 89.1, 145.2 88.4 Q 144.8 87.6, 144.6 87.4 L 144.6 95.4 L 143.4 95.4 L 143.4 85.7 L 144.9 85.7 " fill="#000000"/>
<path class="atom-13" d="M 151.9 87.3 L 155.2 87.3 L 155.2 88.0 L 151.9 88.0 L 151.9 87.3 " fill="#000000"/>
<path class="bond-0 atom-0 atom-1" d="M 458.1,176.7 L 443.4,151.3" style="fill:none;fill-rule:evenodd;stroke:#000000;stroke-width:2.0px;stroke-linecap:butt;stroke-linejoin:miter;stroke-opacity:1"/>
<path class="bond-1 atom-1 atom-2" d="M 431.6,142.8 L 397.4,142.8" style="fill:none;fill-rule:evenodd;stroke:#000000;stroke-width:2.0px;stroke-linecap:butt;stroke-linejoin:miter;stroke-opacity:1"/>
<path class="bond-2 atom-2 atom-3" d="M 384.4,134.1 L 364.8,100.2" style="fill:none;fill-rule:evenodd;stroke:#000000;stroke-width:2.0px;stroke-linecap:butt;stroke-linejoin:miter;stroke-opacity:1"/>
<path class="bond-3 atom-3 atom-4" d="M 360.6,97.8 L 380.0,64.1" style="fill:none;fill-rule:evenodd;stroke:#000000;stroke-width:2.0px;stroke-linecap:butt;stroke-linejoin:miter;stroke-opacity:1"/>
<path class="bond-3 atom-3 atom-4" d="M 369.1,102.7 L 388.5,69.0" style="fill:none;fill-rule:evenodd;stroke:#000000;stroke-width:2.0px;stroke-linecap:butt;stroke-linejoin:miter;stroke-opacity:1"/>
<path class="bond-4 atom-3 atom-5" d="M 364.8,100.2 L 315.7,100.2" style="fill:none;fill-rule:evenodd;stroke:#000000;stroke-width:2.0px;stroke-linecap:butt;stroke-linejoin:miter;stroke-opacity:1"/>
<path class="bond-5 atom-5 atom-6" d="M 315.7,100.2 L 291.2,142.8" style="fill:none;fill-rule:evenodd;stroke:#000000;stroke-width:2.0px;stroke-linecap:butt;stroke-linejoin:miter;stroke-opacity:1"/>
<path class="bond-6 atom-6 atom-7" d="M 291.2,142.8 L 271.6,176.7" style="fill:none;fill-rule:evenodd;stroke:#000000;stroke-width:2.0px;stroke-linecap:butt;stroke-linejoin:miter;stroke-opacity:1"/>
<path class="bond-6 atom-6 atom-7" d="M 296.7,152.8 L 280.1,181.6" style="fill:none;fill-rule:evenodd;stroke:#000000;stroke-width:2.0px;stroke-linecap:butt;stroke-linejoin:miter;stroke-opacity:1"/>
<path class="bond-6 atom-6 atom-7" d="M 279.7,142.9 L 263.1,171.8" style="fill:none;fill-rule:evenodd;stroke:#000000;stroke-width:2.0px;stroke-linecap:butt;stroke-linejoin:miter;stroke-opacity:1"/>
<path class="atom-0" d="M 459.9 178.3 L 464.5 185.7 Q 464.9 186.4, 465.7 187.7 Q 466.4 189.0, 466.4 189.1 L 466.4 178.3 L 468.3 178.3 L 468.3 192.2 L 466.4 192.2 L 461.5 184.2 Q 460.9 183.2, 460.3 182.2 Q 459.7 181.1, 459.5 180.7 L 459.5 192.2 L 457.7 192.2 L 457.7 178.3 L 459.9 178.3 " fill="#000000"/>
<path class="atom-0" d="M 469.9 178.3 L 471.8 178.3 L 471.8 184.2 L 478.9 184.2 L 478.9 178.3 L 480.8 178.3 L 480.8 192.2 L 478.9 192.2 L 478.9 185.8 L 471.8 185.8 L 471.8 192.2 L 469.9 192.2 L 469.9 178.3 " fill="#000000"/>
<path class="atom-0" d="M 486.9 194.3 Q 487.8 194.6, 488.2 195.2 Q 488.6 195.8, 488.6 196.7 Q 488.6 197.4, 488.2 198.1 Q 487.9 198.6, 487.1 199.0 Q 486.4 199.3, 485.5 199.3 Q 484.5 199.3, 483.8 199.0 Q 483.1 198.6, 482.5 197.9 L 483.2 197.2 Q 483.8 197.8, 484.3 198.0 Q 484.7 198.3, 485.5 198.3 Q 486.3 198.3, 486.8 197.8 Q 487.3 197.4, 487.3 196.7 Q 487.3 195.7, 486.8 195.3 Q 486.3 194.9, 485.2 194.9 L 484.5 194.9 L 484.5 193.9 L 485.1 193.9 Q 486.1 193.9, 486.6 193.5 Q 487.1 193.1, 487.1 192.2 Q 487.1 191.6, 486.7 191.3 Q 486.3 190.9, 485.5 190.9 Q 484.7 190.9, 484.3 191.2 Q 483.8 191.5, 483.4 192.2 L 482.5 191.7 Q 482.9 190.9, 483.6 190.4 Q 484.4 189.9, 485.5 189.9 Q 486.9 189.9, 487.7 190.5 Q 488.4 191.2, 488.4 192.2 Q 488.4 193.0, 488.0 193.5 Q 487.6 194.0, 486.9 194.3 " fill="#000000"/>
<path class="atom-0" d="M 482.5 180.8 L 485.0 180.8 L 485.0 178.2 L 486.1 178.2 L 486.1 180.8 L 488.6 180.8 L 488.6 181.8 L 486.1 181.8 L 486.1 184.4 L 485.0 184.4 L 485.0 181.8 L 482.5 181.8 L 482.5 180.8 " fill="#000000"/>
<path class="atom-1" d="M 435.4 135.8 L 440.0 143.2 Q 440.4 143.9, 441.1 145.2 Q 441.9 146.5, 441.9 146.6 L 441.9 135.8 L 443.7 135.8 L 443.7 149.7 L 441.8 149.7 L 436.9 141.7 Q 436.4 140.7, 435.8 139.6 Q 435.2 138.6, 435.0 138.2 L 435.0 149.7 L 433.2 149.7 L 433.2 135.8 L 435.4 135.8 " fill="#000000"/>
<path class="atom-1" d="M 445.4 135.8 L 447.3 135.8 L 447.3 141.7 L 454.4 141.7 L 454.4 135.8 L 456.3 135.8 L 456.3 149.7 L 454.4 149.7 L 454.4 143.3 L 447.3 143.3 L 447.3 149.7 L 445.4 149.7 L 445.4 135.8 " fill="#000000"/>
<path class="atom-2" d="M 383.0 142.8 Q 383.0 139.5, 384.6 137.6 Q 386.3 135.7, 389.4 135.7 Q 392.5 135.7, 394.1 137.6 Q 395.8 139.5, 395.8 142.8 Q 395.8 146.2, 394.1 148.1 Q 392.4 150.0, 389.4 150.0 Q 386.3 150.0, 384.6 148.1 Q 383.0 146.2, 383.0 142.8 M 389.4 148.4 Q 391.5 148.4, 392.6 147.0 Q 393.8 145.6, 393.8 142.8 Q 393.8 140.1, 392.6 138.7 Q 391.5 137.3, 389.4 137.3 Q 387.3 137.3, 386.1 138.7 Q 385.0 140.0, 385.0 142.8 Q 385.0 145.6, 386.1 147.0 Q 387.3 148.4, 389.4 148.4 " fill="#000000"/>
<path class="atom-4" d="M 383.0 57.8 Q 383.0 54.4, 384.6 52.6 Q 386.3 50.7, 389.4 50.7 Q 392.5 50.7, 394.1 52.6 Q 395.8 54.4, 395.8 57.8 Q 395.8 61.1, 394.1 63.1 Q 392.4 65.0, 389.4 65.0 Q 386.3 65.0, 384.6 63.1 Q 383.0 61.2, 383.0 57.8 M 389.4 63.4 Q 391.5 63.4, 392.6 62.0 Q 393.8 60.6, 393.8 57.8 Q 393.8 55.0, 392.6 53.7 Q 391.5 52.3, 389.4 52.3 Q 387.3 52.3, 386.1 53.6 Q 385.0 55.0, 385.0 57.8 Q 385.0 60.6, 386.1 62.0 Q 387.3 63.4, 389.4 63.4 " fill="#000000"/>
<path class="atom-7" d="M 263.6 178.3 L 268.1 185.7 Q 268.6 186.4, 269.3 187.7 Q 270.0 189.0, 270.1 189.1 L 270.1 178.3 L 271.9 178.3 L 271.9 192.2 L 270.0 192.2 L 265.1 184.2 Q 264.5 183.2, 263.9 182.2 Q 263.3 181.1, 263.2 180.7 L 263.2 192.2 L 261.4 192.2 L 261.4 178.3 L 263.6 178.3 " fill="#000000"/>
<path class="bond-0 atom-0 atom-1" d="M 598.9,91.6 L 511.6,142.0" style="fill:none;fill-rule:evenodd;stroke:#000000;stroke-width:2.0px;stroke-linecap:butt;stroke-linejoin:miter;stroke-opacity:1"/>
<path class="bond-1 atom-0 atom-2" d="M 598.9,91.6 L 672.1,133.9" style="fill:none;fill-rule:evenodd;stroke:#000000;stroke-width:2.0px;stroke-linecap:butt;stroke-linejoin:miter;stroke-opacity:1"/>
<path class="atom-2" d="M 679.9 127.9 L 689.2 142.9 Q 690.1 144.4, 691.6 147.0 Q 693.1 149.7, 693.2 149.9 L 693.2 127.9 L 696.9 127.9 L 696.9 156.2 L 693.1 156.2 L 683.1 139.8 Q 681.9 137.9, 680.7 135.7 Q 679.5 133.5, 679.1 132.8 L 679.1 156.2 L 675.5 156.2 L 675.5 127.9 L 679.9 127.9 " fill="#000000"/>
<path class="atom-2" d="M 700.3 127.9 L 704.1 127.9 L 704.1 139.9 L 718.6 139.9 L 718.6 127.9 L 722.4 127.9 L 722.4 156.2 L 718.6 156.2 L 718.6 143.1 L 704.1 143.1 L 704.1 156.2 L 700.3 156.2 L 700.3 127.9 " fill="#000000"/>
<path class="atom-2" d="M 725.9 155.2 Q 726.6 153.4, 728.2 152.5 Q 729.8 151.5, 732.1 151.5 Q 734.9 151.5, 736.5 153.0 Q 738.1 154.5, 738.1 157.2 Q 738.1 160.0, 736.0 162.6 Q 734.0 165.2, 729.8 168.3 L 738.4 168.3 L 738.4 170.4 L 725.8 170.4 L 725.8 168.6 Q 729.3 166.1, 731.4 164.3 Q 733.5 162.4, 734.5 160.8 Q 735.5 159.1, 735.5 157.4 Q 735.5 155.6, 734.6 154.6 Q 733.7 153.6, 732.1 153.6 Q 730.6 153.6, 729.6 154.2 Q 728.6 154.8, 727.9 156.1 L 725.9 155.2 " fill="#000000"/>
<path class="atom-0" d="M 600.9,82.6 L 600.9,82.8 L 600.9,83.0 L 600.8,83.1 L 600.8,83.3 L 600.7,83.5 L 600.6,83.6 L 600.5,83.8 L 600.4,83.9 L 600.3,84.0 L 600.2,84.2 L 600.1,84.3 L 599.9,84.4 L 599.8,84.4 L 599.6,84.5 L 599.4,84.6 L 599.3,84.6 L 599.1,84.6 L 598.9,84.6 L 598.8,84.6 L 598.6,84.6 L 598.4,84.6 L 598.3,84.5 L 598.1,84.5 L 597.9,84.4 L 597.8,84.3 L 597.7,84.2 L 597.5,84.1 L 597.4,84.0 L 597.3,83.8 L 597.2,83.7 L 597.1,83.5 L 597.0,83.4 L 597.0,83.2 L 596.9,83.1 L 596.9,82.9 L 596.9,82.7 L 596.9,82.5 L 596.9,82.4 L 596.9,82.2 L 597.0,82.0 L 597.0,81.9 L 597.1,81.7 L 597.2,81.6 L 597.3,81.4 L 597.4,81.3 L 597.5,81.2 L 597.7,81.1 L 597.8,81.0 L 597.9,80.9 L 598.1,80.8 L 598.3,80.7 L 598.4,80.7 L 598.6,80.7 L 598.8,80.6 L 598.9,80.6 L 599.1,80.6 L 599.3,80.7 L 599.4,80.7 L 599.6,80.8 L 599.8,80.8 L 599.9,80.9 L 600.1,81.0 L 600.2,81.1 L 600.3,81.2 L 600.4,81.4 L 600.5,81.5 L 600.6,81.6 L 600.7,81.8 L 600.8,82.0 L 600.8,82.1 L 600.9,82.3 L 600.9,82.5 L 600.9,82.6 L 598.9,82.6 Z" style="fill:#000000;fill-rule:evenodd;fill-opacity:1;stroke:#000000;stroke-width:0.0px;stroke-linecap:butt;stroke-linejoin:miter;stroke-opacity:1;"/>
<path class="bond-0 atom-0 atom-1" d="M 20.8,365.0 L 46.1,379.8" style="fill:none;fill-rule:evenodd;stroke:#000000;stroke-width:2.0px;stroke-linecap:butt;stroke-linejoin:miter;stroke-opacity:1"/>
<path class="bond-1 atom-1 atom-2" d="M 46.1,379.8 L 73.1,364.3" style="fill:none;fill-rule:evenodd;stroke:#000000;stroke-width:2.0px;stroke-linecap:butt;stroke-linejoin:miter;stroke-opacity:1"/>
<path class="bond-2 atom-2 atom-3" d="M 73.1,364.3 L 100.0,380.0" style="fill:none;fill-rule:evenodd;stroke:#000000;stroke-width:2.0px;stroke-linecap:butt;stroke-linejoin:miter;stroke-opacity:1"/>
<path class="bond-3 atom-3 atom-4" d="M 100.0,380.0 L 127.0,364.5" style="fill:none;fill-rule:evenodd;stroke:#000000;stroke-width:2.0px;stroke-linecap:butt;stroke-linejoin:miter;stroke-opacity:1"/>
<path class="bond-4 atom-4 atom-5" d="M 127.0,364.5 L 153.9,380.2" style="fill:none;fill-rule:evenodd;stroke:#000000;stroke-width:2.0px;stroke-linecap:butt;stroke-linejoin:miter;stroke-opacity:1"/>
<path class="bond-5 atom-5 atom-6" d="M 153.9,380.2 L 180.9,364.8" style="fill:none;fill-rule:evenodd;stroke:#000000;stroke-width:2.0px;stroke-linecap:butt;stroke-linejoin:miter;stroke-opacity:1"/>
<path class="bond-6 atom-6 atom-7" d="M 180.9,364.8 L 181.1,333.6" style="fill:none;fill-rule:evenodd;stroke:#000000;stroke-width:2.0px;stroke-linecap:butt;stroke-linejoin:miter;stroke-opacity:1"/>
<path class="bond-6 atom-6 atom-7" d="M 187.2,360.1 L 187.3,338.3" style="fill:none;fill-rule:evenodd;stroke:#000000;stroke-width:2.0px;stroke-linecap:butt;stroke-linejoin:miter;stroke-opacity:1"/>
<path class="bond-7 atom-7 atom-8" d="M 181.1,333.6 L 208.1,318.2" style="fill:none;fill-rule:evenodd;stroke:#000000;stroke-width:2.0px;stroke-linecap:butt;stroke-linejoin:miter;stroke-opacity:1"/>
<path class="bond-8 atom-8 atom-9" d="M 208.1,318.2 L 235.0,333.9" style="fill:none;fill-rule:evenodd;stroke:#000000;stroke-width:2.0px;stroke-linecap:butt;stroke-linejoin:miter;stroke-opacity:1"/>
<path class="bond-8 atom-8 atom-9" d="M 209.0,325.9 L 227.8,336.9" style="fill:none;fill-rule:evenodd;stroke:#000000;stroke-width:2.0px;stroke-linecap:butt;stroke-linejoin:miter;stroke-opacity:1"/>
<path class="bond-9 atom-9 atom-10" d="M 235.0,333.9 L 234.8,365.0" style="fill:none;fill-rule:evenodd;stroke:#000000;stroke-width:2.0px;stroke-linecap:butt;stroke-linejoin:miter;stroke-opacity:1"/>
<path class="bond-10 atom-10 atom-11" d="M 234.8,365.0 L 207.8,380.4" style="fill:none;fill-rule:evenodd;stroke:#000000;stroke-width:2.0px;stroke-linecap:butt;stroke-linejoin:miter;stroke-opacity:1"/>
<path class="bond-10 atom-10 atom-11" d="M 227.7,361.9 L 208.8,372.7" style="fill:none;fill-rule:evenodd;stroke:#000000;stroke-width:2.0px;stroke-linecap:butt;stroke-linejoin:miter;stroke-opacity:1"/>
<path class="bond-11 atom-11 atom-12" d="M 207.8,380.4 L 207.7,411.5" style="fill:none;fill-rule:evenodd;stroke:#000000;stroke-width:2.0px;stroke-linecap:butt;stroke-linejoin:miter;stroke-opacity:1"/>
<path class="bond-12 atom-12 atom-13" d="M 209.3,408.9 L 231.1,421.6" style="fill:none;fill-rule:evenodd;stroke:#000000;stroke-width:2.0px;stroke-linecap:butt;stroke-linejoin:miter;stroke-opacity:1"/>
<path class="bond-12 atom-12 atom-13" d="M 206.1,414.2 L 228.0,427.0" style="fill:none;fill-rule:evenodd;stroke:#000000;stroke-width:2.0px;stroke-linecap:butt;stroke-linejoin:miter;stroke-opacity:1"/>
<path class="bond-13 atom-11 atom-6" d="M 207.8,380.4 L 180.9,364.8" style="fill:none;fill-rule:evenodd;stroke:#000000;stroke-width:2.0px;stroke-linecap:butt;stroke-linejoin:miter;stroke-opacity:1"/>
<path class="atom-0" d="M 11.4 364.4 Q 11.4 362.2, 12.4 361.1 Q 13.4 359.9, 15.4 359.9 Q 17.2 359.9, 18.2 361.2 L 17.3 361.9 Q 16.6 360.9, 15.4 360.9 Q 14.0 360.9, 13.3 361.8 Q 12.6 362.7, 12.6 364.4 Q 12.6 366.1, 13.4 367.0 Q 14.1 367.9, 15.5 367.9 Q 16.5 367.9, 17.6 367.4 L 18.0 368.3 Q 17.5 368.6, 16.8 368.8 Q 16.1 368.9, 15.3 368.9 Q 13.4 368.9, 12.4 367.8 Q 11.4 366.6, 11.4 364.4 " fill="#000000"/>
<path class="atom-0" d="M 18.7 359.4 L 19.8 359.4 L 19.8 368.8 L 18.7 368.8 L 18.7 359.4 " fill="#000000"/>
<path class="atom-13" d="M 230.5 427.2 Q 230.5 425.1, 231.6 423.9 Q 232.6 422.8, 234.6 422.8 Q 236.5 422.8, 237.6 423.9 Q 238.6 425.1, 238.6 427.2 Q 238.6 429.4, 237.6 430.6 Q 236.5 431.8, 234.6 431.8 Q 232.6 431.8, 231.6 430.6 Q 230.5 429.4, 230.5 427.2 M 234.6 430.8 Q 235.9 430.8, 236.7 429.9 Q 237.4 429.0, 237.4 427.2 Q 237.4 425.5, 236.7 424.6 Q 235.9 423.8, 234.6 423.8 Q 233.2 423.8, 232.5 424.6 Q 231.8 425.5, 231.8 427.2 Q 231.8 429.0, 232.5 429.9 Q 233.2 430.8, 234.6 430.8 " fill="#000000"/>
<path class="bond-0 atom-0 atom-1" d="M 268.6,342.1 L 279.8,328.0" style="fill:none;fill-rule:evenodd;stroke:#000000;stroke-width:2.0px;stroke-linecap:butt;stroke-linejoin:miter;stroke-opacity:1"/>
<path class="bond-1 atom-1 atom-2" d="M 279.8,328.0 L 271.2,306.2" style="fill:none;fill-rule:evenodd;stroke:#000000;stroke-width:2.0px;stroke-linecap:butt;stroke-linejoin:miter;stroke-opacity:1"/>
<path class="bond-1 atom-1 atom-2" d="M 282.9,323.0 L 276.9,307.7" style="fill:none;fill-rule:evenodd;stroke:#000000;stroke-width:2.0px;stroke-linecap:butt;stroke-linejoin:miter;stroke-opacity:1"/>
<path class="bond-2 atom-2 atom-3" d="M 271.2,306.2 L 285.8,287.8" style="fill:none;fill-rule:evenodd;stroke:#000000;stroke-width:2.0px;stroke-linecap:butt;stroke-linejoin:miter;stroke-opacity:1"/>
<path class="bond-3 atom-3 atom-4" d="M 285.8,287.8 L 309.0,291.2" style="fill:none;fill-rule:evenodd;stroke:#000000;stroke-width:2.0px;stroke-linecap:butt;stroke-linejoin:miter;stroke-opacity:1"/>
<path class="bond-3 atom-3 atom-4" d="M 288.6,293.0 L 304.8,295.4" style="fill:none;fill-rule:evenodd;stroke:#000000;stroke-width:2.0px;stroke-linecap:butt;stroke-linejoin:miter;stroke-opacity:1"/>
<path class="bond-4 atom-4 atom-5" d="M 309.0,291.2 L 317.6,313.1" style="fill:none;fill-rule:evenodd;stroke:#000000;stroke-width:2.0px;stroke-linecap:butt;stroke-linejoin:miter;stroke-opacity:1"/>
<path class="bond-5 atom-5 atom-6" d="M 317.6,313.1 L 303.0,331.4" style="fill:none;fill-rule:evenodd;stroke:#000000;stroke-width:2.0px;stroke-linecap:butt;stroke-linejoin:miter;stroke-opacity:1"/>
<path class="bond-5 atom-5 atom-6" d="M 311.8,312.9 L 301.6,325.8" style="fill:none;fill-rule:evenodd;stroke:#000000;stroke-width:2.0px;stroke-linecap:butt;stroke-linejoin:miter;stroke-opacity:1"/>
<path class="bond-6 atom-6 atom-7" d="M 303.0,331.4 L 310.0,349.2" style="fill:none;fill-rule:evenodd;stroke:#000000;stroke-width:2.0px;stroke-linecap:butt;stroke-linejoin:miter;stroke-opacity:1"/>
<path class="bond-7 atom-7 atom-8" d="M 308.4,357.3 L 297.1,371.6" style="fill:none;fill-rule:evenodd;stroke:#000000;stroke-width:2.0px;stroke-linecap:butt;stroke-linejoin:miter;stroke-opacity:1"/>
<path class="bond-8 atom-8 atom-9" d="M 296.7,373.9 L 277.3,371.1" style="fill:none;fill-rule:evenodd;stroke:#000000;stroke-width:2.0px;stroke-linecap:butt;stroke-linejoin:miter;stroke-opacity:1"/>
<path class="bond-8 atom-8 atom-9" d="M 297.4,369.3 L 278.0,366.4" style="fill:none;fill-rule:evenodd;stroke:#000000;stroke-width:2.0px;stroke-linecap:butt;stroke-linejoin:miter;stroke-opacity:1"/>
<path class="bond-9 atom-8 atom-10" d="M 297.1,371.6 L 305.7,393.4" style="fill:none;fill-rule:evenodd;stroke:#000000;stroke-width:2.0px;stroke-linecap:butt;stroke-linejoin:miter;stroke-opacity:1"/>
<path class="bond-10 atom-10 atom-11" d="M 305.7,393.4 L 291.1,411.8" style="fill:none;fill-rule:evenodd;stroke:#000000;stroke-width:2.0px;stroke-linecap:butt;stroke-linejoin:miter;stroke-opacity:1"/>
<path class="bond-10 atom-10 atom-11" d="M 307.2,399.1 L 297.0,412.0" style="fill:none;fill-rule:evenodd;stroke:#000000;stroke-width:2.0px;stroke-linecap:butt;stroke-linejoin:miter;stroke-opacity:1"/>
<path class="bond-11 atom-11 atom-12" d="M 291.1,411.8 L 299.7,433.6" style="fill:none;fill-rule:evenodd;stroke:#000000;stroke-width:2.0px;stroke-linecap:butt;stroke-linejoin:miter;stroke-opacity:1"/>
<path class="bond-12 atom-12 atom-13" d="M 299.7,433.6 L 322.9,437.1" style="fill:none;fill-rule:evenodd;stroke:#000000;stroke-width:2.0px;stroke-linecap:butt;stroke-linejoin:miter;stroke-opacity:1"/>
<path class="bond-12 atom-12 atom-13" d="M 303.9,429.5 L 320.1,431.9" style="fill:none;fill-rule:evenodd;stroke:#000000;stroke-width:2.0px;stroke-linecap:butt;stroke-linejoin:miter;stroke-opacity:1"/>
<path class="bond-13 atom-13 atom-14" d="M 322.9,437.1 L 329.9,454.8" style="fill:none;fill-rule:evenodd;stroke:#000000;stroke-width:2.0px;stroke-linecap:butt;stroke-linejoin:miter;stroke-opacity:1"/>
<path class="bond-14 atom-13 atom-15" d="M 322.9,437.1 L 337.5,418.7" style="fill:none;fill-rule:evenodd;stroke:#000000;stroke-width:2.0px;stroke-linecap:butt;stroke-linejoin:miter;stroke-opacity:1"/>
<path class="bond-15 atom-15 atom-16" d="M 337.5,418.7 L 328.9,396.9" style="fill:none;fill-rule:evenodd;stroke:#000000;stroke-width:2.0px;stroke-linecap:butt;stroke-linejoin:miter;stroke-opacity:1"/>
<path class="bond-15 atom-15 atom-16" d="M 331.8,417.1 L 325.8,401.9" style="fill:none;fill-rule:evenodd;stroke:#000000;stroke-width:2.0px;stroke-linecap:butt;stroke-linejoin:miter;stroke-opacity:1"/>
<path class="bond-16 atom-16 atom-17" d="M 328.9,396.9 L 340.2,382.6" style="fill:none;fill-rule:evenodd;stroke:#000000;stroke-width:2.0px;stroke-linecap:butt;stroke-linejoin:miter;stroke-opacity:1"/>
<path class="bond-17 atom-17 atom-18" d="M 346.8,379.0 L 363.8,381.5" style="fill:none;fill-rule:evenodd;stroke:#000000;stroke-width:2.0px;stroke-linecap:butt;stroke-linejoin:miter;stroke-opacity:1"/>
<path class="bond-18 atom-18 atom-19" d="M 369.6,378.3 L 378.3,367.2" style="fill:none;fill-rule:evenodd;stroke:#000000;stroke-width:2.0px;stroke-linecap:butt;stroke-linejoin:miter;stroke-opacity:1"/>
<path class="bond-19 atom-19 atom-20" d="M 384.2,364.0 L 404.5,367.0" style="fill:none;fill-rule:evenodd;stroke:#000000;stroke-width:2.0px;stroke-linecap:butt;stroke-linejoin:miter;stroke-opacity:1"/>
<path class="bond-20 atom-20 atom-21" d="M 404.5,367.0 L 415.8,352.8" style="fill:none;fill-rule:evenodd;stroke:#000000;stroke-width:2.0px;stroke-linecap:butt;stroke-linejoin:miter;stroke-opacity:1"/>
<path class="bond-21 atom-21 atom-22" d="M 421.9,349.1 L 442.2,352.1" style="fill:none;fill-rule:evenodd;stroke:#000000;stroke-width:2.0px;stroke-linecap:butt;stroke-linejoin:miter;stroke-opacity:1"/>
<path class="bond-22 atom-22 atom-23" d="M 442.2,352.1 L 450.9,373.9" style="fill:none;fill-rule:evenodd;stroke:#000000;stroke-width:2.0px;stroke-linecap:butt;stroke-linejoin:miter;stroke-opacity:1"/>
<path class="bond-22 atom-22 atom-23" d="M 447.9,353.7 L 453.9,368.9" style="fill:none;fill-rule:evenodd;stroke:#000000;stroke-width:2.0px;stroke-linecap:butt;stroke-linejoin:miter;stroke-opacity:1"/>
<path class="bond-23 atom-23 atom-24" d="M 450.9,373.9 L 474.1,377.4" style="fill:none;fill-rule:evenodd;stroke:#000000;stroke-width:2.0px;stroke-linecap:butt;stroke-linejoin:miter;stroke-opacity:1"/>
<path class="bond-24 atom-24 atom-25" d="M 474.1,377.4 L 488.6,359.0" style="fill:none;fill-rule:evenodd;stroke:#000000;stroke-width:2.0px;stroke-linecap:butt;stroke-linejoin:miter;stroke-opacity:1"/>
<path class="bond-24 atom-24 atom-25" d="M 472.6,371.7 L 482.8,358.8" style="fill:none;fill-rule:evenodd;stroke:#000000;stroke-width:2.0px;stroke-linecap:butt;stroke-linejoin:miter;stroke-opacity:1"/>
<path class="bond-25 atom-25 atom-26" d="M 488.6,359.0 L 480.0,337.2" style="fill:none;fill-rule:evenodd;stroke:#000000;stroke-width:2.0px;stroke-linecap:butt;stroke-linejoin:miter;stroke-opacity:1"/>
<path class="bond-26 atom-26 atom-27" d="M 480.0,337.2 L 456.8,333.7" style="fill:none;fill-rule:evenodd;stroke:#000000;stroke-width:2.0px;stroke-linecap:butt;stroke-linejoin:miter;stroke-opacity:1"/>
<path class="bond-26 atom-26 atom-27" d="M 475.9,341.3 L 459.6,338.9" style="fill:none;fill-rule:evenodd;stroke:#000000;stroke-width:2.0px;stroke-linecap:butt;stroke-linejoin:miter;stroke-opacity:1"/>
<path class="bond-27 atom-6 atom-1" d="M 303.0,331.4 L 279.8,328.0" style="fill:none;fill-rule:evenodd;stroke:#000000;stroke-width:2.0px;stroke-linecap:butt;stroke-linejoin:miter;stroke-opacity:1"/>
<path class="bond-28 atom-16 atom-10" d="M 328.9,396.9 L 305.7,393.4" style="fill:none;fill-rule:evenodd;stroke:#000000;stroke-width:2.0px;stroke-linecap:butt;stroke-linejoin:miter;stroke-opacity:1"/>
<path class="bond-29 atom-27 atom-22" d="M 456.8,333.7 L 442.2,352.1" style="fill:none;fill-rule:evenodd;stroke:#000000;stroke-width:2.0px;stroke-linecap:butt;stroke-linejoin:miter;stroke-opacity:1"/>
<path class="atom-0" d="M 263.4 348.6 Q 263.5 348.7, 263.8 348.8 Q 264.1 348.9, 264.4 349.0 Q 264.8 349.1, 265.1 349.1 Q 265.7 349.1, 266.1 348.8 Q 266.5 348.5, 266.5 347.9 Q 266.5 347.6, 266.3 347.4 Q 266.1 347.1, 265.8 347.0 Q 265.5 346.9, 265.1 346.7 Q 264.5 346.6, 264.1 346.4 Q 263.8 346.2, 263.5 345.9 Q 263.3 345.5, 263.3 344.9 Q 263.3 344.1, 263.8 343.6 Q 264.4 343.0, 265.5 343.0 Q 266.3 343.0, 267.2 343.4 L 267.0 344.1 Q 266.2 343.8, 265.6 343.8 Q 264.9 343.8, 264.5 344.1 Q 264.2 344.3, 264.2 344.8 Q 264.2 345.2, 264.4 345.4 Q 264.6 345.6, 264.8 345.7 Q 265.1 345.8, 265.6 346.0 Q 266.2 346.2, 266.5 346.3 Q 266.9 346.5, 267.1 346.9 Q 267.4 347.3, 267.4 347.9 Q 267.4 348.9, 266.8 349.4 Q 266.2 349.8, 265.1 349.8 Q 264.5 349.8, 264.1 349.7 Q 263.6 349.6, 263.1 349.4 L 263.4 348.6 " fill="#000000"/>
<path class="atom-0" d="M 267.8 344.1 L 269.0 344.1 L 269.0 342.9 L 269.5 342.9 L 269.5 344.1 L 270.7 344.1 L 270.7 344.6 L 269.5 344.6 L 269.5 345.8 L 269.0 345.8 L 269.0 344.6 L 267.8 344.6 L 267.8 344.1 " fill="#000000"/>
<path class="atom-7" d="M 310.2 349.9 L 312.4 353.4 Q 312.6 353.8, 312.9 354.4 Q 313.3 355.0, 313.3 355.1 L 313.3 349.9 L 314.2 349.9 L 314.2 356.6 L 313.3 356.6 L 310.9 352.7 Q 310.7 352.3, 310.4 351.8 Q 310.1 351.2, 310.0 351.1 L 310.0 356.6 L 309.1 356.6 L 309.1 349.9 L 310.2 349.9 " fill="#000000"/>
<path class="atom-7" d="M 315.0 349.9 L 315.9 349.9 L 315.9 352.8 L 319.2 352.8 L 319.2 349.9 L 320.1 349.9 L 320.1 356.6 L 319.2 356.6 L 319.2 353.5 L 315.9 353.5 L 315.9 356.6 L 315.0 356.6 L 315.0 349.9 " fill="#000000"/>
<path class="atom-9" d="M 270.8 368.2 Q 270.8 366.6, 271.6 365.7 Q 272.4 364.8, 273.9 364.8 Q 275.3 364.8, 276.1 365.7 Q 276.9 366.6, 276.9 368.2 Q 276.9 369.8, 276.1 370.7 Q 275.3 371.6, 273.9 371.6 Q 272.4 371.6, 271.6 370.7 Q 270.8 369.8, 270.8 368.2 M 273.9 370.9 Q 274.9 370.9, 275.4 370.2 Q 276.0 369.5, 276.0 368.2 Q 276.0 366.9, 275.4 366.2 Q 274.9 365.6, 273.9 365.6 Q 272.9 365.6, 272.3 366.2 Q 271.8 366.9, 271.8 368.2 Q 271.8 369.5, 272.3 370.2 Q 272.9 370.9, 273.9 370.9 " fill="#000000"/>
<path class="atom-14" d="M 329.6 455.6 L 333.5 455.6 L 333.5 456.3 L 330.4 456.3 L 330.4 458.3 L 333.2 458.3 L 333.2 459.1 L 330.4 459.1 L 330.4 462.2 L 329.6 462.2 L 329.6 455.6 " fill="#000000"/>
<path class="atom-17" d="M 342.0 375.2 L 344.2 378.7 Q 344.4 379.1, 344.7 379.7 Q 345.1 380.3, 345.1 380.3 L 345.1 375.2 L 346.0 375.2 L 346.0 381.8 L 345.1 381.8 L 342.7 378.0 Q 342.5 377.5, 342.2 377.0 Q 341.9 376.5, 341.8 376.3 L 341.8 381.8 L 340.9 381.8 L 340.9 375.2 L 342.0 375.2 " fill="#000000"/>
<path class="atom-17" d="M 346.8 376.4 L 347.9 376.4 L 347.9 375.2 L 348.5 375.2 L 348.5 376.4 L 349.7 376.4 L 349.7 376.8 L 348.5 376.8 L 348.5 378.1 L 347.9 378.1 L 347.9 376.8 L 346.8 376.8 L 346.8 376.4 " fill="#000000"/>
<path class="atom-18" d="M 364.8 384.2 Q 364.9 384.3, 365.2 384.4 Q 365.5 384.5, 365.8 384.6 Q 366.2 384.7, 366.5 384.7 Q 367.1 384.7, 367.5 384.4 Q 367.9 384.1, 367.9 383.5 Q 367.9 383.2, 367.7 382.9 Q 367.5 382.7, 367.2 382.6 Q 366.9 382.5, 366.5 382.3 Q 365.9 382.2, 365.5 382.0 Q 365.2 381.8, 364.9 381.5 Q 364.7 381.1, 364.7 380.5 Q 364.7 379.7, 365.2 379.2 Q 365.8 378.6, 366.9 378.6 Q 367.7 378.6, 368.6 379.0 L 368.4 379.7 Q 367.6 379.4, 367.0 379.4 Q 366.3 379.4, 366.0 379.7 Q 365.6 379.9, 365.6 380.4 Q 365.6 380.8, 365.8 381.0 Q 366.0 381.2, 366.2 381.3 Q 366.5 381.4, 367.0 381.6 Q 367.6 381.8, 367.9 381.9 Q 368.3 382.1, 368.5 382.5 Q 368.8 382.9, 368.8 383.5 Q 368.8 384.5, 368.2 385.0 Q 367.6 385.4, 366.5 385.4 Q 366.0 385.4, 365.5 385.3 Q 365.1 385.2, 364.5 385.0 L 364.8 384.2 " fill="#000000"/>
<path class="atom-19" d="M 379.4 365.9 Q 379.5 365.9, 379.8 366.0 Q 380.1 366.2, 380.4 366.2 Q 380.8 366.3, 381.1 366.3 Q 381.7 366.3, 382.1 366.0 Q 382.5 365.7, 382.5 365.2 Q 382.5 364.8, 382.3 364.6 Q 382.1 364.4, 381.8 364.2 Q 381.5 364.1, 381.1 364.0 Q 380.5 363.8, 380.1 363.6 Q 379.8 363.5, 379.5 363.1 Q 379.3 362.7, 379.3 362.1 Q 379.3 361.3, 379.8 360.8 Q 380.4 360.3, 381.5 360.3 Q 382.3 360.3, 383.2 360.6 L 383.0 361.4 Q 382.2 361.0, 381.6 361.0 Q 380.9 361.0, 380.5 361.3 Q 380.2 361.6, 380.2 362.0 Q 380.2 362.4, 380.4 362.6 Q 380.6 362.8, 380.8 362.9 Q 381.1 363.1, 381.6 363.2 Q 382.2 363.4, 382.5 363.6 Q 382.9 363.8, 383.1 364.1 Q 383.4 364.5, 383.4 365.2 Q 383.4 366.1, 382.8 366.6 Q 382.2 367.1, 381.1 367.1 Q 380.5 367.1, 380.1 366.9 Q 379.6 366.8, 379.1 366.6 L 379.4 365.9 " fill="#000000"/>
<path class="atom-21" d="M 410.9 345.3 L 411.8 345.3 L 411.8 348.2 L 415.2 348.2 L 415.2 345.3 L 416.1 345.3 L 416.1 352.0 L 415.2 352.0 L 415.2 348.9 L 411.8 348.9 L 411.8 352.0 L 410.9 352.0 L 410.9 345.3 " fill="#000000"/>
<path class="atom-21" d="M 418.9 345.3 Q 420.0 345.3, 420.6 345.9 Q 421.2 346.4, 421.2 347.3 Q 421.2 348.2, 420.6 348.7 Q 420.0 349.3, 418.9 349.3 L 417.8 349.3 L 417.8 352.0 L 416.9 352.0 L 416.9 345.3 L 418.9 345.3 M 418.9 348.5 Q 419.5 348.5, 419.9 348.2 Q 420.2 347.9, 420.2 347.3 Q 420.2 346.7, 419.9 346.4 Q 419.5 346.1, 418.9 346.1 L 417.8 346.1 L 417.8 348.5 L 418.9 348.5 " fill="#000000"/>
<path class="atom-0" d="M 262.2,347.3 L 262.2,347.3 L 262.2,347.4 L 262.2,347.4 L 262.2,347.5 L 262.1,347.5 L 262.1,347.5 L 262.1,347.6 L 262.1,347.6 L 262.1,347.6 L 262.0,347.7 L 262.0,347.7 L 262.0,347.7 L 261.9,347.7 L 261.9,347.7 L 261.8,347.7 L 261.8,347.8 L 261.8,347.8 L 261.7,347.8 L 261.7,347.8 L 261.6,347.8 L 261.6,347.8 L 261.6,347.7 L 261.5,347.7 L 261.5,347.7 L 261.5,347.7 L 261.4,347.7 L 261.4,347.6 L 261.4,347.6 L 261.3,347.6 L 261.3,347.5 L 261.3,347.5 L 261.3,347.5 L 261.3,347.4 L 261.3,347.4 L 261.3,347.4 L 261.2,347.3 L 261.2,347.3 L 261.3,347.2 L 261.3,347.2 L 261.3,347.2 L 261.3,347.1 L 261.3,347.1 L 261.3,347.0 L 261.3,347.0 L 261.4,347.0 L 261.4,347.0 L 261.4,346.9 L 261.5,346.9 L 261.5,346.9 L 261.5,346.9 L 261.6,346.8 L 261.6,346.8 L 261.6,346.8 L 261.7,346.8 L 261.7,346.8 L 261.8,346.8 L 261.8,346.8 L 261.8,346.8 L 261.9,346.9 L 261.9,346.9 L 262.0,346.9 L 262.0,346.9 L 262.0,346.9 L 262.1,347.0 L 262.1,347.0 L 262.1,347.0 L 262.1,347.1 L 262.1,347.1 L 262.2,347.1 L 262.2,347.2 L 262.2,347.2 L 262.2,347.3 L 262.2,347.3 L 261.7,347.3 Z" style="fill:#000000;fill-rule:evenodd;fill-opacity:1;stroke:#000000;stroke-width:0.0px;stroke-linecap:butt;stroke-linejoin:miter;stroke-opacity:1;"/>
<path class="atom-0" d="M 262.2,345.4 L 262.2,345.5 L 262.2,345.5 L 262.2,345.5 L 262.2,345.6 L 262.1,345.6 L 262.1,345.6 L 262.1,345.7 L 262.1,345.7 L 262.1,345.7 L 262.0,345.8 L 262.0,345.8 L 262.0,345.8 L 261.9,345.8 L 261.9,345.9 L 261.8,345.9 L 261.8,345.9 L 261.8,345.9 L 261.7,345.9 L 261.7,345.9 L 261.6,345.9 L 261.6,345.9 L 261.6,345.9 L 261.5,345.8 L 261.5,345.8 L 261.5,345.8 L 261.4,345.8 L 261.4,345.8 L 261.4,345.7 L 261.3,345.7 L 261.3,345.7 L 261.3,345.6 L 261.3,345.6 L 261.3,345.6 L 261.3,345.5 L 261.3,345.5 L 261.2,345.4 L 261.2,345.4 L 261.3,345.4 L 261.3,345.3 L 261.3,345.3 L 261.3,345.2 L 261.3,345.2 L 261.3,345.2 L 261.3,345.1 L 261.4,345.1 L 261.4,345.1 L 261.4,345.0 L 261.5,345.0 L 261.5,345.0 L 261.5,345.0 L 261.6,345.0 L 261.6,345.0 L 261.6,345.0 L 261.7,344.9 L 261.7,344.9 L 261.8,345.0 L 261.8,345.0 L 261.8,345.0 L 261.9,345.0 L 261.9,345.0 L 262.0,345.0 L 262.0,345.0 L 262.0,345.1 L 262.1,345.1 L 262.1,345.1 L 262.1,345.2 L 262.1,345.2 L 262.1,345.2 L 262.2,345.3 L 262.2,345.3 L 262.2,345.3 L 262.2,345.4 L 262.2,345.4 L 261.7,345.4 Z" style="fill:#000000;fill-rule:evenodd;fill-opacity:1;stroke:#000000;stroke-width:0.0px;stroke-linecap:butt;stroke-linejoin:miter;stroke-opacity:1;"/>
<path class="atom-17" d="M 340.0,379.4 L 340.0,379.5 L 340.0,379.5 L 340.0,379.6 L 340.0,379.6 L 340.0,379.6 L 339.9,379.7 L 339.9,379.7 L 339.9,379.7 L 339.9,379.8 L 339.8,379.8 L 339.8,379.8 L 339.8,379.8 L 339.7,379.9 L 339.7,379.9 L 339.7,379.9 L 339.6,379.9 L 339.6,379.9 L 339.6,379.9 L 339.5,379.9 L 339.5,379.9 L 339.4,379.9 L 339.4,379.9 L 339.4,379.9 L 339.3,379.9 L 339.3,379.8 L 339.3,379.8 L 339.2,379.8 L 339.2,379.8 L 339.2,379.7 L 339.1,379.7 L 339.1,379.7 L 339.1,379.6 L 339.1,379.6 L 339.1,379.5 L 339.1,379.5 L 339.1,379.5 L 339.1,379.4 L 339.1,379.4 L 339.1,379.3 L 339.1,379.3 L 339.1,379.3 L 339.1,379.2 L 339.1,379.2 L 339.2,379.2 L 339.2,379.1 L 339.2,379.1 L 339.3,379.1 L 339.3,379.1 L 339.3,379.0 L 339.4,379.0 L 339.4,379.0 L 339.4,379.0 L 339.5,379.0 L 339.5,379.0 L 339.6,379.0 L 339.6,379.0 L 339.6,379.0 L 339.7,379.0 L 339.7,379.0 L 339.7,379.0 L 339.8,379.0 L 339.8,379.1 L 339.8,379.1 L 339.9,379.1 L 339.9,379.1 L 339.9,379.2 L 339.9,379.2 L 340.0,379.3 L 340.0,379.3 L 340.0,379.3 L 340.0,379.4 L 340.0,379.4 L 340.0,379.4 L 339.5,379.4 Z" style="fill:#000000;fill-rule:evenodd;fill-opacity:1;stroke:#000000;stroke-width:0.0px;stroke-linecap:butt;stroke-linejoin:miter;stroke-opacity:1;"/>
<path class="atom-17" d="M 340.0,377.6 L 340.0,377.6 L 340.0,377.7 L 340.0,377.7 L 340.0,377.7 L 340.0,377.8 L 339.9,377.8 L 339.9,377.8 L 339.9,377.9 L 339.9,377.9 L 339.8,377.9 L 339.8,378.0 L 339.8,378.0 L 339.7,378.0 L 339.7,378.0 L 339.7,378.0 L 339.6,378.0 L 339.6,378.0 L 339.6,378.0 L 339.5,378.0 L 339.5,378.0 L 339.4,378.0 L 339.4,378.0 L 339.4,378.0 L 339.3,378.0 L 339.3,378.0 L 339.3,377.9 L 339.2,377.9 L 339.2,377.9 L 339.2,377.9 L 339.1,377.8 L 339.1,377.8 L 339.1,377.7 L 339.1,377.7 L 339.1,377.7 L 339.1,377.6 L 339.1,377.6 L 339.1,377.5 L 339.1,377.5 L 339.1,377.5 L 339.1,377.4 L 339.1,377.4 L 339.1,377.4 L 339.1,377.3 L 339.2,377.3 L 339.2,377.3 L 339.2,377.2 L 339.3,377.2 L 339.3,377.2 L 339.3,377.2 L 339.4,377.1 L 339.4,377.1 L 339.4,377.1 L 339.5,377.1 L 339.5,377.1 L 339.6,377.1 L 339.6,377.1 L 339.6,377.1 L 339.7,377.1 L 339.7,377.1 L 339.7,377.1 L 339.8,377.2 L 339.8,377.2 L 339.8,377.2 L 339.9,377.2 L 339.9,377.3 L 339.9,377.3 L 339.9,377.3 L 340.0,377.4 L 340.0,377.4 L 340.0,377.4 L 340.0,377.5 L 340.0,377.5 L 340.0,377.6 L 339.5,377.6 Z" style="fill:#000000;fill-rule:evenodd;fill-opacity:1;stroke:#000000;stroke-width:0.0px;stroke-linecap:butt;stroke-linejoin:miter;stroke-opacity:1;"/>
<path class="bond-0 atom-0 atom-1" d="M 511.4,395.8 L 621.8,332.1" style="fill:none;fill-rule:evenodd;stroke:#000000;stroke-width:2.0px;stroke-linecap:butt;stroke-linejoin:miter;stroke-opacity:1"/>
<path class="bond-0 atom-0 atom-1" d="M 524.1,417.9 L 634.6,354.2" style="fill:none;fill-rule:evenodd;stroke:#000000;stroke-width:2.0px;stroke-linecap:butt;stroke-linejoin:miter;stroke-opacity:1"/>
<path class="bond-1 atom-1 atom-2" d="M 628.2,343.1 L 738.6,406.9" style="fill:none;fill-rule:evenodd;stroke:#000000;stroke-width:2.0px;stroke-linecap:butt;stroke-linejoin:miter;stroke-opacity:1"/>
<path class="bond-0 atom-0 atom-1" d="M 197.1,625.1 L 226.6,625.1" style="fill:none;fill-rule:evenodd;stroke:#000000;stroke-width:2.0px;stroke-linecap:butt;stroke-linejoin:miter;stroke-opacity:1"/>
<path class="bond-0 atom-0 atom-1" d="M 197.1,633.4 L 226.6,633.4" style="fill:none;fill-rule:evenodd;stroke:#000000;stroke-width:2.0px;stroke-linecap:butt;stroke-linejoin:miter;stroke-opacity:1"/>
<path class="bond-1 atom-0 atom-2" d="M 188.6,636.4 L 177.6,659.2" style="fill:none;fill-rule:evenodd;stroke:#000000;stroke-width:2.0px;stroke-linecap:butt;stroke-linejoin:miter;stroke-opacity:1"/>
<path class="bond-2 atom-2 atom-3" d="M 168.4,667.7 L 133.9,675.6" style="fill:none;fill-rule:evenodd;stroke:#000000;stroke-width:2.0px;stroke-linecap:butt;stroke-linejoin:miter;stroke-opacity:1"/>
<path class="bond-3 atom-3 atom-4" d="M 133.9,675.6 L 101.7,649.9" style="fill:none;fill-rule:evenodd;stroke:#000000;stroke-width:2.0px;stroke-linecap:butt;stroke-linejoin:miter;stroke-opacity:1"/>
<path class="bond-4 atom-4 atom-5" d="M 101.7,649.9 L 69.5,675.6" style="fill:none;fill-rule:evenodd;stroke:#000000;stroke-width:2.0px;stroke-linecap:butt;stroke-linejoin:miter;stroke-opacity:1"/>
<path class="bond-5 atom-5 atom-6" d="M 69.5,675.6 L 29.3,666.4" style="fill:none;fill-rule:evenodd;stroke:#000000;stroke-width:2.0px;stroke-linecap:butt;stroke-linejoin:miter;stroke-opacity:1"/>
<path class="bond-6 atom-6 atom-7" d="M 29.3,666.4 L 11.4,629.2" style="fill:none;fill-rule:evenodd;stroke:#000000;stroke-width:2.0px;stroke-linecap:butt;stroke-linejoin:miter;stroke-opacity:1"/>
<path class="bond-7 atom-7 atom-8" d="M 11.4,629.2 L 29.3,592.1" style="fill:none;fill-rule:evenodd;stroke:#000000;stroke-width:2.0px;stroke-linecap:butt;stroke-linejoin:miter;stroke-opacity:1"/>
<path class="bond-8 atom-8 atom-9" d="M 29.3,592.1 L 69.5,582.9" style="fill:none;fill-rule:evenodd;stroke:#000000;stroke-width:2.0px;stroke-linecap:butt;stroke-linejoin:miter;stroke-opacity:1"/>
<path class="bond-9 atom-9 atom-10" d="M 69.5,582.9 L 101.7,608.6" style="fill:none;fill-rule:evenodd;stroke:#000000;stroke-width:2.0px;stroke-linecap:butt;stroke-linejoin:miter;stroke-opacity:1"/>
<path class="bond-10 atom-10 atom-11" d="M 101.7,608.6 L 127.2,588.3" style="fill:none;fill-rule:evenodd;stroke:#000000;stroke-width:2.0px;stroke-linecap:butt;stroke-linejoin:miter;stroke-opacity:1"/>
<path class="bond-11 atom-11 atom-12" d="M 140.7,584.4 L 168.4,590.8" style="fill:none;fill-rule:evenodd;stroke:#000000;stroke-width:2.0px;stroke-linecap:butt;stroke-linejoin:miter;stroke-opacity:1"/>
<path class="bond-12 atom-12 atom-0" d="M 177.6,599.3 L 188.6,622.0" style="fill:none;fill-rule:evenodd;stroke:#000000;stroke-width:2.0px;stroke-linecap:butt;stroke-linejoin:miter;stroke-opacity:1"/>
<path class="bond-13 atom-10 atom-4" d="M 101.7,608.6 L 101.7,649.9" style="fill:none;fill-rule:evenodd;stroke:#000000;stroke-width:2.0px;stroke-linecap:butt;stroke-linejoin:miter;stroke-opacity:1"/>
<path class="atom-0" d="M 191.8 623.4 Q 193.8 623.4, 194.8 624.3 Q 195.8 625.2, 195.8 626.8 Q 195.8 628.4, 194.7 629.4 Q 193.7 630.3, 191.8 630.3 L 189.9 630.3 L 189.9 635.1 L 188.3 635.1 L 188.3 623.4 L 191.8 623.4 M 191.8 629.0 Q 192.9 629.0, 193.5 628.4 Q 194.1 627.9, 194.1 626.8 Q 194.1 625.8, 193.5 625.3 Q 192.9 624.7, 191.8 624.7 L 189.9 624.7 L 189.9 629.0 L 191.8 629.0 " fill="#000000"/>
<path class="atom-1" d="M 227.9 629.3 Q 227.9 626.5, 229.3 624.9 Q 230.7 623.3, 233.3 623.3 Q 235.9 623.3, 237.3 624.9 Q 238.6 626.5, 238.6 629.3 Q 238.6 632.1, 237.2 633.7 Q 235.8 635.3, 233.3 635.3 Q 230.7 635.3, 229.3 633.7 Q 227.9 632.1, 227.9 629.3 M 233.3 634.0 Q 235.1 634.0, 236.0 632.8 Q 237.0 631.6, 237.0 629.3 Q 237.0 627.0, 236.0 625.8 Q 235.1 624.6, 233.3 624.6 Q 231.5 624.6, 230.5 625.8 Q 229.6 627.0, 229.6 629.3 Q 229.6 631.6, 230.5 632.8 Q 231.5 634.0, 233.3 634.0 " fill="#000000"/>
<path class="atom-2" d="M 171.6 660.5 L 175.4 666.7 Q 175.8 667.3, 176.4 668.4 Q 177.0 669.6, 177.0 669.6 L 177.0 660.5 L 178.6 660.5 L 178.6 672.2 L 177.0 672.2 L 172.9 665.5 Q 172.4 664.7, 171.9 663.8 Q 171.4 662.9, 171.2 662.6 L 171.2 672.2 L 169.7 672.2 L 169.7 660.5 L 171.6 660.5 " fill="#000000"/>
<path class="atom-2" d="M 179.9 660.5 L 181.5 660.5 L 181.5 665.5 L 187.5 665.5 L 187.5 660.5 L 189.1 660.5 L 189.1 672.2 L 187.5 672.2 L 187.5 666.8 L 181.5 666.8 L 181.5 672.2 L 179.9 672.2 L 179.9 660.5 " fill="#000000"/>
<path class="atom-11" d="M 128.6 582.9 Q 128.6 580.1, 130.0 578.6 Q 131.4 577.0, 133.9 577.0 Q 136.5 577.0, 137.9 578.6 Q 139.3 580.1, 139.3 582.9 Q 139.3 585.8, 137.9 587.4 Q 136.5 589.0, 133.9 589.0 Q 131.4 589.0, 130.0 587.4 Q 128.6 585.8, 128.6 582.9 M 133.9 587.7 Q 135.7 587.7, 136.7 586.5 Q 137.7 585.3, 137.7 582.9 Q 137.7 580.6, 136.7 579.5 Q 135.7 578.3, 133.9 578.3 Q 132.2 578.3, 131.2 579.5 Q 130.2 580.6, 130.2 582.9 Q 130.2 585.3, 131.2 586.5 Q 132.2 587.7, 133.9 587.7 " fill="#000000"/>
<path class="atom-11" d="M 140.1 579.1 L 142.2 579.1 L 142.2 576.9 L 143.1 576.9 L 143.1 579.1 L 145.2 579.1 L 145.2 579.9 L 143.1 579.9 L 143.1 582.0 L 142.2 582.0 L 142.2 579.9 L 140.1 579.9 L 140.1 579.1 " fill="#000000"/>
<path class="atom-12" d="M 171.6 586.2 L 175.4 592.4 Q 175.8 593.0, 176.4 594.1 Q 177.0 595.2, 177.0 595.3 L 177.0 586.2 L 178.6 586.2 L 178.6 597.9 L 177.0 597.9 L 172.9 591.2 Q 172.4 590.4, 171.9 589.5 Q 171.4 588.5, 171.2 588.3 L 171.2 597.9 L 169.7 597.9 L 169.7 586.2 L 171.6 586.2 " fill="#000000"/>
<path class="atom-12" d="M 179.9 586.2 L 181.5 586.2 L 181.5 591.2 L 187.5 591.2 L 187.5 586.2 L 189.1 586.2 L 189.1 597.9 L 187.5 597.9 L 187.5 592.5 L 181.5 592.5 L 181.5 597.9 L 179.9 597.9 L 179.9 586.2 " fill="#000000"/>
<path class="atom-0" d="M 186.7,629.2 L 186.7,629.3 L 186.6,629.4 L 186.6,629.4 L 186.6,629.5 L 186.6,629.6 L 186.6,629.6 L 186.5,629.7 L 186.5,629.8 L 186.4,629.8 L 186.4,629.9 L 186.3,629.9 L 186.3,629.9 L 186.2,630.0 L 186.1,630.0 L 186.1,630.0 L 186.0,630.0 L 185.9,630.1 L 185.9,630.1 L 185.8,630.1 L 185.7,630.0 L 185.6,630.0 L 185.6,630.0 L 185.5,630.0 L 185.4,630.0 L 185.4,629.9 L 185.3,629.9 L 185.3,629.8 L 185.2,629.8 L 185.2,629.7 L 185.1,629.7 L 185.1,629.6 L 185.1,629.5 L 185.0,629.5 L 185.0,629.4 L 185.0,629.3 L 185.0,629.3 L 185.0,629.2 L 185.0,629.1 L 185.0,629.1 L 185.0,629.0 L 185.1,628.9 L 185.1,628.9 L 185.1,628.8 L 185.2,628.7 L 185.2,628.7 L 185.3,628.6 L 185.3,628.6 L 185.4,628.5 L 185.4,628.5 L 185.5,628.5 L 185.6,628.5 L 185.6,628.4 L 185.7,628.4 L 185.8,628.4 L 185.9,628.4 L 185.9,628.4 L 186.0,628.4 L 186.1,628.4 L 186.1,628.5 L 186.2,628.5 L 186.3,628.5 L 186.3,628.6 L 186.4,628.6 L 186.4,628.7 L 186.5,628.7 L 186.5,628.8 L 186.6,628.8 L 186.6,628.9 L 186.6,629.0 L 186.6,629.0 L 186.6,629.1 L 186.7,629.2 L 186.7,629.2 L 185.8,629.2 Z" style="fill:#000000;fill-rule:evenodd;fill-opacity:1;stroke:#000000;stroke-width:0.0px;stroke-linecap:butt;stroke-linejoin:miter;stroke-opacity:1;"/>
<path class="atom-11" d="M 134.8,575.7 L 134.8,575.7 L 134.8,575.8 L 134.7,575.9 L 134.7,576.0 L 134.7,576.0 L 134.7,576.1 L 134.6,576.1 L 134.6,576.2 L 134.5,576.3 L 134.5,576.3 L 134.4,576.3 L 134.4,576.4 L 134.3,576.4 L 134.2,576.4 L 134.2,576.5 L 134.1,576.5 L 134.0,576.5 L 134.0,576.5 L 133.9,576.5 L 133.8,576.5 L 133.7,576.5 L 133.7,576.5 L 133.6,576.4 L 133.5,576.4 L 133.5,576.4 L 133.4,576.3 L 133.4,576.3 L 133.3,576.2 L 133.3,576.2 L 133.2,576.1 L 133.2,576.1 L 133.2,576.0 L 133.2,575.9 L 133.1,575.9 L 133.1,575.8 L 133.1,575.7 L 133.1,575.6 L 133.1,575.6 L 133.1,575.5 L 133.2,575.4 L 133.2,575.4 L 133.2,575.3 L 133.2,575.2 L 133.3,575.2 L 133.3,575.1 L 133.4,575.1 L 133.4,575.0 L 133.5,575.0 L 133.5,574.9 L 133.6,574.9 L 133.7,574.9 L 133.7,574.9 L 133.8,574.9 L 133.9,574.9 L 134.0,574.8 L 134.0,574.9 L 134.1,574.9 L 134.2,574.9 L 134.2,574.9 L 134.3,574.9 L 134.4,575.0 L 134.4,575.0 L 134.5,575.0 L 134.5,575.1 L 134.6,575.2 L 134.6,575.2 L 134.7,575.3 L 134.7,575.3 L 134.7,575.4 L 134.7,575.5 L 134.8,575.5 L 134.8,575.6 L 134.8,575.7 L 133.9,575.7 Z" style="fill:#000000;fill-rule:evenodd;fill-opacity:1;stroke:#000000;stroke-width:0.0px;stroke-linecap:butt;stroke-linejoin:miter;stroke-opacity:1;"/>
<path class="bond-0 atom-0 atom-1" d="M 371.9,597.2 L 363.0,581.2" style="fill:none;fill-rule:evenodd;stroke:#000000;stroke-width:2.0px;stroke-linecap:butt;stroke-linejoin:miter;stroke-opacity:1"/>
<path class="bond-1 atom-1 atom-2" d="M 355.8,575.2 L 330.0,570.8" style="fill:none;fill-rule:evenodd;stroke:#000000;stroke-width:2.0px;stroke-linecap:butt;stroke-linejoin:miter;stroke-opacity:1"/>
<path class="bond-2 atom-2 atom-3" d="M 327.1,571.7 L 320.2,547.9" style="fill:none;fill-rule:evenodd;stroke:#000000;stroke-width:2.0px;stroke-linecap:butt;stroke-linejoin:miter;stroke-opacity:1"/>
<path class="bond-2 atom-2 atom-3" d="M 332.9,570.0 L 326.1,546.2" style="fill:none;fill-rule:evenodd;stroke:#000000;stroke-width:2.0px;stroke-linecap:butt;stroke-linejoin:miter;stroke-opacity:1"/>
<path class="bond-3 atom-2 atom-4" d="M 330.0,570.8 L 307.3,591.2" style="fill:none;fill-rule:evenodd;stroke:#000000;stroke-width:2.0px;stroke-linecap:butt;stroke-linejoin:miter;stroke-opacity:1"/>
<path class="bond-4 atom-4 atom-5" d="M 307.3,591.2 L 277.8,583.4" style="fill:none;fill-rule:evenodd;stroke:#000000;stroke-width:2.0px;stroke-linecap:butt;stroke-linejoin:miter;stroke-opacity:1"/>
<path class="bond-5 atom-5 atom-6" d="M 277.8,583.4 L 261.4,609.1" style="fill:none;fill-rule:evenodd;stroke:#000000;stroke-width:2.0px;stroke-linecap:butt;stroke-linejoin:miter;stroke-opacity:1"/>
<path class="bond-6 atom-6 atom-7" d="M 261.4,609.1 L 280.7,632.7" style="fill:none;fill-rule:evenodd;stroke:#000000;stroke-width:2.0px;stroke-linecap:butt;stroke-linejoin:miter;stroke-opacity:1"/>
<path class="bond-7 atom-7 atom-8" d="M 280.7,632.7 L 309.1,621.6" style="fill:none;fill-rule:evenodd;stroke:#000000;stroke-width:2.0px;stroke-linecap:butt;stroke-linejoin:miter;stroke-opacity:1"/>
<path class="bond-8 atom-8 atom-9" d="M 309.1,621.6 L 333.9,639.2" style="fill:none;fill-rule:evenodd;stroke:#000000;stroke-width:2.0px;stroke-linecap:butt;stroke-linejoin:miter;stroke-opacity:1"/>
<path class="bond-9 atom-9 atom-10" d="M 333.9,639.2 L 363.2,630.7" style="fill:none;fill-rule:evenodd;stroke:#000000;stroke-width:2.0px;stroke-linecap:butt;stroke-linejoin:miter;stroke-opacity:1"/>
<path class="bond-10 atom-10 atom-11" d="M 363.2,630.7 L 369.1,655.1" style="fill:none;fill-rule:evenodd;stroke:#000000;stroke-width:2.0px;stroke-linecap:butt;stroke-linejoin:miter;stroke-opacity:1"/>
<path class="bond-11 atom-11 atom-12" d="M 374.2,663.6 L 389.8,676.9" style="fill:none;fill-rule:evenodd;stroke:#000000;stroke-width:2.0px;stroke-linecap:butt;stroke-linejoin:miter;stroke-opacity:1"/>
<path class="bond-12 atom-12 atom-13" d="M 394.2,686.6 L 387.0,704.1" style="fill:none;fill-rule:evenodd;stroke:#000000;stroke-width:2.0px;stroke-linecap:butt;stroke-linejoin:miter;stroke-opacity:1"/>
<path class="bond-12 atom-12 atom-13" d="M 388.6,684.3 L 381.4,701.8" style="fill:none;fill-rule:evenodd;stroke:#000000;stroke-width:2.0px;stroke-linecap:butt;stroke-linejoin:miter;stroke-opacity:1"/>
<path class="bond-13 atom-12 atom-14" d="M 409.7,682.4 L 409.9,680.4" style="fill:none;fill-rule:evenodd;stroke:#000000;stroke-width:1.0px;stroke-linecap:butt;stroke-linejoin:miter;stroke-opacity:1"/>
<path class="bond-13 atom-12 atom-14" d="M 413.7,683.7 L 414.0,679.7" style="fill:none;fill-rule:evenodd;stroke:#000000;stroke-width:1.0px;stroke-linecap:butt;stroke-linejoin:miter;stroke-opacity:1"/>
<path class="bond-13 atom-12 atom-14" d="M 417.8,685.1 L 418.2,679.0" style="fill:none;fill-rule:evenodd;stroke:#000000;stroke-width:1.0px;stroke-linecap:butt;stroke-linejoin:miter;stroke-opacity:1"/>
<path class="bond-14 atom-14 atom-15" d="M 428.9,679.4 L 449.9,666.5" style="fill:none;fill-rule:evenodd;stroke:#000000;stroke-width:2.0px;stroke-linecap:butt;stroke-linejoin:miter;stroke-opacity:1"/>
<path class="bond-15 atom-15 atom-16" d="M 449.9,666.5 L 459.4,643.7" style="fill:none;fill-rule:evenodd;stroke:#000000;stroke-width:2.0px;stroke-linecap:butt;stroke-linejoin:miter;stroke-opacity:1"/>
<path class="bond-15 atom-15 atom-16" d="M 445.7,660.8 L 452.3,644.8" style="fill:none;fill-rule:evenodd;stroke:#000000;stroke-width:2.0px;stroke-linecap:butt;stroke-linejoin:miter;stroke-opacity:1"/>
<path class="bond-16 atom-16 atom-17" d="M 460.3,633.0 L 454.4,608.7" style="fill:none;fill-rule:evenodd;stroke:#000000;stroke-width:2.0px;stroke-linecap:butt;stroke-linejoin:miter;stroke-opacity:1"/>
<path class="bond-17 atom-17 atom-18" d="M 454.4,608.7 L 483.1,598.5" style="fill:none;fill-rule:evenodd;stroke:#000000;stroke-width:2.0px;stroke-linecap:butt;stroke-linejoin:miter;stroke-opacity:1"/>
<path class="bond-17 atom-17 atom-18" d="M 456.7,601.4 L 476.8,594.3" style="fill:none;fill-rule:evenodd;stroke:#000000;stroke-width:2.0px;stroke-linecap:butt;stroke-linejoin:miter;stroke-opacity:1"/>
<path class="bond-18 atom-18 atom-19" d="M 483.1,598.5 L 488.6,568.5" style="fill:none;fill-rule:evenodd;stroke:#000000;stroke-width:2.0px;stroke-linecap:butt;stroke-linejoin:miter;stroke-opacity:1"/>
<path class="bond-19 atom-19 atom-20" d="M 488.6,568.5 L 465.4,548.8" style="fill:none;fill-rule:evenodd;stroke:#000000;stroke-width:2.0px;stroke-linecap:butt;stroke-linejoin:miter;stroke-opacity:1"/>
<path class="bond-19 atom-19 atom-20" d="M 481.2,570.2 L 465.0,556.4" style="fill:none;fill-rule:evenodd;stroke:#000000;stroke-width:2.0px;stroke-linecap:butt;stroke-linejoin:miter;stroke-opacity:1"/>
<path class="bond-20 atom-20 atom-21" d="M 465.4,548.8 L 436.7,559.0" style="fill:none;fill-rule:evenodd;stroke:#000000;stroke-width:2.0px;stroke-linecap:butt;stroke-linejoin:miter;stroke-opacity:1"/>
<path class="bond-21 atom-21 atom-22" d="M 436.7,559.0 L 431.2,588.9" style="fill:none;fill-rule:evenodd;stroke:#000000;stroke-width:2.0px;stroke-linecap:butt;stroke-linejoin:miter;stroke-opacity:1"/>
<path class="bond-21 atom-21 atom-22" d="M 441.9,564.6 L 438.0,585.6" style="fill:none;fill-rule:evenodd;stroke:#000000;stroke-width:2.0px;stroke-linecap:butt;stroke-linejoin:miter;stroke-opacity:1"/>
<path class="bond-22 atom-22 atom-23" d="M 431.2,588.9 L 404.6,586.9" style="fill:none;fill-rule:evenodd;stroke:#000000;stroke-width:2.0px;stroke-linecap:butt;stroke-linejoin:miter;stroke-opacity:1"/>
<path class="bond-23 atom-23 atom-24" d="M 396.6,582.0 L 392.0,563.2" style="fill:none;fill-rule:evenodd;stroke:#000000;stroke-width:2.0px;stroke-linecap:butt;stroke-linejoin:miter;stroke-opacity:1"/>
<path class="bond-23 atom-23 atom-24" d="M 402.5,580.6 L 397.9,561.8" style="fill:none;fill-rule:evenodd;stroke:#000000;stroke-width:2.0px;stroke-linecap:butt;stroke-linejoin:miter;stroke-opacity:1"/>
<path class="bond-24 atom-10 atom-0" d="M 363.2,630.7 L 372.7,607.9" style="fill:none;fill-rule:evenodd;stroke:#000000;stroke-width:2.0px;stroke-linecap:butt;stroke-linejoin:miter;stroke-opacity:1"/>
<path class="bond-25 atom-23 atom-0" d="M 396.0,589.5 L 381.2,602.2 L 378.0,597.0 Z" style="fill:#000000;fill-rule:evenodd;fill-opacity:1;stroke:#000000;stroke-width:1.0px;stroke-linecap:butt;stroke-linejoin:miter;stroke-opacity:1;"/>
<path class="bond-26 atom-8 atom-4" d="M 309.1,621.6 L 307.3,591.2" style="fill:none;fill-rule:evenodd;stroke:#000000;stroke-width:2.0px;stroke-linecap:butt;stroke-linejoin:miter;stroke-opacity:1"/>
<path class="bond-27 atom-22 atom-17" d="M 431.2,588.9 L 454.4,608.7" style="fill:none;fill-rule:evenodd;stroke:#000000;stroke-width:2.0px;stroke-linecap:butt;stroke-linejoin:miter;stroke-opacity:1"/>
<path class="atom-0" d="M 374.6 598.2 Q 376.1 598.2, 376.9 598.9 Q 377.6 599.6, 377.6 600.8 Q 377.6 602.0, 376.8 602.7 Q 376.1 603.3, 374.6 603.3 L 373.3 603.3 L 373.3 606.9 L 372.1 606.9 L 372.1 598.2 L 374.6 598.2 M 374.6 602.4 Q 375.5 602.4, 375.9 602.0 Q 376.4 601.5, 376.4 600.8 Q 376.4 600.0, 375.9 599.6 Q 375.5 599.2, 374.6 599.2 L 373.3 599.2 L 373.3 602.4 L 374.6 602.4 " fill="#000000"/>
<path class="atom-1" d="M 358.2 571.6 L 361.0 576.2 Q 361.3 576.6, 361.7 577.4 Q 362.2 578.2, 362.2 578.3 L 362.2 571.6 L 363.3 571.6 L 363.3 580.2 L 362.2 580.2 L 359.1 575.2 Q 358.8 574.6, 358.4 574.0 Q 358.0 573.3, 357.9 573.1 L 357.9 580.2 L 356.8 580.2 L 356.8 571.6 L 358.2 571.6 " fill="#000000"/>
<path class="atom-1" d="M 364.4 571.6 L 365.5 571.6 L 365.5 575.3 L 369.9 575.3 L 369.9 571.6 L 371.1 571.6 L 371.1 580.2 L 369.9 580.2 L 369.9 576.2 L 365.5 576.2 L 365.5 580.2 L 364.4 580.2 L 364.4 571.6 " fill="#000000"/>
<path class="atom-3" d="M 317.6 541.6 Q 317.6 539.5, 318.6 538.4 Q 319.6 537.2, 321.5 537.2 Q 323.4 537.2, 324.5 538.4 Q 325.5 539.5, 325.5 541.6 Q 325.5 543.7, 324.5 544.9 Q 323.4 546.1, 321.5 546.1 Q 319.6 546.1, 318.6 544.9 Q 317.6 543.7, 317.6 541.6 M 321.5 545.1 Q 322.8 545.1, 323.6 544.2 Q 324.3 543.3, 324.3 541.6 Q 324.3 539.9, 323.6 539.0 Q 322.8 538.2, 321.5 538.2 Q 320.2 538.2, 319.5 539.0 Q 318.8 539.9, 318.8 541.6 Q 318.8 543.3, 319.5 544.2 Q 320.2 545.1, 321.5 545.1 " fill="#000000"/>
<path class="atom-11" d="M 367.9 663.3 Q 368.0 663.4, 368.4 663.5 Q 368.8 663.7, 369.3 663.8 Q 369.7 663.9, 370.2 663.9 Q 371.0 663.9, 371.5 663.5 Q 371.9 663.1, 371.9 662.4 Q 371.9 661.9, 371.7 661.7 Q 371.5 661.4, 371.1 661.2 Q 370.7 661.0, 370.1 660.9 Q 369.4 660.6, 368.9 660.4 Q 368.4 660.2, 368.1 659.7 Q 367.8 659.3, 367.8 658.5 Q 367.8 657.4, 368.5 656.7 Q 369.3 656.1, 370.7 656.1 Q 371.7 656.1, 372.9 656.5 L 372.6 657.5 Q 371.6 657.0, 370.8 657.0 Q 369.9 657.0, 369.5 657.4 Q 369.0 657.7, 369.0 658.3 Q 369.0 658.8, 369.2 659.1 Q 369.5 659.4, 369.8 659.5 Q 370.2 659.7, 370.8 659.9 Q 371.6 660.1, 372.0 660.4 Q 372.5 660.6, 372.8 661.1 Q 373.1 661.6, 373.1 662.4 Q 373.1 663.6, 372.3 664.3 Q 371.6 664.9, 370.2 664.9 Q 369.5 664.9, 368.9 664.7 Q 368.3 664.6, 367.6 664.3 L 367.9 663.3 " fill="#000000"/>
<path class="atom-11" d="M 373.7 657.5 L 375.2 657.5 L 375.2 655.9 L 375.9 655.9 L 375.9 657.5 L 377.5 657.5 L 377.5 658.1 L 375.9 658.1 L 375.9 659.7 L 375.2 659.7 L 375.2 658.1 L 373.7 658.1 L 373.7 657.5 " fill="#000000"/>
<path class="atom-12" d="M 393.4 675.8 Q 394.9 675.8, 395.6 676.5 Q 396.3 677.1, 396.3 678.3 Q 396.3 679.5, 395.6 680.2 Q 394.8 680.9, 393.4 680.9 L 392.0 680.9 L 392.0 684.4 L 390.8 684.4 L 390.8 675.8 L 393.4 675.8 M 393.4 679.9 Q 394.2 679.9, 394.7 679.5 Q 395.1 679.1, 395.1 678.3 Q 395.1 677.6, 394.7 677.2 Q 394.2 676.8, 393.4 676.8 L 392.0 676.8 L 392.0 679.9 L 393.4 679.9 " fill="#000000"/>
<path class="atom-12" d="M 396.9 675.8 L 398.1 675.8 L 398.1 679.5 L 402.5 679.5 L 402.5 675.8 L 403.7 675.8 L 403.7 684.4 L 402.5 684.4 L 402.5 680.5 L 398.1 680.5 L 398.1 684.4 L 396.9 684.4 L 396.9 675.8 " fill="#000000"/>
<path class="atom-13" d="M 378.0 708.3 Q 378.0 706.3, 379.0 705.1 Q 380.0 703.9, 382.0 703.9 Q 383.9 703.9, 384.9 705.1 Q 385.9 706.3, 385.9 708.3 Q 385.9 710.4, 384.9 711.6 Q 383.9 712.8, 382.0 712.8 Q 380.1 712.8, 379.0 711.6 Q 378.0 710.4, 378.0 708.3 M 382.0 711.8 Q 383.3 711.8, 384.0 710.9 Q 384.7 710.1, 384.7 708.3 Q 384.7 706.6, 384.0 705.8 Q 383.3 704.9, 382.0 704.9 Q 380.6 704.9, 379.9 705.8 Q 379.2 706.6, 379.2 708.3 Q 379.2 710.1, 379.9 710.9 Q 380.6 711.8, 382.0 711.8 " fill="#000000"/>
<path class="atom-14" d="M 420.0 682.5 Q 420.0 680.4, 421.0 679.3 Q 422.1 678.1, 424.0 678.1 Q 425.9 678.1, 426.9 679.3 Q 427.9 680.4, 427.9 682.5 Q 427.9 684.6, 426.9 685.8 Q 425.9 687.0, 424.0 687.0 Q 422.1 687.0, 421.0 685.8 Q 420.0 684.6, 420.0 682.5 M 424.0 686.0 Q 425.3 686.0, 426.0 685.1 Q 426.7 684.2, 426.7 682.5 Q 426.7 680.8, 426.0 680.0 Q 425.3 679.1, 424.0 679.1 Q 422.7 679.1, 421.9 679.9 Q 421.2 680.8, 421.2 682.5 Q 421.2 684.2, 421.9 685.1 Q 422.7 686.0, 424.0 686.0 " fill="#000000"/>
<path class="atom-16" d="M 459.7 634.0 L 462.5 638.6 Q 462.8 639.0, 463.2 639.9 Q 463.7 640.7, 463.7 640.7 L 463.7 634.0 L 464.8 634.0 L 464.8 642.7 L 463.7 642.7 L 460.6 637.7 Q 460.3 637.1, 459.9 636.4 Q 459.5 635.7, 459.4 635.5 L 459.4 642.7 L 458.3 642.7 L 458.3 634.0 L 459.7 634.0 " fill="#000000"/>
<path class="atom-23" d="M 398.4 589.6 Q 398.5 589.6, 398.9 589.8 Q 399.3 589.9, 399.7 590.0 Q 400.2 590.1, 400.6 590.1 Q 401.4 590.1, 401.9 589.8 Q 402.4 589.4, 402.4 588.7 Q 402.4 588.2, 402.1 587.9 Q 401.9 587.6, 401.5 587.4 Q 401.2 587.3, 400.6 587.1 Q 399.8 586.9, 399.3 586.6 Q 398.9 586.4, 398.5 586.0 Q 398.2 585.5, 398.2 584.7 Q 398.2 583.6, 399.0 583.0 Q 399.7 582.3, 401.2 582.3 Q 402.2 582.3, 403.3 582.8 L 403.0 583.7 Q 402.0 583.3, 401.2 583.3 Q 400.4 583.3, 399.9 583.6 Q 399.4 584.0, 399.4 584.6 Q 399.4 585.0, 399.7 585.3 Q 399.9 585.6, 400.3 585.8 Q 400.6 585.9, 401.2 586.1 Q 402.0 586.3, 402.4 586.6 Q 402.9 586.8, 403.2 587.3 Q 403.6 587.8, 403.6 588.7 Q 403.6 589.9, 402.8 590.5 Q 402.0 591.1, 400.7 591.1 Q 399.9 591.1, 399.3 591.0 Q 398.7 590.8, 398.0 590.5 L 398.4 589.6 " fill="#000000"/>
<path class="atom-24" d="M 389.7 557.0 Q 389.7 554.9, 390.7 553.8 Q 391.7 552.6, 393.7 552.6 Q 395.6 552.6, 396.6 553.8 Q 397.6 554.9, 397.6 557.0 Q 397.6 559.1, 396.6 560.3 Q 395.5 561.5, 393.7 561.5 Q 391.8 561.5, 390.7 560.3 Q 389.7 559.1, 389.7 557.0 M 393.7 560.5 Q 395.0 560.5, 395.7 559.6 Q 396.4 558.7, 396.4 557.0 Q 396.4 555.3, 395.7 554.4 Q 395.0 553.6, 393.7 553.6 Q 392.3 553.6, 391.6 554.4 Q 390.9 555.3, 390.9 557.0 Q 390.9 558.7, 391.6 559.6 Q 392.3 560.5, 393.7 560.5 " fill="#000000"/>
<path class="atom-11" d="M 366.4,660.4 L 366.4,660.4 L 366.4,660.5 L 366.4,660.5 L 366.4,660.6 L 366.3,660.6 L 366.3,660.7 L 366.3,660.7 L 366.3,660.8 L 366.2,660.8 L 366.2,660.8 L 366.1,660.9 L 366.1,660.9 L 366.1,660.9 L 366.0,660.9 L 366.0,660.9 L 365.9,661.0 L 365.8,661.0 L 365.8,661.0 L 365.7,661.0 L 365.7,661.0 L 365.6,661.0 L 365.6,660.9 L 365.5,660.9 L 365.5,660.9 L 365.4,660.9 L 365.4,660.8 L 365.4,660.8 L 365.3,660.8 L 365.3,660.7 L 365.3,660.7 L 365.2,660.6 L 365.2,660.6 L 365.2,660.5 L 365.2,660.5 L 365.2,660.4 L 365.2,660.4 L 365.2,660.3 L 365.2,660.3 L 365.2,660.2 L 365.2,660.2 L 365.2,660.1 L 365.2,660.1 L 365.3,660.0 L 365.3,660.0 L 365.3,660.0 L 365.4,659.9 L 365.4,659.9 L 365.4,659.9 L 365.5,659.8 L 365.5,659.8 L 365.6,659.8 L 365.6,659.8 L 365.7,659.8 L 365.7,659.8 L 365.8,659.8 L 365.8,659.8 L 365.9,659.8 L 366.0,659.8 L 366.0,659.8 L 366.1,659.8 L 366.1,659.8 L 366.1,659.9 L 366.2,659.9 L 366.2,659.9 L 366.3,660.0 L 366.3,660.0 L 366.3,660.1 L 366.3,660.1 L 366.4,660.2 L 366.4,660.2 L 366.4,660.3 L 366.4,660.3 L 366.4,660.4 L 365.8,660.4 Z" style="fill:#000000;fill-rule:evenodd;fill-opacity:1;stroke:#000000;stroke-width:0.0px;stroke-linecap:butt;stroke-linejoin:miter;stroke-opacity:1;"/>
<path class="bond-0 atom-0 atom-1" d="M 701.5,696.1 L 645.4,663.7" style="fill:none;fill-rule:evenodd;stroke:#000000;stroke-width:2.0px;stroke-linecap:butt;stroke-linejoin:miter;stroke-opacity:1"/>
<path class="bond-1 atom-1 atom-2" d="M 645.4,663.7 L 578.4,702.4" style="fill:none;fill-rule:evenodd;stroke:#000000;stroke-width:2.0px;stroke-linecap:butt;stroke-linejoin:miter;stroke-opacity:1"/>
<path class="bond-2 atom-2 atom-3" d="M 578.4,702.4 L 511.4,663.7" style="fill:none;fill-rule:evenodd;stroke:#000000;stroke-width:2.0px;stroke-linecap:butt;stroke-linejoin:miter;stroke-opacity:1"/>
<path class="bond-3 atom-3 atom-4" d="M 511.4,663.7 L 511.4,586.3" style="fill:none;fill-rule:evenodd;stroke:#000000;stroke-width:2.0px;stroke-linecap:butt;stroke-linejoin:miter;stroke-opacity:1"/>
<path class="bond-4 atom-4 atom-5" d="M 511.4,586.3 L 578.4,547.6" style="fill:none;fill-rule:evenodd;stroke:#000000;stroke-width:2.0px;stroke-linecap:butt;stroke-linejoin:miter;stroke-opacity:1"/>
<path class="bond-5 atom-5 atom-6" d="M 578.4,547.6 L 645.4,586.3" style="fill:none;fill-rule:evenodd;stroke:#000000;stroke-width:2.0px;stroke-linecap:butt;stroke-linejoin:miter;stroke-opacity:1"/>
<path class="bond-6 atom-6 atom-7" d="M 645.4,586.3 L 703.3,552.9" style="fill:none;fill-rule:evenodd;stroke:#000000;stroke-width:2.0px;stroke-linecap:butt;stroke-linejoin:miter;stroke-opacity:1"/>
<path class="bond-7 atom-6 atom-1" d="M 645.4,586.3 L 645.4,663.7" style="fill:none;fill-rule:evenodd;stroke:#000000;stroke-width:2.0px;stroke-linecap:butt;stroke-linejoin:miter;stroke-opacity:1"/>
<path class="atom-0" d="M 707.6 691.4 L 714.7 703.0 Q 715.5 704.2, 716.6 706.3 Q 717.8 708.3, 717.8 708.5 L 717.8 691.4 L 720.7 691.4 L 720.7 713.3 L 717.7 713.3 L 710.0 700.7 Q 709.1 699.2, 708.2 697.5 Q 707.2 695.8, 706.9 695.2 L 706.9 713.3 L 704.1 713.3 L 704.1 691.4 L 707.6 691.4 " fill="#000000"/>
<path class="atom-0" d="M 723.3 695.4 L 727.2 695.4 L 727.2 691.3 L 728.9 691.3 L 728.9 695.4 L 732.8 695.4 L 732.8 696.8 L 728.9 696.8 L 728.9 700.9 L 727.2 700.9 L 727.2 696.8 L 723.3 696.8 L 723.3 695.4 " fill="#000000"/>
<path class="atom-7" d="M 705.9 536.7 L 718.9 536.7 L 718.9 539.2 L 708.8 539.2 L 708.8 545.8 L 717.8 545.8 L 717.8 548.4 L 708.8 548.4 L 708.8 558.6 L 705.9 558.6 L 705.9 536.7 " fill="#000000"/>
<path class="atom-0" d="M 739.0,694.6 L 739.0,694.8 L 739.0,694.9 L 739.0,695.0 L 738.9,695.2 L 738.9,695.3 L 738.8,695.4 L 738.8,695.5 L 738.7,695.6 L 738.6,695.7 L 738.5,695.8 L 738.4,695.9 L 738.3,696.0 L 738.2,696.0 L 738.0,696.1 L 737.9,696.1 L 737.8,696.2 L 737.6,696.2 L 737.5,696.2 L 737.4,696.2 L 737.2,696.2 L 737.1,696.1 L 737.0,696.1 L 736.9,696.1 L 736.7,696.0 L 736.6,695.9 L 736.5,695.9 L 736.4,695.8 L 736.3,695.7 L 736.2,695.6 L 736.2,695.5 L 736.1,695.4 L 736.0,695.2 L 736.0,695.1 L 736.0,695.0 L 735.9,694.8 L 735.9,694.7 L 735.9,694.6 L 735.9,694.4 L 736.0,694.3 L 736.0,694.2 L 736.0,694.1 L 736.1,693.9 L 736.2,693.8 L 736.2,693.7 L 736.3,693.6 L 736.4,693.5 L 736.5,693.4 L 736.6,693.4 L 736.7,693.3 L 736.9,693.2 L 737.0,693.2 L 737.1,693.1 L 737.2,693.1 L 737.4,693.1 L 737.5,693.1 L 737.6,693.1 L 737.8,693.1 L 737.9,693.2 L 738.0,693.2 L 738.2,693.3 L 738.3,693.3 L 738.4,693.4 L 738.5,693.5 L 738.6,693.6 L 738.7,693.7 L 738.8,693.8 L 738.8,693.9 L 738.9,694.0 L 738.9,694.1 L 739.0,694.2 L 739.0,694.4 L 739.0,694.5 L 739.0,694.6 L 737.5,694.6 Z" style="fill:#000000;fill-rule:evenodd;fill-opacity:1;stroke:#000000;stroke-width:0.0px;stroke-linecap:butt;stroke-linejoin:miter;stroke-opacity:1;"/>
<path class="atom-0" d="M 739.0,710.1 L 739.0,710.3 L 739.0,710.4 L 739.0,710.5 L 738.9,710.6 L 738.9,710.8 L 738.8,710.9 L 738.8,711.0 L 738.7,711.1 L 738.6,711.2 L 738.5,711.3 L 738.4,711.4 L 738.3,711.5 L 738.2,711.5 L 738.0,711.6 L 737.9,711.6 L 737.8,711.6 L 737.6,711.7 L 737.5,711.7 L 737.4,711.7 L 737.2,711.7 L 737.1,711.6 L 737.0,711.6 L 736.9,711.5 L 736.7,711.5 L 736.6,711.4 L 736.5,711.3 L 736.4,711.3 L 736.3,711.2 L 736.2,711.1 L 736.2,710.9 L 736.1,710.8 L 736.0,710.7 L 736.0,710.6 L 736.0,710.5 L 735.9,710.3 L 735.9,710.2 L 735.9,710.1 L 735.9,709.9 L 736.0,709.8 L 736.0,709.7 L 736.0,709.5 L 736.1,709.4 L 736.2,709.3 L 736.2,709.2 L 736.3,709.1 L 736.4,709.0 L 736.5,708.9 L 736.6,708.8 L 736.7,708.8 L 736.9,708.7 L 737.0,708.7 L 737.1,708.6 L 737.2,708.6 L 737.4,708.6 L 737.5,708.6 L 737.6,708.6 L 737.8,708.6 L 737.9,708.6 L 738.0,708.7 L 738.2,708.7 L 738.3,708.8 L 738.4,708.9 L 738.5,708.9 L 738.6,709.0 L 738.7,709.1 L 738.8,709.2 L 738.8,709.4 L 738.9,709.5 L 738.9,709.6 L 739.0,709.7 L 739.0,709.9 L 739.0,710.0 L 739.0,710.1 L 737.5,710.1 Z" style="fill:#000000;fill-rule:evenodd;fill-opacity:1;stroke:#000000;stroke-width:0.0px;stroke-linecap:butt;stroke-linejoin:miter;stroke-opacity:1;"/>
<path class="atom-0" d="M 739.0,702.4 L 739.0,702.5 L 739.0,702.6 L 739.0,702.8 L 738.9,702.9 L 738.9,703.0 L 738.8,703.1 L 738.8,703.3 L 738.7,703.4 L 738.6,703.5 L 738.5,703.6 L 738.4,703.6 L 738.3,703.7 L 738.2,703.8 L 738.0,703.8 L 737.9,703.9 L 737.8,703.9 L 737.6,703.9 L 737.5,703.9 L 737.4,703.9 L 737.2,703.9 L 737.1,703.9 L 737.0,703.9 L 736.9,703.8 L 736.7,703.7 L 736.6,703.7 L 736.5,703.6 L 736.4,703.5 L 736.3,703.4 L 736.2,703.3 L 736.2,703.2 L 736.1,703.1 L 736.0,703.0 L 736.0,702.8 L 736.0,702.7 L 735.9,702.6 L 735.9,702.5 L 735.9,702.3 L 735.9,702.2 L 736.0,702.1 L 736.0,701.9 L 736.0,701.8 L 736.1,701.7 L 736.2,701.6 L 736.2,701.5 L 736.3,701.3 L 736.4,701.3 L 736.5,701.2 L 736.6,701.1 L 736.7,701.0 L 736.9,701.0 L 737.0,700.9 L 737.1,700.9 L 737.2,700.9 L 737.4,700.8 L 737.5,700.8 L 737.6,700.8 L 737.8,700.9 L 737.9,700.9 L 738.0,700.9 L 738.2,701.0 L 738.3,701.1 L 738.4,701.1 L 738.5,701.2 L 738.6,701.3 L 738.7,701.4 L 738.8,701.5 L 738.8,701.6 L 738.9,701.7 L 738.9,701.9 L 739.0,702.0 L 739.0,702.1 L 739.0,702.3 L 739.0,702.4 L 737.5,702.4 Z" style="fill:#000000;fill-rule:evenodd;fill-opacity:1;stroke:#000000;stroke-width:0.0px;stroke-linecap:butt;stroke-linejoin:miter;stroke-opacity:1;"/>
</svg>