<svg xmlns="http://www.w3.org/2000/svg" xmlns:rdkit="http://www.rdkit.org/xml" xmlns:xlink="http://www.w3.org/1999/xlink" version="1.1" baseProfile="full" xml:space="preserve" width="750px" height="750px" viewBox="0 0 750 750">
<!-- END OF HEADER -->
<rect style="opacity:1.0;fill:#FFFFFF;stroke:none" width="750.0" height="750.0" x="0.0" y="0.0"> </rect>
<path class="bond-0 atom-0 atom-1" d="M 73.5,124.8 L 194.0,124.8" style="fill:none;fill-rule:evenodd;stroke:#000000;stroke-width:2.0px;stroke-linecap:butt;stroke-linejoin:miter;stroke-opacity:1"/>
<path class="atom-0" d="M 35.2 110.7 L 44.5 125.7 Q 45.4 127.1, 46.9 129.8 Q 48.4 132.5, 48.5 132.7 L 48.5 110.7 L 52.2 110.7 L 52.2 139.0 L 48.4 139.0 L 38.4 122.6 Q 37.2 120.7, 36.0 118.5 Q 34.8 116.3, 34.4 115.6 L 34.4 139.0 L 30.8 139.0 L 30.8 110.7 L 35.2 110.7 " fill="#000000"/>
<path class="atom-0" d="M 55.6 115.8 L 60.5 115.8 L 60.5 110.5 L 62.8 110.5 L 62.8 115.8 L 67.9 115.8 L 67.9 117.7 L 62.8 117.7 L 62.8 122.9 L 60.5 122.9 L 60.5 117.7 L 55.6 117.7 L 55.6 115.8 " fill="#000000"/>
<path class="atom-1" d="M 199.6 125.8 Q 199.6 118.8, 202.9 115.1 Q 206.2 111.4, 212.5 111.4 Q 218.3 111.4, 221.5 115.5 L 218.8 117.6 Q 216.5 114.6, 212.5 114.6 Q 208.2 114.6, 205.9 117.5 Q 203.7 120.4, 203.7 125.8 Q 203.7 131.4, 206.0 134.3 Q 208.4 137.2, 212.9 137.2 Q 216.1 137.2, 219.7 135.3 L 220.8 138.3 Q 219.3 139.2, 217.1 139.8 Q 214.9 140.4, 212.4 140.4 Q 206.2 140.4, 202.9 136.6 Q 199.6 132.8, 199.6 125.8 " fill="#000000"/>
<path class="atom-1" d="M 223.1 109.6 L 226.7 109.6 L 226.7 140.0 L 223.1 140.0 L 223.1 109.6 " fill="#000000"/>
<path class="atom-0" d="M 26.8,119.7 L 26.7,119.9 L 26.7,120.1 L 26.7,120.2 L 26.6,120.4 L 26.6,120.6 L 26.5,120.7 L 26.4,120.9 L 26.3,121.0 L 26.2,121.1 L 26.1,121.2 L 25.9,121.3 L 25.8,121.4 L 25.6,121.5 L 25.5,121.6 L 25.3,121.6 L 25.1,121.7 L 25.0,121.7 L 24.8,121.7 L 24.6,121.7 L 24.5,121.7 L 24.3,121.7 L 24.1,121.6 L 24.0,121.6 L 23.8,121.5 L 23.7,121.4 L 23.5,121.3 L 23.4,121.2 L 23.3,121.1 L 23.2,120.9 L 23.1,120.8 L 23.0,120.6 L 22.9,120.5 L 22.8,120.3 L 22.8,120.1 L 22.8,120.0 L 22.8,119.8 L 22.8,119.6 L 22.8,119.5 L 22.8,119.3 L 22.8,119.1 L 22.9,119.0 L 23.0,118.8 L 23.1,118.7 L 23.2,118.5 L 23.3,118.4 L 23.4,118.3 L 23.5,118.2 L 23.7,118.0 L 23.8,118.0 L 24.0,117.9 L 24.1,117.8 L 24.3,117.8 L 24.5,117.7 L 24.6,117.7 L 24.8,117.7 L 25.0,117.7 L 25.1,117.8 L 25.3,117.8 L 25.5,117.9 L 25.6,117.9 L 25.8,118.0 L 25.9,118.1 L 26.1,118.2 L 26.2,118.3 L 26.3,118.5 L 26.4,118.6 L 26.5,118.7 L 26.6,118.9 L 26.6,119.0 L 26.7,119.2 L 26.7,119.4 L 26.7,119.5 L 26.8,119.7 L 24.8,119.7 Z" style="fill:#000000;fill-rule:evenodd;fill-opacity:1;stroke:#000000;stroke-width:0.0px;stroke-linecap:butt;stroke-linejoin:miter;stroke-opacity:1;"/>
<path class="atom-0" d="M 26.8,129.9 L 26.7,130.1 L 26.7,130.3 L 26.7,130.4 L 26.6,130.6 L 26.6,130.8 L 26.5,130.9 L 26.4,131.1 L 26.3,131.2 L 26.2,131.3 L 26.1,131.4 L 25.9,131.5 L 25.8,131.6 L 25.6,131.7 L 25.5,131.8 L 25.3,131.8 L 25.1,131.9 L 25.0,131.9 L 24.8,131.9 L 24.6,131.9 L 24.5,131.9 L 24.3,131.9 L 24.1,131.8 L 24.0,131.8 L 23.8,131.7 L 23.7,131.6 L 23.5,131.5 L 23.4,131.4 L 23.3,131.3 L 23.2,131.1 L 23.1,131.0 L 23.0,130.8 L 22.9,130.7 L 22.8,130.5 L 22.8,130.3 L 22.8,130.2 L 22.8,130.0 L 22.8,129.8 L 22.8,129.7 L 22.8,129.5 L 22.8,129.3 L 22.9,129.2 L 23.0,129.0 L 23.1,128.9 L 23.2,128.7 L 23.3,128.6 L 23.4,128.5 L 23.5,128.3 L 23.7,128.2 L 23.8,128.2 L 24.0,128.1 L 24.1,128.0 L 24.3,128.0 L 24.5,127.9 L 24.6,127.9 L 24.8,127.9 L 25.0,127.9 L 25.1,128.0 L 25.3,128.0 L 25.5,128.1 L 25.6,128.1 L 25.8,128.2 L 25.9,128.3 L 26.1,128.4 L 26.2,128.5 L 26.3,128.6 L 26.4,128.8 L 26.5,128.9 L 26.6,129.1 L 26.6,129.2 L 26.7,129.4 L 26.7,129.6 L 26.7,129.7 L 26.8,129.9 L 24.8,129.9 Z" style="fill:#000000;fill-rule:evenodd;fill-opacity:1;stroke:#000000;stroke-width:0.0px;stroke-linecap:butt;stroke-linejoin:miter;stroke-opacity:1;"/>
<path class="atom-0" d="M 26.8,124.8 L 26.7,125.0 L 26.7,125.2 L 26.7,125.3 L 26.6,125.5 L 26.6,125.7 L 26.5,125.8 L 26.4,126.0 L 26.3,126.1 L 26.2,126.2 L 26.1,126.3 L 25.9,126.4 L 25.8,126.5 L 25.6,126.6 L 25.5,126.7 L 25.3,126.7 L 25.1,126.8 L 25.0,126.8 L 24.8,126.8 L 24.6,126.8 L 24.5,126.8 L 24.3,126.8 L 24.1,126.7 L 24.0,126.7 L 23.8,126.6 L 23.7,126.5 L 23.5,126.4 L 23.4,126.3 L 23.3,126.2 L 23.2,126.0 L 23.1,125.9 L 23.0,125.7 L 22.9,125.6 L 22.8,125.4 L 22.8,125.2 L 22.8,125.1 L 22.8,124.9 L 22.8,124.7 L 22.8,124.6 L 22.8,124.4 L 22.8,124.2 L 22.9,124.1 L 23.0,123.9 L 23.1,123.8 L 23.2,123.6 L 23.3,123.5 L 23.4,123.4 L 23.5,123.2 L 23.7,123.1 L 23.8,123.1 L 24.0,123.0 L 24.1,122.9 L 24.3,122.9 L 24.5,122.8 L 24.6,122.8 L 24.8,122.8 L 25.0,122.8 L 25.1,122.9 L 25.3,122.9 L 25.5,123.0 L 25.6,123.0 L 25.8,123.1 L 25.9,123.2 L 26.1,123.3 L 26.2,123.4 L 26.3,123.5 L 26.4,123.7 L 26.5,123.8 L 26.6,124.0 L 26.6,124.1 L 26.7,124.3 L 26.7,124.5 L 26.7,124.6 L 26.8,124.8 L 24.8,124.8 Z" style="fill:#000000;fill-rule:evenodd;fill-opacity:1;stroke:#000000;stroke-width:0.0px;stroke-linecap:butt;stroke-linejoin:miter;stroke-opacity:1;"/>
<path class="bond-0 atom-0 atom-1" d="M 303.5,130.9 L 344.5,154.6" style="fill:none;fill-rule:evenodd;stroke:#000000;stroke-width:2.0px;stroke-linecap:butt;stroke-linejoin:miter;stroke-opacity:1"/>
<path class="bond-1 atom-1 atom-2" d="M 368.2,154.6 L 419.4,125.0" style="fill:none;fill-rule:evenodd;stroke:#000000;stroke-width:2.0px;stroke-linecap:butt;stroke-linejoin:miter;stroke-opacity:1"/>
<path class="bond-2 atom-2 atom-3" d="M 419.4,125.0 L 474.0,93.5" style="fill:none;fill-rule:evenodd;stroke:#000000;stroke-width:2.0px;stroke-linecap:butt;stroke-linejoin:miter;stroke-opacity:1"/>
<path class="bond-3 atom-2 atom-4" d="M 419.4,125.0 L 448.5,175.4" style="fill:none;fill-rule:evenodd;stroke:#000000;stroke-width:2.0px;stroke-linecap:butt;stroke-linejoin:miter;stroke-opacity:1"/>
<path class="bond-4 atom-2 atom-5" d="M 419.4,125.0 L 390.3,74.6" style="fill:none;fill-rule:evenodd;stroke:#000000;stroke-width:2.0px;stroke-linecap:butt;stroke-linejoin:miter;stroke-opacity:1"/>
<path class="atom-0" d="M 266.8 114.7 L 269.6 114.7 L 269.6 123.5 L 280.2 123.5 L 280.2 114.7 L 283.0 114.7 L 283.0 135.3 L 280.2 135.3 L 280.2 125.8 L 269.6 125.8 L 269.6 135.3 L 266.8 135.3 L 266.8 114.7 " fill="#000000"/>
<path class="atom-0" d="M 288.7 114.7 L 295.5 125.6 Q 296.1 126.7, 297.2 128.6 Q 298.3 130.6, 298.4 130.7 L 298.4 114.7 L 301.1 114.7 L 301.1 135.3 L 298.3 135.3 L 291.0 123.4 Q 290.2 122.0, 289.3 120.4 Q 288.4 118.8, 288.1 118.3 L 288.1 135.3 L 285.4 135.3 L 285.4 114.7 L 288.7 114.7 " fill="#000000"/>
<path class="atom-0" d="M 303.5 118.4 L 307.1 118.4 L 307.1 114.6 L 308.8 114.6 L 308.8 118.4 L 312.5 118.4 L 312.5 119.8 L 308.8 119.8 L 308.8 123.6 L 307.1 123.6 L 307.1 119.8 L 303.5 119.8 L 303.5 118.4 " fill="#000000"/>
<path class="atom-1" d="M 346.9 161.5 Q 346.9 156.5, 349.3 153.8 Q 351.8 151.0, 356.3 151.0 Q 360.9 151.0, 363.4 153.8 Q 365.8 156.5, 365.8 161.5 Q 365.8 166.5, 363.3 169.3 Q 360.9 172.2, 356.3 172.2 Q 351.8 172.2, 349.3 169.3 Q 346.9 166.5, 346.9 161.5 M 356.3 169.8 Q 359.5 169.8, 361.2 167.7 Q 362.9 165.6, 362.9 161.5 Q 362.9 157.4, 361.2 155.4 Q 359.5 153.3, 356.3 153.3 Q 353.2 153.3, 351.5 155.4 Q 349.8 157.4, 349.8 161.5 Q 349.8 165.6, 351.5 167.7 Q 353.2 169.8, 356.3 169.8 " fill="#000000"/>
<path class="atom-3" d="M 476.4 78.3 L 488.6 78.3 L 488.6 80.6 L 479.1 80.6 L 479.1 86.9 L 487.6 86.9 L 487.6 89.3 L 479.1 89.3 L 479.1 98.9 L 476.4 98.9 L 476.4 78.3 " fill="#000000"/>
<path class="atom-4" d="M 449.7 177.8 L 462.0 177.8 L 462.0 180.1 L 452.5 180.1 L 452.5 186.4 L 460.9 186.4 L 460.9 188.8 L 452.5 188.8 L 452.5 198.4 L 449.7 198.4 L 449.7 177.8 " fill="#000000"/>
<path class="atom-5" d="M 376.9 51.6 L 389.1 51.6 L 389.1 54.0 L 379.6 54.0 L 379.6 60.2 L 388.1 60.2 L 388.1 62.6 L 379.6 62.6 L 379.6 72.2 L 376.9 72.2 L 376.9 51.6 " fill="#000000"/>
<path class="atom-0" d="M 263.9,127.9 L 263.9,128.0 L 263.9,128.2 L 263.9,128.3 L 263.8,128.4 L 263.8,128.5 L 263.7,128.6 L 263.7,128.7 L 263.6,128.8 L 263.5,128.9 L 263.4,129.0 L 263.3,129.1 L 263.2,129.2 L 263.1,129.2 L 263.0,129.3 L 262.9,129.3 L 262.7,129.3 L 262.6,129.4 L 262.5,129.4 L 262.4,129.4 L 262.2,129.4 L 262.1,129.3 L 262.0,129.3 L 261.9,129.3 L 261.8,129.2 L 261.7,129.1 L 261.6,129.1 L 261.5,129.0 L 261.4,128.9 L 261.3,128.8 L 261.2,128.7 L 261.2,128.6 L 261.1,128.5 L 261.1,128.3 L 261.0,128.2 L 261.0,128.1 L 261.0,128.0 L 261.0,127.9 L 261.0,127.7 L 261.0,127.6 L 261.1,127.5 L 261.1,127.4 L 261.2,127.2 L 261.2,127.1 L 261.3,127.0 L 261.4,126.9 L 261.5,126.9 L 261.6,126.8 L 261.7,126.7 L 261.8,126.6 L 261.9,126.6 L 262.0,126.5 L 262.1,126.5 L 262.2,126.5 L 262.4,126.5 L 262.5,126.5 L 262.6,126.5 L 262.7,126.5 L 262.9,126.5 L 263.0,126.6 L 263.1,126.6 L 263.2,126.7 L 263.3,126.7 L 263.4,126.8 L 263.5,126.9 L 263.6,127.0 L 263.7,127.1 L 263.7,127.2 L 263.8,127.3 L 263.8,127.4 L 263.9,127.5 L 263.9,127.7 L 263.9,127.8 L 263.9,127.9 L 262.5,127.9 Z" style="fill:#000000;fill-rule:evenodd;fill-opacity:1;stroke:#000000;stroke-width:0.0px;stroke-linecap:butt;stroke-linejoin:miter;stroke-opacity:1;"/>
<path class="atom-0" d="M 263.9,122.1 L 263.9,122.2 L 263.9,122.3 L 263.9,122.5 L 263.8,122.6 L 263.8,122.7 L 263.7,122.8 L 263.7,122.9 L 263.6,123.0 L 263.5,123.1 L 263.4,123.2 L 263.3,123.3 L 263.2,123.3 L 263.1,123.4 L 263.0,123.4 L 262.9,123.5 L 262.7,123.5 L 262.6,123.5 L 262.5,123.5 L 262.4,123.5 L 262.2,123.5 L 262.1,123.5 L 262.0,123.5 L 261.9,123.4 L 261.8,123.4 L 261.7,123.3 L 261.6,123.2 L 261.5,123.1 L 261.4,123.1 L 261.3,123.0 L 261.2,122.9 L 261.2,122.8 L 261.1,122.6 L 261.1,122.5 L 261.0,122.4 L 261.0,122.3 L 261.0,122.1 L 261.0,122.0 L 261.0,121.9 L 261.0,121.8 L 261.1,121.7 L 261.1,121.5 L 261.2,121.4 L 261.2,121.3 L 261.3,121.2 L 261.4,121.1 L 261.5,121.0 L 261.6,120.9 L 261.7,120.9 L 261.8,120.8 L 261.9,120.7 L 262.0,120.7 L 262.1,120.7 L 262.2,120.6 L 262.4,120.6 L 262.5,120.6 L 262.6,120.6 L 262.7,120.7 L 262.9,120.7 L 263.0,120.7 L 263.1,120.8 L 263.2,120.8 L 263.3,120.9 L 263.4,121.0 L 263.5,121.1 L 263.6,121.2 L 263.7,121.3 L 263.7,121.4 L 263.8,121.5 L 263.8,121.6 L 263.9,121.7 L 263.9,121.8 L 263.9,122.0 L 263.9,122.1 L 262.5,122.1 Z" style="fill:#000000;fill-rule:evenodd;fill-opacity:1;stroke:#000000;stroke-width:0.0px;stroke-linecap:butt;stroke-linejoin:miter;stroke-opacity:1;"/>
<path class="bond-0 atom-0 atom-1" d="M 527.7,146.4 L 546.8,154.3" style="fill:none;fill-rule:evenodd;stroke:#000000;stroke-width:2.0px;stroke-linecap:butt;stroke-linejoin:miter;stroke-opacity:1"/>
<path class="bond-1 atom-1 atom-2" d="M 546.8,154.3 L 566.7,139.1" style="fill:none;fill-rule:evenodd;stroke:#000000;stroke-width:2.0px;stroke-linecap:butt;stroke-linejoin:miter;stroke-opacity:1"/>
<path class="bond-1 atom-1 atom-2" d="M 546.7,148.1 L 560.6,137.4" style="fill:none;fill-rule:evenodd;stroke:#000000;stroke-width:2.0px;stroke-linecap:butt;stroke-linejoin:miter;stroke-opacity:1"/>
<path class="bond-2 atom-2 atom-3" d="M 566.7,139.1 L 589.8,148.7" style="fill:none;fill-rule:evenodd;stroke:#000000;stroke-width:2.0px;stroke-linecap:butt;stroke-linejoin:miter;stroke-opacity:1"/>
<path class="bond-3 atom-3 atom-4" d="M 589.8,148.7 L 609.7,133.5" style="fill:none;fill-rule:evenodd;stroke:#000000;stroke-width:2.0px;stroke-linecap:butt;stroke-linejoin:miter;stroke-opacity:1"/>
<path class="bond-3 atom-3 atom-4" d="M 589.7,142.5 L 603.6,131.8" style="fill:none;fill-rule:evenodd;stroke:#000000;stroke-width:2.0px;stroke-linecap:butt;stroke-linejoin:miter;stroke-opacity:1"/>
<path class="bond-4 atom-4 atom-5" d="M 609.7,133.5 L 629.2,141.7" style="fill:none;fill-rule:evenodd;stroke:#000000;stroke-width:2.0px;stroke-linecap:butt;stroke-linejoin:miter;stroke-opacity:1"/>
<path class="bond-5 atom-5 atom-6" d="M 636.3,140.5 L 652.6,128.0" style="fill:none;fill-rule:evenodd;stroke:#000000;stroke-width:2.0px;stroke-linecap:butt;stroke-linejoin:miter;stroke-opacity:1"/>
<path class="bond-6 atom-6 atom-7" d="M 650.2,128.3 L 647.5,108.0" style="fill:none;fill-rule:evenodd;stroke:#000000;stroke-width:2.0px;stroke-linecap:butt;stroke-linejoin:miter;stroke-opacity:1"/>
<path class="bond-6 atom-6 atom-7" d="M 655.1,127.6 L 652.5,107.3" style="fill:none;fill-rule:evenodd;stroke:#000000;stroke-width:2.0px;stroke-linecap:butt;stroke-linejoin:miter;stroke-opacity:1"/>
<path class="bond-7 atom-6 atom-8" d="M 652.6,128.0 L 675.8,137.6" style="fill:none;fill-rule:evenodd;stroke:#000000;stroke-width:2.0px;stroke-linecap:butt;stroke-linejoin:miter;stroke-opacity:1"/>
<path class="bond-8 atom-8 atom-9" d="M 675.8,144.2 L 677.4,144.0" style="fill:none;fill-rule:evenodd;stroke:#000000;stroke-width:1.0px;stroke-linecap:butt;stroke-linejoin:miter;stroke-opacity:1"/>
<path class="bond-8 atom-8 atom-9" d="M 675.8,150.9 L 679.1,150.4" style="fill:none;fill-rule:evenodd;stroke:#000000;stroke-width:1.0px;stroke-linecap:butt;stroke-linejoin:miter;stroke-opacity:1"/>
<path class="bond-8 atom-8 atom-9" d="M 675.8,157.5 L 680.8,156.9" style="fill:none;fill-rule:evenodd;stroke:#000000;stroke-width:1.0px;stroke-linecap:butt;stroke-linejoin:miter;stroke-opacity:1"/>
<path class="bond-9 atom-8 atom-10" d="M 675.8,137.6 L 695.6,122.4" style="fill:none;fill-rule:evenodd;stroke:#000000;stroke-width:2.0px;stroke-linecap:butt;stroke-linejoin:miter;stroke-opacity:1"/>
<path class="bond-10 atom-10 atom-11" d="M 695.6,122.4 L 692.4,97.6" style="fill:none;fill-rule:evenodd;stroke:#000000;stroke-width:2.0px;stroke-linecap:butt;stroke-linejoin:miter;stroke-opacity:1"/>
<path class="bond-10 atom-10 atom-11" d="M 700.1,118.0 L 697.9,100.6" style="fill:none;fill-rule:evenodd;stroke:#000000;stroke-width:2.0px;stroke-linecap:butt;stroke-linejoin:miter;stroke-opacity:1"/>
<path class="bond-11 atom-11 atom-12" d="M 692.4,97.6 L 712.3,82.4" style="fill:none;fill-rule:evenodd;stroke:#000000;stroke-width:2.0px;stroke-linecap:butt;stroke-linejoin:miter;stroke-opacity:1"/>
<path class="bond-12 atom-12 atom-13" d="M 712.3,82.4 L 735.4,92.0" style="fill:none;fill-rule:evenodd;stroke:#000000;stroke-width:2.0px;stroke-linecap:butt;stroke-linejoin:miter;stroke-opacity:1"/>
<path class="bond-12 atom-12 atom-13" d="M 713.9,88.4 L 730.0,95.2" style="fill:none;fill-rule:evenodd;stroke:#000000;stroke-width:2.0px;stroke-linecap:butt;stroke-linejoin:miter;stroke-opacity:1"/>
<path class="bond-13 atom-13 atom-14" d="M 735.4,92.0 L 738.6,116.8" style="fill:none;fill-rule:evenodd;stroke:#000000;stroke-width:2.0px;stroke-linecap:butt;stroke-linejoin:miter;stroke-opacity:1"/>
<path class="bond-14 atom-14 atom-15" d="M 738.6,116.8 L 718.7,132.0" style="fill:none;fill-rule:evenodd;stroke:#000000;stroke-width:2.0px;stroke-linecap:butt;stroke-linejoin:miter;stroke-opacity:1"/>
<path class="bond-14 atom-14 atom-15" d="M 732.6,115.1 L 718.7,125.8" style="fill:none;fill-rule:evenodd;stroke:#000000;stroke-width:2.0px;stroke-linecap:butt;stroke-linejoin:miter;stroke-opacity:1"/>
<path class="bond-15 atom-15 atom-16" d="M 718.7,132.0 L 722.0,156.8" style="fill:none;fill-rule:evenodd;stroke:#000000;stroke-width:2.0px;stroke-linecap:butt;stroke-linejoin:miter;stroke-opacity:1"/>
<path class="bond-16 atom-16 atom-17" d="M 722.0,156.8 L 706.2,168.9" style="fill:none;fill-rule:evenodd;stroke:#000000;stroke-width:2.0px;stroke-linecap:butt;stroke-linejoin:miter;stroke-opacity:1"/>
<path class="bond-17 atom-4 atom-18" d="M 609.7,133.5 L 607.0,113.3" style="fill:none;fill-rule:evenodd;stroke:#000000;stroke-width:2.0px;stroke-linecap:butt;stroke-linejoin:miter;stroke-opacity:1"/>
<path class="bond-18 atom-18 atom-19" d="M 603.3,107.4 L 586.4,100.4" style="fill:none;fill-rule:evenodd;stroke:#000000;stroke-width:2.0px;stroke-linecap:butt;stroke-linejoin:miter;stroke-opacity:1"/>
<path class="bond-18 atom-18 atom-19" d="M 598.9,111.0 L 587.0,106.1" style="fill:none;fill-rule:evenodd;stroke:#000000;stroke-width:2.0px;stroke-linecap:butt;stroke-linejoin:miter;stroke-opacity:1"/>
<path class="bond-19 atom-19 atom-20" d="M 582.8,94.7 L 580.1,74.3" style="fill:none;fill-rule:evenodd;stroke:#000000;stroke-width:2.0px;stroke-linecap:butt;stroke-linejoin:miter;stroke-opacity:1"/>
<path class="bond-20 atom-19 atom-21" d="M 580.2,101.5 L 563.4,114.3" style="fill:none;fill-rule:evenodd;stroke:#000000;stroke-width:2.0px;stroke-linecap:butt;stroke-linejoin:miter;stroke-opacity:1"/>
<path class="bond-21 atom-21 atom-22" d="M 563.4,114.3 L 540.3,104.7" style="fill:none;fill-rule:evenodd;stroke:#000000;stroke-width:2.0px;stroke-linecap:butt;stroke-linejoin:miter;stroke-opacity:1"/>
<path class="bond-22 atom-22 atom-23" d="M 541.9,106.7 L 525.5,119.2" style="fill:none;fill-rule:evenodd;stroke:#000000;stroke-width:2.0px;stroke-linecap:butt;stroke-linejoin:miter;stroke-opacity:1"/>
<path class="bond-22 atom-22 atom-23" d="M 538.8,102.7 L 522.4,115.2" style="fill:none;fill-rule:evenodd;stroke:#000000;stroke-width:2.0px;stroke-linecap:butt;stroke-linejoin:miter;stroke-opacity:1"/>
<path class="bond-23 atom-15 atom-10" d="M 718.7,132.0 L 695.6,122.4" style="fill:none;fill-rule:evenodd;stroke:#000000;stroke-width:2.0px;stroke-linecap:butt;stroke-linejoin:miter;stroke-opacity:1"/>
<path class="atom-0" d="M 520.4 144.7 Q 520.4 143.0, 521.3 142.1 Q 522.1 141.1, 523.7 141.1 Q 525.2 141.1, 526.1 142.1 Q 526.9 143.0, 526.9 144.7 Q 526.9 146.4, 526.1 147.4 Q 525.2 148.4, 523.7 148.4 Q 522.1 148.4, 521.3 147.4 Q 520.4 146.4, 520.4 144.7 M 523.7 147.6 Q 524.8 147.6, 525.3 146.9 Q 525.9 146.1, 525.9 144.7 Q 525.9 143.3, 525.3 142.6 Q 524.8 141.9, 523.7 141.9 Q 522.6 141.9, 522.0 142.6 Q 521.4 143.3, 521.4 144.7 Q 521.4 146.1, 522.0 146.9 Q 522.6 147.6, 523.7 147.6 " fill="#000000"/>
<path class="atom-0" d="M 527.4 142.3 L 529.8 142.3 L 529.8 142.8 L 527.4 142.8 L 527.4 142.3 " fill="#000000"/>
<path class="atom-5" d="M 631.2 139.6 L 633.5 143.4 Q 633.7 143.7, 634.1 144.4 Q 634.5 145.1, 634.5 145.1 L 634.5 139.6 L 635.5 139.6 L 635.5 146.7 L 634.5 146.7 L 632.0 142.6 Q 631.7 142.1, 631.4 141.6 Q 631.1 141.0, 631.0 140.9 L 631.0 146.7 L 630.1 146.7 L 630.1 139.6 L 631.2 139.6 " fill="#000000"/>
<path class="atom-5" d="M 630.0 147.4 L 631.0 147.4 L 631.0 150.4 L 634.6 150.4 L 634.6 147.4 L 635.5 147.4 L 635.5 154.5 L 634.6 154.5 L 634.6 151.2 L 631.0 151.2 L 631.0 154.5 L 630.0 154.5 L 630.0 147.4 " fill="#000000"/>
<path class="atom-7" d="M 646.2 103.2 Q 646.2 101.5, 647.0 100.5 Q 647.9 99.6, 649.4 99.6 Q 651.0 99.6, 651.8 100.5 Q 652.7 101.5, 652.7 103.2 Q 652.7 104.9, 651.8 105.9 Q 651.0 106.8, 649.4 106.8 Q 647.9 106.8, 647.0 105.9 Q 646.2 104.9, 646.2 103.2 M 649.4 106.0 Q 650.5 106.0, 651.1 105.3 Q 651.7 104.6, 651.7 103.2 Q 651.7 101.8, 651.1 101.1 Q 650.5 100.4, 649.4 100.4 Q 648.3 100.4, 647.8 101.1 Q 647.2 101.8, 647.2 103.2 Q 647.2 104.6, 647.8 105.3 Q 648.3 106.0, 649.4 106.0 " fill="#000000"/>
<path class="atom-9" d="M 675.7 162.4 Q 675.7 160.7, 676.6 159.8 Q 677.4 158.8, 679.0 158.8 Q 680.5 158.8, 681.4 159.8 Q 682.2 160.7, 682.2 162.4 Q 682.2 164.2, 681.4 165.1 Q 680.5 166.1, 679.0 166.1 Q 677.4 166.1, 676.6 165.1 Q 675.7 164.2, 675.7 162.4 M 679.0 165.3 Q 680.1 165.3, 680.6 164.6 Q 681.2 163.9, 681.2 162.4 Q 681.2 161.0, 680.6 160.3 Q 680.1 159.6, 679.0 159.6 Q 677.9 159.6, 677.3 160.3 Q 676.7 161.0, 676.7 162.4 Q 676.7 163.9, 677.3 164.6 Q 677.9 165.3, 679.0 165.3 " fill="#000000"/>
<path class="atom-9" d="M 682.7 158.9 L 683.7 158.9 L 683.7 161.9 L 687.3 161.9 L 687.3 158.9 L 688.3 158.9 L 688.3 166.0 L 687.3 166.0 L 687.3 162.7 L 683.7 162.7 L 683.7 166.0 L 682.7 166.0 L 682.7 158.9 " fill="#000000"/>
<path class="atom-17" d="M 692.4 168.5 L 693.4 168.5 L 693.4 171.5 L 697.0 171.5 L 697.0 168.5 L 698.0 168.5 L 698.0 175.6 L 697.0 175.6 L 697.0 172.3 L 693.4 172.3 L 693.4 175.6 L 692.4 175.6 L 692.4 168.5 " fill="#000000"/>
<path class="atom-17" d="M 698.8 172.1 Q 698.8 170.3, 699.7 169.4 Q 700.5 168.4, 702.1 168.4 Q 703.7 168.4, 704.5 169.4 Q 705.3 170.3, 705.3 172.1 Q 705.3 173.8, 704.5 174.8 Q 703.6 175.7, 702.1 175.7 Q 700.5 175.7, 699.7 174.8 Q 698.8 173.8, 698.8 172.1 M 702.1 174.9 Q 703.2 174.9, 703.7 174.2 Q 704.3 173.5, 704.3 172.1 Q 704.3 170.7, 703.7 170.0 Q 703.2 169.2, 702.1 169.2 Q 701.0 169.2, 700.4 169.9 Q 699.8 170.6, 699.8 172.1 Q 699.8 173.5, 700.4 174.2 Q 701.0 174.9, 702.1 174.9 " fill="#000000"/>
<path class="atom-18" d="M 604.4 111.2 Q 604.5 111.2, 604.8 111.3 Q 605.2 111.5, 605.5 111.6 Q 605.9 111.6, 606.3 111.6 Q 606.9 111.6, 607.3 111.3 Q 607.7 111.0, 607.7 110.4 Q 607.7 110.0, 607.5 109.8 Q 607.3 109.6, 607.0 109.4 Q 606.7 109.3, 606.2 109.1 Q 605.6 108.9, 605.2 108.8 Q 604.8 108.6, 604.6 108.2 Q 604.3 107.8, 604.3 107.2 Q 604.3 106.3, 604.9 105.7 Q 605.5 105.2, 606.7 105.2 Q 607.5 105.2, 608.5 105.6 L 608.2 106.4 Q 607.4 106.0, 606.8 106.0 Q 606.1 106.0, 605.7 106.3 Q 605.3 106.6, 605.3 107.1 Q 605.3 107.4, 605.5 107.7 Q 605.7 107.9, 606.0 108.0 Q 606.3 108.2, 606.8 108.3 Q 607.4 108.5, 607.8 108.7 Q 608.2 108.9, 608.4 109.3 Q 608.7 109.7, 608.7 110.4 Q 608.7 111.4, 608.0 111.9 Q 607.4 112.5, 606.3 112.5 Q 605.7 112.5, 605.2 112.3 Q 604.7 112.2, 604.2 112.0 L 604.4 111.2 " fill="#000000"/>
<path class="atom-18" d="M 609.2 105.2 L 610.1 105.2 L 610.1 108.2 L 613.8 108.2 L 613.8 105.2 L 614.7 105.2 L 614.7 112.3 L 613.8 112.3 L 613.8 109.0 L 610.1 109.0 L 610.1 112.3 L 609.2 112.3 L 609.2 105.2 " fill="#000000"/>
<path class="atom-19" d="M 581.3 101.5 Q 581.4 101.6, 581.7 101.7 Q 582.1 101.8, 582.4 101.9 Q 582.8 102.0, 583.2 102.0 Q 583.8 102.0, 584.2 101.7 Q 584.6 101.4, 584.6 100.8 Q 584.6 100.4, 584.4 100.2 Q 584.2 99.9, 583.9 99.8 Q 583.6 99.7, 583.1 99.5 Q 582.5 99.3, 582.1 99.1 Q 581.7 99.0, 581.5 98.6 Q 581.2 98.2, 581.2 97.6 Q 581.2 96.7, 581.8 96.1 Q 582.4 95.6, 583.6 95.6 Q 584.4 95.6, 585.4 96.0 L 585.1 96.7 Q 584.3 96.4, 583.6 96.4 Q 583.0 96.4, 582.6 96.7 Q 582.2 96.9, 582.2 97.4 Q 582.2 97.8, 582.4 98.0 Q 582.6 98.3, 582.9 98.4 Q 583.2 98.5, 583.6 98.7 Q 584.3 98.9, 584.7 99.1 Q 585.1 99.3, 585.3 99.7 Q 585.6 100.1, 585.6 100.8 Q 585.6 101.8, 584.9 102.3 Q 584.3 102.8, 583.2 102.8 Q 582.6 102.8, 582.1 102.7 Q 581.6 102.6, 581.1 102.3 L 581.3 101.5 " fill="#000000"/>
<path class="atom-23" d="M 511.4 116.3 L 512.3 116.3 L 512.3 119.3 L 515.9 119.3 L 515.9 116.3 L 516.9 116.3 L 516.9 123.4 L 515.9 123.4 L 515.9 120.1 L 512.3 120.1 L 512.3 123.4 L 511.4 123.4 L 511.4 116.3 " fill="#000000"/>
<path class="atom-23" d="M 518.9 116.3 L 521.2 120.1 Q 521.4 120.5, 521.8 121.1 Q 522.2 121.8, 522.2 121.8 L 522.2 116.3 L 523.1 116.3 L 523.1 123.4 L 522.2 123.4 L 519.7 119.3 Q 519.4 118.8, 519.1 118.3 Q 518.8 117.7, 518.7 117.6 L 518.7 123.4 L 517.8 123.4 L 517.8 116.3 L 518.9 116.3 " fill="#000000"/>
<path class="atom-16" d="M 725.5,156.8 L 725.5,156.9 L 725.5,156.9 L 725.5,157.0 L 725.4,157.0 L 725.4,157.0 L 725.4,157.1 L 725.4,157.1 L 725.4,157.1 L 725.3,157.2 L 725.3,157.2 L 725.3,157.2 L 725.2,157.3 L 725.2,157.3 L 725.2,157.3 L 725.1,157.3 L 725.1,157.3 L 725.0,157.3 L 725.0,157.3 L 724.9,157.3 L 724.9,157.3 L 724.9,157.3 L 724.8,157.3 L 724.8,157.3 L 724.7,157.3 L 724.7,157.2 L 724.7,157.2 L 724.6,157.2 L 724.6,157.2 L 724.6,157.1 L 724.5,157.1 L 724.5,157.1 L 724.5,157.0 L 724.5,157.0 L 724.5,156.9 L 724.5,156.9 L 724.5,156.9 L 724.5,156.8 L 724.5,156.8 L 724.5,156.7 L 724.5,156.7 L 724.5,156.6 L 724.5,156.6 L 724.5,156.6 L 724.6,156.5 L 724.6,156.5 L 724.6,156.5 L 724.7,156.4 L 724.7,156.4 L 724.7,156.4 L 724.8,156.4 L 724.8,156.4 L 724.9,156.3 L 724.9,156.3 L 724.9,156.3 L 725.0,156.3 L 725.0,156.3 L 725.1,156.3 L 725.1,156.4 L 725.2,156.4 L 725.2,156.4 L 725.2,156.4 L 725.3,156.4 L 725.3,156.5 L 725.3,156.5 L 725.4,156.5 L 725.4,156.5 L 725.4,156.6 L 725.4,156.6 L 725.4,156.7 L 725.5,156.7 L 725.5,156.7 L 725.5,156.8 L 725.5,156.8 L 725.0,156.8 Z" style="fill:#000000;fill-rule:evenodd;fill-opacity:1;stroke:#000000;stroke-width:0.0px;stroke-linecap:butt;stroke-linejoin:miter;stroke-opacity:1;"/>
<path class="bond-0 atom-0 atom-1" d="M 100.8,404.5 L 115.8,395.2" style="fill:none;fill-rule:evenodd;stroke:#000000;stroke-width:2.0px;stroke-linecap:butt;stroke-linejoin:miter;stroke-opacity:1"/>
<path class="bond-0 atom-0 atom-1" d="M 103.6,409.0 L 118.6,399.7" style="fill:none;fill-rule:evenodd;stroke:#000000;stroke-width:2.0px;stroke-linecap:butt;stroke-linejoin:miter;stroke-opacity:1"/>
<path class="bond-1 atom-1 atom-2" d="M 117.2,397.5 L 133.6,411.4" style="fill:none;fill-rule:evenodd;stroke:#000000;stroke-width:2.0px;stroke-linecap:butt;stroke-linejoin:miter;stroke-opacity:1"/>
<path class="bond-2 atom-2 atom-3" d="M 141.1,414.8 L 163.8,416.5" style="fill:none;fill-rule:evenodd;stroke:#000000;stroke-width:2.0px;stroke-linecap:butt;stroke-linejoin:miter;stroke-opacity:1"/>
<path class="bond-3 atom-3 atom-4" d="M 163.8,416.5 L 186.2,402.5" style="fill:none;fill-rule:evenodd;stroke:#000000;stroke-width:2.0px;stroke-linecap:butt;stroke-linejoin:miter;stroke-opacity:1"/>
<path class="bond-4 atom-4 atom-5" d="M 186.2,402.5 L 202.5,423.4" style="fill:none;fill-rule:evenodd;stroke:#000000;stroke-width:2.0px;stroke-linecap:butt;stroke-linejoin:miter;stroke-opacity:1"/>
<path class="bond-4 atom-4 atom-5" d="M 192.8,402.4 L 204.2,417.0" style="fill:none;fill-rule:evenodd;stroke:#000000;stroke-width:2.0px;stroke-linecap:butt;stroke-linejoin:miter;stroke-opacity:1"/>
<path class="bond-5 atom-5 atom-6" d="M 202.5,423.4 L 228.7,419.8" style="fill:none;fill-rule:evenodd;stroke:#000000;stroke-width:2.0px;stroke-linecap:butt;stroke-linejoin:miter;stroke-opacity:1"/>
<path class="bond-6 atom-6 atom-7" d="M 228.7,419.8 L 238.6,395.3" style="fill:none;fill-rule:evenodd;stroke:#000000;stroke-width:2.0px;stroke-linecap:butt;stroke-linejoin:miter;stroke-opacity:1"/>
<path class="bond-6 atom-6 atom-7" d="M 225.3,414.1 L 232.2,397.0" style="fill:none;fill-rule:evenodd;stroke:#000000;stroke-width:2.0px;stroke-linecap:butt;stroke-linejoin:miter;stroke-opacity:1"/>
<path class="bond-7 atom-7 atom-8" d="M 238.6,395.3 L 222.4,374.4" style="fill:none;fill-rule:evenodd;stroke:#000000;stroke-width:2.0px;stroke-linecap:butt;stroke-linejoin:miter;stroke-opacity:1"/>
<path class="bond-8 atom-8 atom-9" d="M 222.4,374.4 L 196.2,378.0" style="fill:none;fill-rule:evenodd;stroke:#000000;stroke-width:2.0px;stroke-linecap:butt;stroke-linejoin:miter;stroke-opacity:1"/>
<path class="bond-8 atom-8 atom-9" d="M 219.2,380.2 L 200.9,382.7" style="fill:none;fill-rule:evenodd;stroke:#000000;stroke-width:2.0px;stroke-linecap:butt;stroke-linejoin:miter;stroke-opacity:1"/>
<path class="bond-9 atom-9 atom-10" d="M 196.2,378.0 L 191.0,357.0" style="fill:none;fill-rule:evenodd;stroke:#000000;stroke-width:2.0px;stroke-linecap:butt;stroke-linejoin:miter;stroke-opacity:1"/>
<path class="bond-10 atom-1 atom-11" d="M 117.2,397.5 L 110.8,371.8" style="fill:none;fill-rule:evenodd;stroke:#000000;stroke-width:2.0px;stroke-linecap:butt;stroke-linejoin:miter;stroke-opacity:1"/>
<path class="bond-11 atom-11 atom-12" d="M 110.8,371.8 L 120.8,347.3" style="fill:none;fill-rule:evenodd;stroke:#000000;stroke-width:2.0px;stroke-linecap:butt;stroke-linejoin:miter;stroke-opacity:1"/>
<path class="bond-11 atom-11 atom-12" d="M 117.2,370.1 L 124.2,353.0" style="fill:none;fill-rule:evenodd;stroke:#000000;stroke-width:2.0px;stroke-linecap:butt;stroke-linejoin:miter;stroke-opacity:1"/>
<path class="bond-12 atom-12 atom-13" d="M 120.8,347.3 L 143.3,333.4" style="fill:none;fill-rule:evenodd;stroke:#000000;stroke-width:2.0px;stroke-linecap:butt;stroke-linejoin:miter;stroke-opacity:1"/>
<path class="bond-13 atom-13 atom-14" d="M 143.3,333.4 L 169.7,335.3" style="fill:none;fill-rule:evenodd;stroke:#000000;stroke-width:2.0px;stroke-linecap:butt;stroke-linejoin:miter;stroke-opacity:1"/>
<path class="bond-13 atom-13 atom-14" d="M 146.9,338.9 L 165.3,340.3" style="fill:none;fill-rule:evenodd;stroke:#000000;stroke-width:2.0px;stroke-linecap:butt;stroke-linejoin:miter;stroke-opacity:1"/>
<path class="bond-14 atom-14 atom-15" d="M 169.7,335.3 L 149.5,318.2" style="fill:none;fill-rule:evenodd;stroke:#000000;stroke-width:2.0px;stroke-linecap:butt;stroke-linejoin:miter;stroke-opacity:1"/>
<path class="bond-15 atom-15 atom-16" d="M 149.5,318.2 L 124.0,310.9" style="fill:none;fill-rule:evenodd;stroke:#000000;stroke-width:2.0px;stroke-linecap:butt;stroke-linejoin:miter;stroke-opacity:1"/>
<path class="bond-16 atom-16 atom-17" d="M 124.0,310.9 L 97.8,314.5" style="fill:none;fill-rule:evenodd;stroke:#000000;stroke-width:2.0px;stroke-linecap:butt;stroke-linejoin:miter;stroke-opacity:1"/>
<path class="bond-17 atom-17 atom-18" d="M 97.8,314.5 L 75.4,328.4" style="fill:none;fill-rule:evenodd;stroke:#000000;stroke-width:2.0px;stroke-linecap:butt;stroke-linejoin:miter;stroke-opacity:1"/>
<path class="bond-18 atom-18 atom-19" d="M 75.4,328.4 L 60.5,350.3" style="fill:none;fill-rule:evenodd;stroke:#000000;stroke-width:2.0px;stroke-linecap:butt;stroke-linejoin:miter;stroke-opacity:1"/>
<path class="bond-19 atom-19 atom-20" d="M 60.5,350.3 L 55.8,376.3" style="fill:none;fill-rule:evenodd;stroke:#000000;stroke-width:2.0px;stroke-linecap:butt;stroke-linejoin:miter;stroke-opacity:1"/>
<path class="bond-20 atom-20 atom-21" d="M 55.8,376.3 L 30.4,369.0" style="fill:none;fill-rule:evenodd;stroke:#000000;stroke-width:2.0px;stroke-linecap:butt;stroke-linejoin:miter;stroke-opacity:1"/>
<path class="bond-20 atom-20 atom-21" d="M 50.6,380.3 L 32.8,375.2" style="fill:none;fill-rule:evenodd;stroke:#000000;stroke-width:2.0px;stroke-linecap:butt;stroke-linejoin:miter;stroke-opacity:1"/>
<path class="bond-21 atom-21 atom-22" d="M 30.4,369.0 L 11.4,387.3" style="fill:none;fill-rule:evenodd;stroke:#000000;stroke-width:2.0px;stroke-linecap:butt;stroke-linejoin:miter;stroke-opacity:1"/>
<path class="bond-22 atom-22 atom-23" d="M 11.4,387.3 L 17.7,413.0" style="fill:none;fill-rule:evenodd;stroke:#000000;stroke-width:2.0px;stroke-linecap:butt;stroke-linejoin:miter;stroke-opacity:1"/>
<path class="bond-22 atom-22 atom-23" d="M 17.4,389.9 L 21.9,407.9" style="fill:none;fill-rule:evenodd;stroke:#000000;stroke-width:2.0px;stroke-linecap:butt;stroke-linejoin:miter;stroke-opacity:1"/>
<path class="bond-23 atom-23 atom-24" d="M 17.7,413.0 L 43.1,420.3" style="fill:none;fill-rule:evenodd;stroke:#000000;stroke-width:2.0px;stroke-linecap:butt;stroke-linejoin:miter;stroke-opacity:1"/>
<path class="bond-24 atom-24 atom-25" d="M 43.1,420.3 L 62.2,402.0" style="fill:none;fill-rule:evenodd;stroke:#000000;stroke-width:2.0px;stroke-linecap:butt;stroke-linejoin:miter;stroke-opacity:1"/>
<path class="bond-24 atom-24 atom-25" d="M 42.3,413.8 L 55.6,401.0" style="fill:none;fill-rule:evenodd;stroke:#000000;stroke-width:2.0px;stroke-linecap:butt;stroke-linejoin:miter;stroke-opacity:1"/>
<path class="bond-25 atom-25 atom-26" d="M 62.2,402.0 L 74.8,418.3" style="fill:none;fill-rule:evenodd;stroke:#000000;stroke-width:2.0px;stroke-linecap:butt;stroke-linejoin:miter;stroke-opacity:1"/>
<path class="bond-26 atom-26 atom-27" d="M 82.1,424.9 L 98.0,433.4" style="fill:none;fill-rule:evenodd;stroke:#000000;stroke-width:2.0px;stroke-linecap:butt;stroke-linejoin:miter;stroke-opacity:1"/>
<path class="bond-26 atom-26 atom-27" d="M 87.0,421.5 L 98.1,427.5" style="fill:none;fill-rule:evenodd;stroke:#000000;stroke-width:2.0px;stroke-linecap:butt;stroke-linejoin:miter;stroke-opacity:1"/>
<path class="bond-27 atom-27 atom-2" d="M 105.4,433.2 L 133.6,416.7" style="fill:none;fill-rule:evenodd;stroke:#000000;stroke-width:2.0px;stroke-linecap:butt;stroke-linejoin:miter;stroke-opacity:1"/>
<path class="bond-28 atom-9 atom-4" d="M 196.2,378.0 L 186.2,402.5" style="fill:none;fill-rule:evenodd;stroke:#000000;stroke-width:2.0px;stroke-linecap:butt;stroke-linejoin:miter;stroke-opacity:1"/>
<path class="bond-29 atom-14 atom-10" d="M 169.7,335.3 L 186.2,349.2" style="fill:none;fill-rule:evenodd;stroke:#000000;stroke-width:2.0px;stroke-linecap:butt;stroke-linejoin:miter;stroke-opacity:1"/>
<path class="bond-30 atom-25 atom-20" d="M 62.2,402.0 L 55.8,376.3" style="fill:none;fill-rule:evenodd;stroke:#000000;stroke-width:2.0px;stroke-linecap:butt;stroke-linejoin:miter;stroke-opacity:1"/>
<path class="atom-0" d="M 85.1 407.7 L 86.1 407.7 L 86.1 410.9 L 89.9 410.9 L 89.9 407.7 L 90.9 407.7 L 90.9 415.2 L 89.9 415.2 L 89.9 411.7 L 86.1 411.7 L 86.1 415.2 L 85.1 415.2 L 85.1 407.7 " fill="#000000"/>
<path class="atom-0" d="M 93.0 407.7 L 95.5 411.7 Q 95.7 412.1, 96.1 412.8 Q 96.5 413.5, 96.5 413.5 L 96.5 407.7 L 97.5 407.7 L 97.5 415.2 L 96.5 415.2 L 93.9 410.9 Q 93.6 410.3, 93.2 409.8 Q 92.9 409.2, 92.8 409.0 L 92.8 415.2 L 91.8 415.2 L 91.8 407.7 L 93.0 407.7 " fill="#000000"/>
<path class="atom-0" d="M 98.4 409.1 L 99.7 409.1 L 99.7 407.7 L 100.3 407.7 L 100.3 409.1 L 101.7 409.1 L 101.7 409.6 L 100.3 409.6 L 100.3 410.9 L 99.7 410.9 L 99.7 409.6 L 98.4 409.6 L 98.4 409.1 " fill="#000000"/>
<path class="atom-2" d="M 135.7 410.8 L 138.2 414.8 Q 138.4 415.2, 138.8 415.9 Q 139.2 416.6, 139.2 416.6 L 139.2 410.8 L 140.2 410.8 L 140.2 418.3 L 139.2 418.3 L 136.6 414.0 Q 136.2 413.5, 135.9 412.9 Q 135.6 412.3, 135.5 412.1 L 135.5 418.3 L 134.5 418.3 L 134.5 410.8 L 135.7 410.8 " fill="#000000"/>
<path class="atom-10" d="M 188.2 348.6 L 190.7 352.6 Q 190.9 353.0, 191.3 353.7 Q 191.7 354.4, 191.7 354.4 L 191.7 348.6 L 192.7 348.6 L 192.7 356.1 L 191.7 356.1 L 189.1 351.8 Q 188.8 351.2, 188.4 350.7 Q 188.1 350.1, 188.0 349.9 L 188.0 356.1 L 187.0 356.1 L 187.0 348.6 L 188.2 348.6 " fill="#000000"/>
<path class="atom-10" d="M 193.6 348.6 L 194.6 348.6 L 194.6 351.8 L 198.4 351.8 L 198.4 348.6 L 199.5 348.6 L 199.5 356.1 L 198.4 356.1 L 198.4 352.6 L 194.6 352.6 L 194.6 356.1 L 193.6 356.1 L 193.6 348.6 " fill="#000000"/>
<path class="atom-26" d="M 76.7 419.2 L 79.2 423.1 Q 79.4 423.5, 79.8 424.2 Q 80.2 424.9, 80.2 425.0 L 80.2 419.2 L 81.2 419.2 L 81.2 426.7 L 80.2 426.7 L 77.6 422.3 Q 77.3 421.8, 76.9 421.2 Q 76.6 420.6, 76.5 420.5 L 76.5 426.7 L 75.6 426.7 L 75.6 419.2 L 76.7 419.2 " fill="#000000"/>
<path class="atom-27" d="M 100.1 431.7 L 102.5 435.6 Q 102.8 436.0, 103.2 436.7 Q 103.5 437.4, 103.6 437.5 L 103.6 431.7 L 104.6 431.7 L 104.6 439.1 L 103.5 439.1 L 100.9 434.8 Q 100.6 434.3, 100.3 433.7 Q 99.9 433.1, 99.9 433.0 L 99.9 439.1 L 98.9 439.1 L 98.9 431.7 L 100.1 431.7 " fill="#000000"/>
<path class="atom-0" d="M 84.0,411.4 L 84.0,411.5 L 84.0,411.5 L 84.0,411.6 L 84.0,411.6 L 84.0,411.7 L 84.0,411.7 L 83.9,411.7 L 83.9,411.8 L 83.9,411.8 L 83.8,411.8 L 83.8,411.9 L 83.8,411.9 L 83.7,411.9 L 83.7,411.9 L 83.6,412.0 L 83.6,412.0 L 83.6,412.0 L 83.5,412.0 L 83.5,412.0 L 83.4,412.0 L 83.4,412.0 L 83.3,411.9 L 83.3,411.9 L 83.2,411.9 L 83.2,411.9 L 83.2,411.9 L 83.1,411.8 L 83.1,411.8 L 83.1,411.8 L 83.1,411.7 L 83.0,411.7 L 83.0,411.6 L 83.0,411.6 L 83.0,411.6 L 83.0,411.5 L 83.0,411.5 L 83.0,411.4 L 83.0,411.4 L 83.0,411.3 L 83.0,411.3 L 83.0,411.2 L 83.0,411.2 L 83.1,411.2 L 83.1,411.1 L 83.1,411.1 L 83.1,411.1 L 83.2,411.0 L 83.2,411.0 L 83.2,411.0 L 83.3,411.0 L 83.3,410.9 L 83.4,410.9 L 83.4,410.9 L 83.5,410.9 L 83.5,410.9 L 83.6,410.9 L 83.6,410.9 L 83.6,410.9 L 83.7,411.0 L 83.7,411.0 L 83.8,411.0 L 83.8,411.0 L 83.8,411.0 L 83.9,411.1 L 83.9,411.1 L 83.9,411.1 L 84.0,411.2 L 84.0,411.2 L 84.0,411.3 L 84.0,411.3 L 84.0,411.4 L 84.0,411.4 L 84.0,411.4 L 83.5,411.4 Z" style="fill:#000000;fill-rule:evenodd;fill-opacity:1;stroke:#000000;stroke-width:0.0px;stroke-linecap:butt;stroke-linejoin:miter;stroke-opacity:1;"/>
<path class="atom-19" d="M 57.9,350.3 L 57.9,350.3 L 57.9,350.4 L 57.9,350.4 L 57.8,350.5 L 57.8,350.5 L 57.8,350.6 L 57.8,350.6 L 57.8,350.6 L 57.7,350.7 L 57.7,350.7 L 57.7,350.7 L 57.6,350.8 L 57.6,350.8 L 57.5,350.8 L 57.5,350.8 L 57.4,350.8 L 57.4,350.8 L 57.4,350.8 L 57.3,350.8 L 57.3,350.8 L 57.2,350.8 L 57.2,350.8 L 57.1,350.8 L 57.1,350.8 L 57.1,350.7 L 57.0,350.7 L 57.0,350.7 L 57.0,350.7 L 56.9,350.6 L 56.9,350.6 L 56.9,350.5 L 56.9,350.5 L 56.8,350.5 L 56.8,350.4 L 56.8,350.4 L 56.8,350.3 L 56.8,350.3 L 56.8,350.2 L 56.8,350.2 L 56.8,350.1 L 56.9,350.1 L 56.9,350.1 L 56.9,350.0 L 56.9,350.0 L 57.0,349.9 L 57.0,349.9 L 57.0,349.9 L 57.1,349.9 L 57.1,349.8 L 57.1,349.8 L 57.2,349.8 L 57.2,349.8 L 57.3,349.8 L 57.3,349.8 L 57.4,349.8 L 57.4,349.8 L 57.4,349.8 L 57.5,349.8 L 57.5,349.8 L 57.6,349.8 L 57.6,349.8 L 57.7,349.9 L 57.7,349.9 L 57.7,349.9 L 57.8,350.0 L 57.8,350.0 L 57.8,350.0 L 57.8,350.1 L 57.8,350.1 L 57.9,350.2 L 57.9,350.2 L 57.9,350.3 L 57.9,350.3 L 57.3,350.3 Z" style="fill:#000000;fill-rule:evenodd;fill-opacity:1;stroke:#000000;stroke-width:0.0px;stroke-linecap:butt;stroke-linejoin:miter;stroke-opacity:1;"/>
<path class="bond-0 atom-0 atom-1" d="M 346.8,382.9 L 370.9,370.5" style="fill:none;fill-rule:evenodd;stroke:#000000;stroke-width:2.0px;stroke-linecap:butt;stroke-linejoin:miter;stroke-opacity:1"/>
<path class="bond-1 atom-1 atom-2" d="M 370.9,370.5 L 393.7,385.1" style="fill:none;fill-rule:evenodd;stroke:#000000;stroke-width:2.0px;stroke-linecap:butt;stroke-linejoin:miter;stroke-opacity:1"/>
<path class="bond-2 atom-2 atom-3" d="M 393.7,385.1 L 417.7,372.6" style="fill:none;fill-rule:evenodd;stroke:#000000;stroke-width:2.0px;stroke-linecap:butt;stroke-linejoin:miter;stroke-opacity:1"/>
<path class="bond-3 atom-3 atom-4" d="M 417.7,372.6 L 440.5,387.2" style="fill:none;fill-rule:evenodd;stroke:#000000;stroke-width:2.0px;stroke-linecap:butt;stroke-linejoin:miter;stroke-opacity:1"/>
<path class="bond-4 atom-4 atom-5" d="M 440.5,387.2 L 461.2,376.5" style="fill:none;fill-rule:evenodd;stroke:#000000;stroke-width:2.0px;stroke-linecap:butt;stroke-linejoin:miter;stroke-opacity:1"/>
<path class="bond-5 atom-5 atom-6" d="M 459.7,371.3 L 452.3,356.9" style="fill:none;fill-rule:evenodd;stroke:#000000;stroke-width:2.0px;stroke-linecap:butt;stroke-linejoin:miter;stroke-opacity:1"/>
<path class="bond-5 atom-5 atom-6" d="M 464.6,368.8 L 457.1,354.4" style="fill:none;fill-rule:evenodd;stroke:#000000;stroke-width:2.0px;stroke-linecap:butt;stroke-linejoin:miter;stroke-opacity:1"/>
<path class="bond-6 atom-5 atom-7" d="M 469.5,378.5 L 477.0,392.8" style="fill:none;fill-rule:evenodd;stroke:#000000;stroke-width:2.0px;stroke-linecap:butt;stroke-linejoin:miter;stroke-opacity:1"/>
<path class="bond-6 atom-5 atom-7" d="M 464.7,380.9 L 472.2,395.3" style="fill:none;fill-rule:evenodd;stroke:#000000;stroke-width:2.0px;stroke-linecap:butt;stroke-linejoin:miter;stroke-opacity:1"/>
<path class="bond-7 atom-5 atom-8" d="M 467.9,373.0 L 488.6,362.3" style="fill:none;fill-rule:evenodd;stroke:#000000;stroke-width:2.0px;stroke-linecap:butt;stroke-linejoin:miter;stroke-opacity:1"/>
<path class="bond-8 atom-0 atom-9" d="M 346.8,382.9 L 327.8,370.7" style="fill:none;fill-rule:evenodd;stroke:#000000;stroke-width:2.0px;stroke-linecap:butt;stroke-linejoin:miter;stroke-opacity:1"/>
<path class="bond-9 atom-9 atom-10" d="M 323.7,363.6 L 322.4,341.3" style="fill:none;fill-rule:evenodd;stroke:#000000;stroke-width:2.0px;stroke-linecap:butt;stroke-linejoin:miter;stroke-opacity:1"/>
<path class="bond-10 atom-10 atom-11" d="M 322.4,341.3 L 296.2,334.4" style="fill:none;fill-rule:evenodd;stroke:#000000;stroke-width:2.0px;stroke-linecap:butt;stroke-linejoin:miter;stroke-opacity:1"/>
<path class="bond-11 atom-11 atom-12" d="M 296.2,334.4 L 281.6,357.2" style="fill:none;fill-rule:evenodd;stroke:#000000;stroke-width:2.0px;stroke-linecap:butt;stroke-linejoin:miter;stroke-opacity:1"/>
<path class="bond-12 atom-12 atom-13" d="M 281.6,357.2 L 298.8,378.2" style="fill:none;fill-rule:evenodd;stroke:#000000;stroke-width:2.0px;stroke-linecap:butt;stroke-linejoin:miter;stroke-opacity:1"/>
<path class="bond-13 atom-13 atom-14" d="M 296.9,383.3 L 298.0,383.5" style="fill:none;fill-rule:evenodd;stroke:#000000;stroke-width:1.0px;stroke-linecap:butt;stroke-linejoin:miter;stroke-opacity:1"/>
<path class="bond-13 atom-13 atom-14" d="M 295.0,388.4 L 297.1,388.9" style="fill:none;fill-rule:evenodd;stroke:#000000;stroke-width:1.0px;stroke-linecap:butt;stroke-linejoin:miter;stroke-opacity:1"/>
<path class="bond-13 atom-13 atom-14" d="M 293.1,393.5 L 296.3,394.3" style="fill:none;fill-rule:evenodd;stroke:#000000;stroke-width:1.0px;stroke-linecap:butt;stroke-linejoin:miter;stroke-opacity:1"/>
<path class="bond-13 atom-13 atom-14" d="M 291.2,398.6 L 295.4,399.7" style="fill:none;fill-rule:evenodd;stroke:#000000;stroke-width:1.0px;stroke-linecap:butt;stroke-linejoin:miter;stroke-opacity:1"/>
<path class="bond-13 atom-13 atom-14" d="M 289.3,403.7 L 294.6,405.1" style="fill:none;fill-rule:evenodd;stroke:#000000;stroke-width:1.0px;stroke-linecap:butt;stroke-linejoin:miter;stroke-opacity:1"/>
<path class="bond-14 atom-14 atom-15" d="M 292.0,404.4 L 269.2,410.6" style="fill:none;fill-rule:evenodd;stroke:#000000;stroke-width:2.0px;stroke-linecap:butt;stroke-linejoin:miter;stroke-opacity:1"/>
<path class="bond-15 atom-13 atom-9" d="M 298.8,378.2 L 320.2,369.8" style="fill:none;fill-rule:evenodd;stroke:#000000;stroke-width:2.0px;stroke-linecap:butt;stroke-linejoin:miter;stroke-opacity:1"/>
<path class="atom-5" d="M 462.4 377.4 Q 462.5 377.4, 462.9 377.6 Q 463.2 377.7, 463.6 377.8 Q 464.0 377.9, 464.4 377.9 Q 465.1 377.9, 465.6 377.6 Q 466.0 377.2, 466.0 376.6 Q 466.0 376.2, 465.8 375.9 Q 465.6 375.7, 465.2 375.5 Q 464.9 375.4, 464.4 375.2 Q 463.7 375.0, 463.3 374.8 Q 462.9 374.6, 462.6 374.2 Q 462.3 373.8, 462.3 373.1 Q 462.3 372.1, 462.9 371.5 Q 463.6 371.0, 464.9 371.0 Q 465.8 371.0, 466.8 371.4 L 466.5 372.2 Q 465.6 371.8, 464.9 371.8 Q 464.2 371.8, 463.8 372.1 Q 463.4 372.4, 463.4 373.0 Q 463.4 373.4, 463.6 373.6 Q 463.8 373.9, 464.1 374.0 Q 464.4 374.2, 464.9 374.3 Q 465.6 374.5, 466.0 374.8 Q 466.4 375.0, 466.7 375.4 Q 467.0 375.9, 467.0 376.6 Q 467.0 377.7, 466.3 378.2 Q 465.6 378.8, 464.4 378.8 Q 463.8 378.8, 463.2 378.7 Q 462.7 378.5, 462.1 378.3 L 462.4 377.4 " fill="#000000"/>
<path class="atom-6" d="M 448.6 350.7 Q 448.6 348.9, 449.5 347.9 Q 450.4 346.8, 452.1 346.8 Q 453.8 346.8, 454.8 347.9 Q 455.7 348.9, 455.7 350.7 Q 455.7 352.6, 454.7 353.7 Q 453.8 354.7, 452.1 354.7 Q 450.5 354.7, 449.5 353.7 Q 448.6 352.6, 448.6 350.7 M 452.1 353.9 Q 453.3 353.9, 453.9 353.1 Q 454.6 352.3, 454.6 350.7 Q 454.6 349.2, 453.9 348.5 Q 453.3 347.7, 452.1 347.7 Q 451.0 347.7, 450.3 348.5 Q 449.7 349.2, 449.7 350.7 Q 449.7 352.3, 450.3 353.1 Q 451.0 353.9, 452.1 353.9 " fill="#000000"/>
<path class="atom-7" d="M 473.5 398.8 Q 473.5 397.0, 474.4 396.0 Q 475.3 394.9, 477.0 394.9 Q 478.7 394.9, 479.6 396.0 Q 480.6 397.0, 480.6 398.8 Q 480.6 400.7, 479.6 401.8 Q 478.7 402.8, 477.0 402.8 Q 475.3 402.8, 474.4 401.8 Q 473.5 400.7, 473.5 398.8 M 477.0 402.0 Q 478.2 402.0, 478.8 401.2 Q 479.5 400.4, 479.5 398.8 Q 479.5 397.3, 478.8 396.6 Q 478.2 395.8, 477.0 395.8 Q 475.9 395.8, 475.2 396.6 Q 474.6 397.3, 474.6 398.8 Q 474.6 400.4, 475.2 401.2 Q 475.9 402.0, 477.0 402.0 " fill="#000000"/>
<path class="atom-9" d="M 322.3 364.5 L 324.8 368.5 Q 325.1 368.9, 325.5 369.7 Q 325.9 370.4, 325.9 370.4 L 325.9 364.5 L 326.9 364.5 L 326.9 372.1 L 325.9 372.1 L 323.2 367.7 Q 322.9 367.2, 322.5 366.6 Q 322.2 366.0, 322.1 365.8 L 322.1 372.1 L 321.1 372.1 L 321.1 364.5 L 322.3 364.5 " fill="#000000"/>
<path class="atom-15" d="M 263.7 414.2 Q 263.8 414.2, 264.1 414.4 Q 264.5 414.5, 264.9 414.6 Q 265.3 414.7, 265.7 414.7 Q 266.4 414.7, 266.8 414.3 Q 267.2 414.0, 267.2 413.4 Q 267.2 413.0, 267.0 412.7 Q 266.8 412.4, 266.5 412.3 Q 266.2 412.1, 265.6 412.0 Q 264.9 411.8, 264.5 411.6 Q 264.1 411.4, 263.8 411.0 Q 263.6 410.6, 263.6 409.9 Q 263.6 408.9, 264.2 408.3 Q 264.9 407.7, 266.2 407.7 Q 267.1 407.7, 268.1 408.1 L 267.8 409.0 Q 266.9 408.6, 266.2 408.6 Q 265.5 408.6, 265.0 408.9 Q 264.6 409.2, 264.6 409.7 Q 264.6 410.2, 264.8 410.4 Q 265.1 410.7, 265.4 410.8 Q 265.7 410.9, 266.2 411.1 Q 266.9 411.3, 267.3 411.5 Q 267.7 411.7, 268.0 412.2 Q 268.3 412.6, 268.3 413.4 Q 268.3 414.4, 267.6 415.0 Q 266.9 415.6, 265.7 415.6 Q 265.0 415.6, 264.5 415.4 Q 264.0 415.3, 263.4 415.0 L 263.7 414.2 " fill="#000000"/>
<path class="atom-0" d="M 347.4,385.3 L 347.4,385.4 L 347.4,385.4 L 347.4,385.5 L 347.3,385.5 L 347.3,385.6 L 347.3,385.6 L 347.3,385.7 L 347.2,385.7 L 347.2,385.7 L 347.2,385.8 L 347.1,385.8 L 347.1,385.8 L 347.1,385.8 L 347.0,385.9 L 347.0,385.9 L 346.9,385.9 L 346.9,385.9 L 346.8,385.9 L 346.8,385.9 L 346.7,385.9 L 346.7,385.9 L 346.7,385.9 L 346.6,385.8 L 346.6,385.8 L 346.5,385.8 L 346.5,385.8 L 346.5,385.7 L 346.4,385.7 L 346.4,385.7 L 346.4,385.6 L 346.3,385.6 L 346.3,385.5 L 346.3,385.5 L 346.3,385.5 L 346.3,385.4 L 346.3,385.4 L 346.3,385.3 L 346.3,385.3 L 346.3,385.2 L 346.3,385.2 L 346.3,385.1 L 346.3,385.1 L 346.4,385.1 L 346.4,385.0 L 346.4,385.0 L 346.5,384.9 L 346.5,384.9 L 346.5,384.9 L 346.6,384.9 L 346.6,384.8 L 346.7,384.8 L 346.7,384.8 L 346.7,384.8 L 346.8,384.8 L 346.8,384.8 L 346.9,384.8 L 346.9,384.8 L 347.0,384.8 L 347.0,384.8 L 347.1,384.9 L 347.1,384.9 L 347.1,384.9 L 347.2,384.9 L 347.2,385.0 L 347.2,385.0 L 347.3,385.0 L 347.3,385.1 L 347.3,385.1 L 347.3,385.2 L 347.4,385.2 L 347.4,385.3 L 347.4,385.3 L 347.4,385.3 L 346.8,385.3 Z" style="fill:#000000;fill-rule:evenodd;fill-opacity:1;stroke:#000000;stroke-width:0.0px;stroke-linecap:butt;stroke-linejoin:miter;stroke-opacity:1;"/>
<path class="atom-2" d="M 394.2,387.5 L 394.2,387.5 L 394.2,387.6 L 394.2,387.6 L 394.2,387.7 L 394.2,387.7 L 394.2,387.8 L 394.1,387.8 L 394.1,387.8 L 394.1,387.9 L 394.0,387.9 L 394.0,387.9 L 394.0,388.0 L 393.9,388.0 L 393.9,388.0 L 393.8,388.0 L 393.8,388.0 L 393.7,388.0 L 393.7,388.0 L 393.6,388.0 L 393.6,388.0 L 393.6,388.0 L 393.5,388.0 L 393.5,388.0 L 393.4,388.0 L 393.4,388.0 L 393.3,387.9 L 393.3,387.9 L 393.3,387.9 L 393.3,387.8 L 393.2,387.8 L 393.2,387.7 L 393.2,387.7 L 393.2,387.7 L 393.2,387.6 L 393.1,387.6 L 393.1,387.5 L 393.1,387.5 L 393.1,387.4 L 393.2,387.4 L 393.2,387.3 L 393.2,387.3 L 393.2,387.3 L 393.2,387.2 L 393.3,387.2 L 393.3,387.1 L 393.3,387.1 L 393.3,387.1 L 393.4,387.1 L 393.4,387.0 L 393.5,387.0 L 393.5,387.0 L 393.6,387.0 L 393.6,387.0 L 393.6,387.0 L 393.7,387.0 L 393.7,387.0 L 393.8,387.0 L 393.8,387.0 L 393.9,387.0 L 393.9,387.0 L 394.0,387.0 L 394.0,387.1 L 394.0,387.1 L 394.1,387.1 L 394.1,387.2 L 394.1,387.2 L 394.2,387.2 L 394.2,387.3 L 394.2,387.3 L 394.2,387.4 L 394.2,387.4 L 394.2,387.5 L 394.2,387.5 L 393.7,387.5 Z" style="fill:#000000;fill-rule:evenodd;fill-opacity:1;stroke:#000000;stroke-width:0.0px;stroke-linecap:butt;stroke-linejoin:miter;stroke-opacity:1;"/>
<path class="atom-15" d="M 262.3,411.5 L 262.3,411.6 L 262.3,411.6 L 262.3,411.7 L 262.3,411.7 L 262.3,411.8 L 262.2,411.8 L 262.2,411.8 L 262.2,411.9 L 262.2,411.9 L 262.1,412.0 L 262.1,412.0 L 262.0,412.0 L 262.0,412.0 L 262.0,412.0 L 261.9,412.1 L 261.9,412.1 L 261.8,412.1 L 261.8,412.1 L 261.7,412.1 L 261.7,412.1 L 261.6,412.1 L 261.6,412.1 L 261.6,412.0 L 261.5,412.0 L 261.5,412.0 L 261.4,412.0 L 261.4,411.9 L 261.4,411.9 L 261.3,411.9 L 261.3,411.8 L 261.3,411.8 L 261.3,411.7 L 261.3,411.7 L 261.2,411.7 L 261.2,411.6 L 261.2,411.6 L 261.2,411.5 L 261.2,411.5 L 261.2,411.4 L 261.3,411.4 L 261.3,411.3 L 261.3,411.3 L 261.3,411.3 L 261.3,411.2 L 261.4,411.2 L 261.4,411.1 L 261.4,411.1 L 261.5,411.1 L 261.5,411.1 L 261.6,411.0 L 261.6,411.0 L 261.6,411.0 L 261.7,411.0 L 261.7,411.0 L 261.8,411.0 L 261.8,411.0 L 261.9,411.0 L 261.9,411.0 L 262.0,411.0 L 262.0,411.1 L 262.0,411.1 L 262.1,411.1 L 262.1,411.1 L 262.2,411.2 L 262.2,411.2 L 262.2,411.2 L 262.2,411.3 L 262.3,411.3 L 262.3,411.4 L 262.3,411.4 L 262.3,411.4 L 262.3,411.5 L 262.3,411.5 L 261.8,411.5 Z" style="fill:#000000;fill-rule:evenodd;fill-opacity:1;stroke:#000000;stroke-width:0.0px;stroke-linecap:butt;stroke-linejoin:miter;stroke-opacity:1;"/>
<path class="bond-0 atom-0 atom-1" d="M 685.5,342.8 L 653.1,350.3" style="fill:none;fill-rule:evenodd;stroke:#000000;stroke-width:2.0px;stroke-linecap:butt;stroke-linejoin:miter;stroke-opacity:1"/>
<path class="bond-1 atom-1 atom-2" d="M 646.3,358.2 L 637.3,387.7" style="fill:none;fill-rule:evenodd;stroke:#000000;stroke-width:2.0px;stroke-linecap:butt;stroke-linejoin:miter;stroke-opacity:1"/>
<path class="bond-2 atom-2 atom-3" d="M 637.3,387.7 L 663.2,415.5" style="fill:none;fill-rule:evenodd;stroke:#000000;stroke-width:2.0px;stroke-linecap:butt;stroke-linejoin:miter;stroke-opacity:1"/>
<path class="bond-3 atom-3 atom-4" d="M 666.8,416.6 L 657.7,446.3" style="fill:none;fill-rule:evenodd;stroke:#000000;stroke-width:2.0px;stroke-linecap:butt;stroke-linejoin:miter;stroke-opacity:1"/>
<path class="bond-3 atom-3 atom-4" d="M 659.5,414.4 L 650.4,444.0" style="fill:none;fill-rule:evenodd;stroke:#000000;stroke-width:2.0px;stroke-linecap:butt;stroke-linejoin:miter;stroke-opacity:1"/>
<path class="bond-4 atom-3 atom-5" d="M 663.2,415.5 L 694.0,408.4" style="fill:none;fill-rule:evenodd;stroke:#000000;stroke-width:2.0px;stroke-linecap:butt;stroke-linejoin:miter;stroke-opacity:1"/>
<path class="bond-5 atom-2 atom-6" d="M 637.3,387.7 L 604.9,395.1" style="fill:none;fill-rule:evenodd;stroke:#000000;stroke-width:2.0px;stroke-linecap:butt;stroke-linejoin:miter;stroke-opacity:1"/>
<path class="bond-6 atom-6 atom-7" d="M 595.5,391.1 L 574.3,368.4" style="fill:none;fill-rule:evenodd;stroke:#000000;stroke-width:2.0px;stroke-linecap:butt;stroke-linejoin:miter;stroke-opacity:1"/>
<path class="bond-7 atom-7 atom-8" d="M 574.3,368.4 L 537.3,376.9" style="fill:none;fill-rule:evenodd;stroke:#000000;stroke-width:2.0px;stroke-linecap:butt;stroke-linejoin:miter;stroke-opacity:1"/>
<path class="bond-7 atom-7 atom-8" d="M 567.1,362.2 L 541.1,368.2" style="fill:none;fill-rule:evenodd;stroke:#000000;stroke-width:2.0px;stroke-linecap:butt;stroke-linejoin:miter;stroke-opacity:1"/>
<path class="bond-8 atom-8 atom-9" d="M 537.3,376.9 L 528.1,406.6" style="fill:none;fill-rule:evenodd;stroke:#000000;stroke-width:2.0px;stroke-linecap:butt;stroke-linejoin:miter;stroke-opacity:1"/>
<path class="bond-9 atom-8 atom-10" d="M 537.3,376.9 L 511.4,349.0" style="fill:none;fill-rule:evenodd;stroke:#000000;stroke-width:2.0px;stroke-linecap:butt;stroke-linejoin:miter;stroke-opacity:1"/>
<path class="bond-10 atom-10 atom-11" d="M 511.4,349.0 L 522.5,312.7" style="fill:none;fill-rule:evenodd;stroke:#000000;stroke-width:2.0px;stroke-linecap:butt;stroke-linejoin:miter;stroke-opacity:1"/>
<path class="bond-10 atom-10 atom-11" d="M 520.3,345.8 L 528.1,320.4" style="fill:none;fill-rule:evenodd;stroke:#000000;stroke-width:2.0px;stroke-linecap:butt;stroke-linejoin:miter;stroke-opacity:1"/>
<path class="bond-11 atom-11 atom-12" d="M 522.5,312.7 L 559.6,304.2" style="fill:none;fill-rule:evenodd;stroke:#000000;stroke-width:2.0px;stroke-linecap:butt;stroke-linejoin:miter;stroke-opacity:1"/>
<path class="bond-12 atom-12 atom-13" d="M 559.6,304.2 L 585.5,332.0" style="fill:none;fill-rule:evenodd;stroke:#000000;stroke-width:2.0px;stroke-linecap:butt;stroke-linejoin:miter;stroke-opacity:1"/>
<path class="bond-12 atom-12 atom-13" d="M 557.9,313.5 L 576.0,333.0" style="fill:none;fill-rule:evenodd;stroke:#000000;stroke-width:2.0px;stroke-linecap:butt;stroke-linejoin:miter;stroke-opacity:1"/>
<path class="bond-13 atom-0 atom-14" d="M 685.5,342.8 L 696.6,306.5" style="fill:none;fill-rule:evenodd;stroke:#000000;stroke-width:2.0px;stroke-linecap:butt;stroke-linejoin:miter;stroke-opacity:1"/>
<path class="bond-14 atom-14 atom-15" d="M 695.8,302.8 L 726.6,295.7" style="fill:none;fill-rule:evenodd;stroke:#000000;stroke-width:2.0px;stroke-linecap:butt;stroke-linejoin:miter;stroke-opacity:1"/>
<path class="bond-14 atom-14 atom-15" d="M 697.5,310.2 L 728.3,303.1" style="fill:none;fill-rule:evenodd;stroke:#000000;stroke-width:2.0px;stroke-linecap:butt;stroke-linejoin:miter;stroke-opacity:1"/>
<path class="bond-15 atom-13 atom-7" d="M 585.5,332.0 L 574.3,368.4" style="fill:none;fill-rule:evenodd;stroke:#000000;stroke-width:2.0px;stroke-linecap:butt;stroke-linejoin:miter;stroke-opacity:1"/>
<path class="atom-1" d="M 645.4 355.0 Q 645.5 355.1, 646.0 355.3 Q 646.5 355.5, 647.1 355.6 Q 647.6 355.8, 648.2 355.8 Q 649.2 355.8, 649.8 355.3 Q 650.4 354.8, 650.4 353.9 Q 650.4 353.3, 650.1 352.9 Q 649.8 352.6, 649.3 352.4 Q 648.9 352.2, 648.1 352.0 Q 647.1 351.7, 646.6 351.4 Q 646.0 351.1, 645.6 350.5 Q 645.2 350.0, 645.2 349.0 Q 645.2 347.6, 646.1 346.8 Q 647.0 346.0, 648.9 346.0 Q 650.1 346.0, 651.5 346.6 L 651.2 347.7 Q 649.9 347.2, 648.9 347.2 Q 647.9 347.2, 647.3 347.6 Q 646.7 348.1, 646.7 348.8 Q 646.7 349.4, 647.0 349.7 Q 647.3 350.1, 647.7 350.3 Q 648.2 350.5, 648.9 350.7 Q 649.9 351.0, 650.5 351.3 Q 651.0 351.6, 651.5 352.2 Q 651.9 352.9, 651.9 353.9 Q 651.9 355.4, 650.9 356.2 Q 649.9 357.0, 648.2 357.0 Q 647.3 357.0, 646.5 356.8 Q 645.8 356.6, 645.0 356.2 L 645.4 355.0 " fill="#000000"/>
<path class="atom-4" d="M 647.1 451.9 Q 647.1 449.3, 648.3 447.9 Q 649.6 446.4, 652.0 446.4 Q 654.4 446.4, 655.7 447.9 Q 657.0 449.3, 657.0 451.9 Q 657.0 454.5, 655.7 456.0 Q 654.4 457.5, 652.0 457.5 Q 649.6 457.5, 648.3 456.0 Q 647.1 454.5, 647.1 451.9 M 652.0 456.3 Q 653.7 456.3, 654.5 455.2 Q 655.4 454.1, 655.4 451.9 Q 655.4 449.8, 654.5 448.7 Q 653.7 447.6, 652.0 447.6 Q 650.4 447.6, 649.5 448.7 Q 648.6 449.8, 648.6 451.9 Q 648.6 454.1, 649.5 455.2 Q 650.4 456.3, 652.0 456.3 " fill="#000000"/>
<path class="atom-5" d="M 695.3 407.0 Q 695.3 404.5, 696.6 403.0 Q 697.8 401.6, 700.2 401.6 Q 702.6 401.6, 703.9 403.0 Q 705.2 404.5, 705.2 407.0 Q 705.2 409.7, 703.9 411.1 Q 702.6 412.6, 700.2 412.6 Q 697.9 412.6, 696.6 411.1 Q 695.3 409.7, 695.3 407.0 M 700.2 411.4 Q 701.9 411.4, 702.7 410.3 Q 703.6 409.2, 703.6 407.0 Q 703.6 404.9, 702.7 403.9 Q 701.9 402.8, 700.2 402.8 Q 698.6 402.8, 697.7 403.8 Q 696.8 404.9, 696.8 407.0 Q 696.8 409.2, 697.7 410.3 Q 698.6 411.4, 700.2 411.4 " fill="#000000"/>
<path class="atom-5" d="M 705.9 403.3 L 709.6 403.3 L 709.6 404.1 L 705.9 404.1 L 705.9 403.3 " fill="#000000"/>
<path class="atom-6" d="M 597.2 399.9 Q 597.3 399.9, 597.8 400.1 Q 598.3 400.4, 598.8 400.5 Q 599.4 400.6, 600.0 400.6 Q 601.0 400.6, 601.6 400.1 Q 602.2 399.6, 602.2 398.8 Q 602.2 398.2, 601.9 397.8 Q 601.6 397.4, 601.1 397.2 Q 600.7 397.0, 599.9 396.8 Q 598.9 396.5, 598.4 396.3 Q 597.8 396.0, 597.4 395.4 Q 597.0 394.8, 597.0 393.9 Q 597.0 392.5, 597.9 391.7 Q 598.8 390.8, 600.7 390.8 Q 601.9 390.8, 603.3 391.4 L 603.0 392.6 Q 601.7 392.1, 600.7 392.1 Q 599.7 392.1, 599.1 392.5 Q 598.5 392.9, 598.5 393.7 Q 598.5 394.2, 598.8 394.6 Q 599.1 394.9, 599.5 395.1 Q 600.0 395.3, 600.7 395.6 Q 601.7 395.9, 602.3 396.2 Q 602.8 396.5, 603.2 397.1 Q 603.7 397.7, 603.7 398.8 Q 603.7 400.3, 602.7 401.1 Q 601.7 401.9, 600.0 401.9 Q 599.1 401.9, 598.3 401.6 Q 597.6 401.4, 596.8 401.1 L 597.2 399.9 " fill="#000000"/>
<path class="atom-9" d="M 522.9 407.8 L 529.3 407.8 L 529.3 409.1 L 524.3 409.1 L 524.3 412.3 L 528.8 412.3 L 528.8 413.6 L 524.3 413.6 L 524.3 418.6 L 522.9 418.6 L 522.9 407.8 " fill="#000000"/>
<path class="atom-15" d="M 728.8 298.0 Q 728.8 295.4, 730.0 294.0 Q 731.3 292.5, 733.7 292.5 Q 736.1 292.5, 737.4 294.0 Q 738.6 295.4, 738.6 298.0 Q 738.6 300.6, 737.3 302.1 Q 736.1 303.6, 733.7 303.6 Q 731.3 303.6, 730.0 302.1 Q 728.8 300.6, 728.8 298.0 M 733.7 302.4 Q 735.3 302.4, 736.2 301.3 Q 737.1 300.2, 737.1 298.0 Q 737.1 295.9, 736.2 294.8 Q 735.3 293.7, 733.7 293.7 Q 732.1 293.7, 731.2 294.8 Q 730.3 295.9, 730.3 298.0 Q 730.3 300.2, 731.2 301.3 Q 732.1 302.4, 733.7 302.4 " fill="#000000"/>
<path class="atom-2" d="M 638.0,391.1 L 638.0,391.2 L 638.0,391.2 L 638.0,391.3 L 638.0,391.4 L 638.0,391.4 L 637.9,391.5 L 637.9,391.5 L 637.9,391.6 L 637.8,391.6 L 637.8,391.7 L 637.7,391.7 L 637.7,391.8 L 637.6,391.8 L 637.5,391.8 L 637.5,391.8 L 637.4,391.9 L 637.4,391.9 L 637.3,391.9 L 637.2,391.9 L 637.2,391.9 L 637.1,391.8 L 637.0,391.8 L 637.0,391.8 L 636.9,391.8 L 636.9,391.7 L 636.8,391.7 L 636.8,391.7 L 636.7,391.6 L 636.7,391.6 L 636.6,391.5 L 636.6,391.5 L 636.6,391.4 L 636.5,391.3 L 636.5,391.3 L 636.5,391.2 L 636.5,391.1 L 636.5,391.1 L 636.5,391.0 L 636.5,390.9 L 636.5,390.9 L 636.6,390.8 L 636.6,390.8 L 636.6,390.7 L 636.7,390.6 L 636.7,390.6 L 636.8,390.6 L 636.8,390.5 L 636.9,390.5 L 636.9,390.4 L 637.0,390.4 L 637.0,390.4 L 637.1,390.4 L 637.2,390.4 L 637.2,390.3 L 637.3,390.3 L 637.4,390.3 L 637.4,390.4 L 637.5,390.4 L 637.5,390.4 L 637.6,390.4 L 637.7,390.5 L 637.7,390.5 L 637.8,390.5 L 637.8,390.6 L 637.9,390.6 L 637.9,390.7 L 637.9,390.7 L 638.0,390.8 L 638.0,390.8 L 638.0,390.9 L 638.0,391.0 L 638.0,391.0 L 638.0,391.1 L 637.3,391.1 Z" style="fill:#000000;fill-rule:evenodd;fill-opacity:1;stroke:#000000;stroke-width:0.0px;stroke-linecap:butt;stroke-linejoin:miter;stroke-opacity:1;"/>
<path class="bond-0 atom-0 atom-1" d="M 11.4,614.2 L 37.2,631.7" style="fill:none;fill-rule:evenodd;stroke:#000000;stroke-width:2.0px;stroke-linecap:butt;stroke-linejoin:miter;stroke-opacity:1"/>
<path class="bond-1 atom-1 atom-2" d="M 46.3,632.5 L 74.8,618.7" style="fill:none;fill-rule:evenodd;stroke:#000000;stroke-width:2.0px;stroke-linecap:butt;stroke-linejoin:miter;stroke-opacity:1"/>
<path class="bond-2 atom-2 atom-3" d="M 74.8,618.7 L 105.2,639.2" style="fill:none;fill-rule:evenodd;stroke:#000000;stroke-width:2.0px;stroke-linecap:butt;stroke-linejoin:miter;stroke-opacity:1"/>
<path class="bond-2 atom-2 atom-3" d="M 75.3,627.8 L 96.6,642.2" style="fill:none;fill-rule:evenodd;stroke:#000000;stroke-width:2.0px;stroke-linecap:butt;stroke-linejoin:miter;stroke-opacity:1"/>
<path class="bond-3 atom-3 atom-4" d="M 105.2,639.2 L 138.2,623.1" style="fill:none;fill-rule:evenodd;stroke:#000000;stroke-width:2.0px;stroke-linecap:butt;stroke-linejoin:miter;stroke-opacity:1"/>
<path class="bond-4 atom-4 atom-5" d="M 138.2,623.1 L 168.7,643.7" style="fill:none;fill-rule:evenodd;stroke:#000000;stroke-width:2.0px;stroke-linecap:butt;stroke-linejoin:miter;stroke-opacity:1"/>
<path class="bond-5 atom-5 atom-6" d="M 168.7,643.7 L 201.7,627.6" style="fill:none;fill-rule:evenodd;stroke:#000000;stroke-width:2.0px;stroke-linecap:butt;stroke-linejoin:miter;stroke-opacity:1"/>
<path class="bond-6 atom-6 atom-7" d="M 201.7,627.6 L 229.5,614.0" style="fill:none;fill-rule:evenodd;stroke:#000000;stroke-width:2.0px;stroke-linecap:butt;stroke-linejoin:miter;stroke-opacity:1"/>
<path class="bond-6 atom-6 atom-7" d="M 202.6,619.0 L 226.3,607.4" style="fill:none;fill-rule:evenodd;stroke:#000000;stroke-width:2.0px;stroke-linecap:butt;stroke-linejoin:miter;stroke-opacity:1"/>
<path class="bond-6 atom-6 atom-7" d="M 209.1,632.2 L 232.8,620.6" style="fill:none;fill-rule:evenodd;stroke:#000000;stroke-width:2.0px;stroke-linecap:butt;stroke-linejoin:miter;stroke-opacity:1"/>
<path class="atom-1" d="M 38.9 638.3 Q 39.0 638.4, 39.5 638.6 Q 39.9 638.8, 40.5 638.9 Q 41.0 639.0, 41.5 639.0 Q 42.5 639.0, 43.1 638.6 Q 43.7 638.1, 43.7 637.2 Q 43.7 636.7, 43.4 636.3 Q 43.1 636.0, 42.7 635.8 Q 42.2 635.6, 41.5 635.4 Q 40.6 635.1, 40.0 634.8 Q 39.5 634.6, 39.1 634.0 Q 38.7 633.4, 38.7 632.5 Q 38.7 631.2, 39.6 630.4 Q 40.5 629.6, 42.2 629.6 Q 43.4 629.6, 44.8 630.1 L 44.5 631.3 Q 43.2 630.8, 42.3 630.8 Q 41.3 630.8, 40.7 631.2 Q 40.1 631.6, 40.2 632.3 Q 40.2 632.9, 40.4 633.2 Q 40.7 633.6, 41.1 633.7 Q 41.6 633.9, 42.3 634.2 Q 43.2 634.4, 43.8 634.7 Q 44.3 635.0, 44.7 635.6 Q 45.1 636.2, 45.1 637.2 Q 45.1 638.7, 44.2 639.5 Q 43.2 640.2, 41.6 640.2 Q 40.7 640.2, 40.0 640.0 Q 39.3 639.8, 38.5 639.5 L 38.9 638.3 " fill="#000000"/>
<path class="atom-7" d="M 232.4 606.3 L 235.8 611.8 Q 236.1 612.4, 236.7 613.4 Q 237.2 614.3, 237.3 614.4 L 237.3 606.3 L 238.6 606.3 L 238.6 616.7 L 237.2 616.7 L 233.6 610.7 Q 233.1 610.0, 232.7 609.2 Q 232.2 608.4, 232.1 608.1 L 232.1 616.7 L 230.7 616.7 L 230.7 606.3 L 232.4 606.3 " fill="#000000"/>
<path class="bond-0 atom-0 atom-1" d="M 290.1,556.2 L 299.1,575.1" style="fill:none;fill-rule:evenodd;stroke:#000000;stroke-width:2.0px;stroke-linecap:butt;stroke-linejoin:miter;stroke-opacity:1"/>
<path class="bond-1 atom-1 atom-2" d="M 297.7,587.1 L 282.3,609.4" style="fill:none;fill-rule:evenodd;stroke:#000000;stroke-width:2.0px;stroke-linecap:butt;stroke-linejoin:miter;stroke-opacity:1"/>
<path class="bond-2 atom-2 atom-3" d="M 282.3,609.4 L 294.1,634.5" style="fill:none;fill-rule:evenodd;stroke:#000000;stroke-width:2.0px;stroke-linecap:butt;stroke-linejoin:miter;stroke-opacity:1"/>
<path class="bond-3 atom-3 atom-4" d="M 299.8,635.4 L 321.0,625.3" style="fill:none;fill-rule:evenodd;stroke:#000000;stroke-width:2.0px;stroke-linecap:butt;stroke-linejoin:miter;stroke-opacity:1"/>
<path class="bond-3 atom-3 atom-4" d="M 302.7,641.6 L 323.9,631.6" style="fill:none;fill-rule:evenodd;stroke:#000000;stroke-width:2.0px;stroke-linecap:butt;stroke-linejoin:miter;stroke-opacity:1"/>
<path class="bond-4 atom-3 atom-5" d="M 294.2,645.6 L 272.9,655.6" style="fill:none;fill-rule:evenodd;stroke:#000000;stroke-width:2.0px;stroke-linecap:butt;stroke-linejoin:miter;stroke-opacity:1"/>
<path class="bond-4 atom-3 atom-5" d="M 291.2,639.4 L 270.0,649.4" style="fill:none;fill-rule:evenodd;stroke:#000000;stroke-width:2.0px;stroke-linecap:butt;stroke-linejoin:miter;stroke-opacity:1"/>
<path class="bond-5 atom-3 atom-6" d="M 299.9,646.7 L 311.6,671.6" style="fill:none;fill-rule:evenodd;stroke:#000000;stroke-width:2.0px;stroke-linecap:butt;stroke-linejoin:miter;stroke-opacity:1"/>
<path class="bond-6 atom-6 atom-7" d="M 311.6,671.6 L 299.9,694.7 L 294.2,690.7 Z" style="fill:#000000;fill-rule:evenodd;fill-opacity:1;stroke:#000000;stroke-width:1.0px;stroke-linecap:butt;stroke-linejoin:miter;stroke-opacity:1;"/>
<path class="bond-7 atom-6 atom-8" d="M 311.6,671.6 L 345.9,674.5" style="fill:none;fill-rule:evenodd;stroke:#000000;stroke-width:2.0px;stroke-linecap:butt;stroke-linejoin:miter;stroke-opacity:1"/>
<path class="bond-8 atom-8 atom-9" d="M 345.9,674.5 L 365.6,646.2" style="fill:none;fill-rule:evenodd;stroke:#000000;stroke-width:2.0px;stroke-linecap:butt;stroke-linejoin:miter;stroke-opacity:1"/>
<path class="bond-8 atom-8 atom-9" d="M 343.2,666.3 L 357.0,646.5" style="fill:none;fill-rule:evenodd;stroke:#000000;stroke-width:2.0px;stroke-linecap:butt;stroke-linejoin:miter;stroke-opacity:1"/>
<path class="bond-9 atom-9 atom-10" d="M 365.6,646.2 L 399.9,649.0" style="fill:none;fill-rule:evenodd;stroke:#000000;stroke-width:2.0px;stroke-linecap:butt;stroke-linejoin:miter;stroke-opacity:1"/>
<path class="bond-10 atom-10 atom-11" d="M 399.9,649.0 L 419.5,620.7" style="fill:none;fill-rule:evenodd;stroke:#000000;stroke-width:2.0px;stroke-linecap:butt;stroke-linejoin:miter;stroke-opacity:1"/>
<path class="bond-10 atom-10 atom-11" d="M 397.1,640.9 L 410.9,621.1" style="fill:none;fill-rule:evenodd;stroke:#000000;stroke-width:2.0px;stroke-linecap:butt;stroke-linejoin:miter;stroke-opacity:1"/>
<path class="bond-11 atom-11 atom-12" d="M 419.5,620.7 L 453.8,623.6" style="fill:none;fill-rule:evenodd;stroke:#000000;stroke-width:2.0px;stroke-linecap:butt;stroke-linejoin:miter;stroke-opacity:1"/>
<path class="bond-12 atom-12 atom-13" d="M 453.8,623.6 L 488.1,626.4" style="fill:none;fill-rule:evenodd;stroke:#000000;stroke-width:2.0px;stroke-linecap:butt;stroke-linejoin:miter;stroke-opacity:1"/>
<path class="bond-12 atom-12 atom-13" d="M 459.5,617.1 L 488.6,619.6" style="fill:none;fill-rule:evenodd;stroke:#000000;stroke-width:2.0px;stroke-linecap:butt;stroke-linejoin:miter;stroke-opacity:1"/>
<path class="bond-12 atom-12 atom-13" d="M 458.3,630.9 L 487.5,633.3" style="fill:none;fill-rule:evenodd;stroke:#000000;stroke-width:2.0px;stroke-linecap:butt;stroke-linejoin:miter;stroke-opacity:1"/>
<path class="atom-0" d="M 273.9 545.1 L 275.3 545.1 L 275.3 549.3 L 280.2 549.3 L 280.2 545.1 L 281.6 545.1 L 281.6 554.9 L 280.2 554.9 L 280.2 550.4 L 275.3 550.4 L 275.3 554.9 L 273.9 554.9 L 273.9 545.1 " fill="#000000"/>
<path class="atom-0" d="M 282.7 550.0 Q 282.7 547.6, 283.9 546.3 Q 285.0 545.0, 287.2 545.0 Q 289.4 545.0, 290.5 546.3 Q 291.7 547.6, 291.7 550.0 Q 291.7 552.4, 290.5 553.7 Q 289.3 555.0, 287.2 555.0 Q 285.1 555.0, 283.9 553.7 Q 282.7 552.4, 282.7 550.0 M 287.2 553.9 Q 288.7 553.9, 289.5 552.9 Q 290.3 551.9, 290.3 550.0 Q 290.3 548.1, 289.5 547.1 Q 288.7 546.1, 287.2 546.1 Q 285.7 546.1, 284.9 547.1 Q 284.1 548.1, 284.1 550.0 Q 284.1 552.0, 284.9 552.9 Q 285.7 553.9, 287.2 553.9 " fill="#000000"/>
<path class="atom-1" d="M 299.7 576.2 L 302.9 581.4 Q 303.2 581.9, 303.8 582.8 Q 304.3 583.7, 304.3 583.8 L 304.3 576.2 L 305.6 576.2 L 305.6 586.0 L 304.2 586.0 L 300.8 580.3 Q 300.4 579.6, 300.0 578.9 Q 299.6 578.1, 299.5 577.9 L 299.5 586.0 L 298.2 586.0 L 298.2 576.2 L 299.7 576.2 " fill="#000000"/>
<path class="atom-1" d="M 306.7 576.2 L 308.0 576.2 L 308.0 580.4 L 313.0 580.4 L 313.0 576.2 L 314.4 576.2 L 314.4 586.0 L 313.0 586.0 L 313.0 581.5 L 308.0 581.5 L 308.0 586.0 L 306.7 586.0 L 306.7 576.2 " fill="#000000"/>
<path class="atom-1" d="M 315.5 578.0 L 317.2 578.0 L 317.2 576.2 L 318.0 576.2 L 318.0 578.0 L 319.8 578.0 L 319.8 578.6 L 318.0 578.6 L 318.0 580.4 L 317.2 580.4 L 317.2 578.6 L 315.5 578.6 L 315.5 578.0 " fill="#000000"/>
<path class="atom-3" d="M 294.2 643.8 Q 294.3 643.9, 294.8 644.1 Q 295.2 644.3, 295.7 644.4 Q 296.2 644.5, 296.7 644.5 Q 297.7 644.5, 298.2 644.1 Q 298.7 643.6, 298.7 642.8 Q 298.7 642.3, 298.4 641.9 Q 298.2 641.6, 297.8 641.4 Q 297.4 641.3, 296.7 641.1 Q 295.8 640.8, 295.3 640.5 Q 294.8 640.3, 294.4 639.8 Q 294.0 639.2, 294.0 638.4 Q 294.0 637.1, 294.9 636.4 Q 295.7 635.6, 297.4 635.6 Q 298.5 635.6, 299.8 636.2 L 299.5 637.2 Q 298.3 636.7, 297.4 636.7 Q 296.5 636.7, 295.9 637.1 Q 295.4 637.5, 295.4 638.2 Q 295.4 638.7, 295.7 639.0 Q 296.0 639.4, 296.3 639.5 Q 296.7 639.7, 297.4 639.9 Q 298.3 640.2, 298.8 640.5 Q 299.3 640.7, 299.7 641.3 Q 300.1 641.9, 300.1 642.8 Q 300.1 644.2, 299.2 644.9 Q 298.3 645.6, 296.8 645.6 Q 295.9 645.6, 295.3 645.4 Q 294.6 645.2, 293.8 644.9 L 294.2 643.8 " fill="#000000"/>
<path class="atom-4" d="M 323.6 625.8 Q 323.6 623.5, 324.8 622.2 Q 325.9 620.9, 328.1 620.9 Q 330.2 620.9, 331.4 622.2 Q 332.6 623.5, 332.6 625.8 Q 332.6 628.2, 331.4 629.5 Q 330.2 630.9, 328.1 630.9 Q 325.9 630.9, 324.8 629.5 Q 323.6 628.2, 323.6 625.8 M 328.1 629.8 Q 329.6 629.8, 330.4 628.8 Q 331.2 627.8, 331.2 625.8 Q 331.2 623.9, 330.4 623.0 Q 329.6 622.0, 328.1 622.0 Q 326.6 622.0, 325.8 622.9 Q 325.0 623.9, 325.0 625.8 Q 325.0 627.8, 325.8 628.8 Q 326.6 629.8, 328.1 629.8 " fill="#000000"/>
<path class="atom-5" d="M 261.4 655.2 Q 261.4 652.9, 262.5 651.6 Q 263.7 650.2, 265.8 650.2 Q 268.0 650.2, 269.2 651.6 Q 270.3 652.9, 270.3 655.2 Q 270.3 657.6, 269.1 658.9 Q 268.0 660.3, 265.8 660.3 Q 263.7 660.3, 262.5 658.9 Q 261.4 657.6, 261.4 655.2 M 265.8 659.2 Q 267.3 659.2, 268.1 658.2 Q 268.9 657.2, 268.9 655.2 Q 268.9 653.3, 268.1 652.3 Q 267.3 651.3, 265.8 651.3 Q 264.4 651.3, 263.5 652.3 Q 262.7 653.3, 262.7 655.2 Q 262.7 657.2, 263.5 658.2 Q 264.4 659.2, 265.8 659.2 " fill="#000000"/>
<path class="atom-7" d="M 278.8 695.1 L 280.1 695.1 L 280.1 699.2 L 285.1 699.2 L 285.1 695.1 L 286.4 695.1 L 286.4 704.8 L 285.1 704.8 L 285.1 700.3 L 280.1 700.3 L 280.1 704.8 L 278.8 704.8 L 278.8 695.1 " fill="#000000"/>
<path class="atom-7" d="M 287.6 699.9 Q 287.6 697.6, 288.7 696.3 Q 289.9 695.0, 292.0 695.0 Q 294.2 695.0, 295.4 696.3 Q 296.5 697.6, 296.5 699.9 Q 296.5 702.3, 295.3 703.6 Q 294.2 705.0, 292.0 705.0 Q 289.9 705.0, 288.7 703.6 Q 287.6 702.3, 287.6 699.9 M 292.0 703.9 Q 293.5 703.9, 294.3 702.9 Q 295.1 701.9, 295.1 699.9 Q 295.1 698.0, 294.3 697.0 Q 293.5 696.1, 292.0 696.1 Q 290.6 696.1, 289.7 697.0 Q 288.9 698.0, 288.9 699.9 Q 288.9 701.9, 289.7 702.9 Q 290.6 703.9, 292.0 703.9 " fill="#000000"/>
<path class="atom-1" d="M 322.5,581.1 L 322.5,581.1 L 322.5,581.2 L 322.5,581.3 L 322.5,581.3 L 322.5,581.4 L 322.4,581.4 L 322.4,581.5 L 322.4,581.5 L 322.3,581.6 L 322.3,581.6 L 322.2,581.6 L 322.2,581.7 L 322.1,581.7 L 322.1,581.7 L 322.0,581.7 L 322.0,581.8 L 321.9,581.8 L 321.8,581.8 L 321.8,581.8 L 321.7,581.8 L 321.7,581.7 L 321.6,581.7 L 321.6,581.7 L 321.5,581.7 L 321.5,581.7 L 321.4,581.6 L 321.4,581.6 L 321.3,581.5 L 321.3,581.5 L 321.2,581.4 L 321.2,581.4 L 321.2,581.3 L 321.2,581.3 L 321.2,581.2 L 321.1,581.2 L 321.1,581.1 L 321.1,581.1 L 321.1,581.0 L 321.2,580.9 L 321.2,580.9 L 321.2,580.8 L 321.2,580.8 L 321.2,580.7 L 321.3,580.7 L 321.3,580.6 L 321.4,580.6 L 321.4,580.5 L 321.5,580.5 L 321.5,580.5 L 321.6,580.4 L 321.6,580.4 L 321.7,580.4 L 321.7,580.4 L 321.8,580.4 L 321.8,580.4 L 321.9,580.4 L 322.0,580.4 L 322.0,580.4 L 322.1,580.4 L 322.1,580.5 L 322.2,580.5 L 322.2,580.5 L 322.3,580.6 L 322.3,580.6 L 322.4,580.6 L 322.4,580.7 L 322.4,580.7 L 322.5,580.8 L 322.5,580.8 L 322.5,580.9 L 322.5,581.0 L 322.5,581.0 L 322.5,581.1 L 321.8,581.1 Z" style="fill:#000000;fill-rule:evenodd;fill-opacity:1;stroke:#000000;stroke-width:0.0px;stroke-linecap:butt;stroke-linejoin:miter;stroke-opacity:1;"/>
<path class="bond-0 atom-0 atom-1" d="M 621.8,685.0 L 636.9,666.6" style="fill:none;fill-rule:evenodd;stroke:#000000;stroke-width:2.0px;stroke-linecap:butt;stroke-linejoin:miter;stroke-opacity:1"/>
<path class="bond-0 atom-0 atom-1" d="M 626.5,688.9 L 641.6,670.5" style="fill:none;fill-rule:evenodd;stroke:#000000;stroke-width:2.0px;stroke-linecap:butt;stroke-linejoin:miter;stroke-opacity:1"/>
<path class="bond-1 atom-1 atom-2" d="M 645.6,655.9 L 660.7,637.5" style="fill:none;fill-rule:evenodd;stroke:#000000;stroke-width:2.0px;stroke-linecap:butt;stroke-linejoin:miter;stroke-opacity:1"/>
<path class="bond-1 atom-1 atom-2" d="M 650.4,659.8 L 665.5,641.3" style="fill:none;fill-rule:evenodd;stroke:#000000;stroke-width:2.0px;stroke-linecap:butt;stroke-linejoin:miter;stroke-opacity:1"/>
<path class="bond-2 atom-2 atom-3" d="M 663.1,639.4 L 652.2,610.6" style="fill:none;fill-rule:evenodd;stroke:#000000;stroke-width:2.0px;stroke-linecap:butt;stroke-linejoin:miter;stroke-opacity:1"/>
<path class="bond-3 atom-3 atom-4" d="M 652.2,610.6 L 621.9,605.7" style="fill:none;fill-rule:evenodd;stroke:#000000;stroke-width:2.0px;stroke-linecap:butt;stroke-linejoin:miter;stroke-opacity:1"/>
<path class="bond-3 atom-3 atom-4" d="M 646.7,616.0 L 625.4,612.5" style="fill:none;fill-rule:evenodd;stroke:#000000;stroke-width:2.0px;stroke-linecap:butt;stroke-linejoin:miter;stroke-opacity:1"/>
<path class="bond-4 atom-4 atom-5" d="M 621.9,605.7 L 602.4,629.5" style="fill:none;fill-rule:evenodd;stroke:#000000;stroke-width:2.0px;stroke-linecap:butt;stroke-linejoin:miter;stroke-opacity:1"/>
<path class="bond-5 atom-5 atom-6" d="M 605.3,628.4 L 614.1,651.7" style="fill:none;fill-rule:evenodd;stroke:#000000;stroke-width:2.0px;stroke-linecap:butt;stroke-linejoin:miter;stroke-opacity:1"/>
<path class="bond-5 atom-5 atom-6" d="M 599.5,630.6 L 608.3,653.9" style="fill:none;fill-rule:evenodd;stroke:#000000;stroke-width:2.0px;stroke-linecap:butt;stroke-linejoin:miter;stroke-opacity:1"/>
<path class="bond-6 atom-5 atom-7" d="M 602.4,629.5 L 572.0,624.5" style="fill:none;fill-rule:evenodd;stroke:#000000;stroke-width:2.0px;stroke-linecap:butt;stroke-linejoin:miter;stroke-opacity:1"/>
<path class="bond-7 atom-7 atom-8" d="M 572.0,624.5 L 561.2,595.8" style="fill:none;fill-rule:evenodd;stroke:#000000;stroke-width:2.0px;stroke-linecap:butt;stroke-linejoin:miter;stroke-opacity:1"/>
<path class="bond-7 atom-7 atom-8" d="M 564.7,622.4 L 557.1,602.3" style="fill:none;fill-rule:evenodd;stroke:#000000;stroke-width:2.0px;stroke-linecap:butt;stroke-linejoin:miter;stroke-opacity:1"/>
<path class="bond-8 atom-8 atom-9" d="M 561.2,595.8 L 530.8,590.8" style="fill:none;fill-rule:evenodd;stroke:#000000;stroke-width:2.0px;stroke-linecap:butt;stroke-linejoin:miter;stroke-opacity:1"/>
<path class="bond-9 atom-9 atom-10" d="M 530.8,590.8 L 511.4,614.6" style="fill:none;fill-rule:evenodd;stroke:#000000;stroke-width:2.0px;stroke-linecap:butt;stroke-linejoin:miter;stroke-opacity:1"/>
<path class="bond-9 atom-9 atom-10" d="M 532.7,598.3 L 519.0,614.9" style="fill:none;fill-rule:evenodd;stroke:#000000;stroke-width:2.0px;stroke-linecap:butt;stroke-linejoin:miter;stroke-opacity:1"/>
<path class="bond-10 atom-10 atom-11" d="M 511.4,614.6 L 522.2,643.4" style="fill:none;fill-rule:evenodd;stroke:#000000;stroke-width:2.0px;stroke-linecap:butt;stroke-linejoin:miter;stroke-opacity:1"/>
<path class="bond-11 atom-11 atom-12" d="M 522.2,643.4 L 552.6,648.3" style="fill:none;fill-rule:evenodd;stroke:#000000;stroke-width:2.0px;stroke-linecap:butt;stroke-linejoin:miter;stroke-opacity:1"/>
<path class="bond-11 atom-11 atom-12" d="M 527.8,638.0 L 549.0,641.5" style="fill:none;fill-rule:evenodd;stroke:#000000;stroke-width:2.0px;stroke-linecap:butt;stroke-linejoin:miter;stroke-opacity:1"/>
<path class="bond-12 atom-3 atom-13" d="M 652.2,610.6 L 671.7,586.8" style="fill:none;fill-rule:evenodd;stroke:#000000;stroke-width:2.0px;stroke-linecap:butt;stroke-linejoin:miter;stroke-opacity:1"/>
<path class="bond-13 atom-13 atom-14" d="M 671.7,586.8 L 702.0,591.8" style="fill:none;fill-rule:evenodd;stroke:#000000;stroke-width:2.0px;stroke-linecap:butt;stroke-linejoin:miter;stroke-opacity:1"/>
<path class="bond-14 atom-14 atom-15" d="M 702.0,591.8 L 727.8,586.9" style="fill:none;fill-rule:evenodd;stroke:#000000;stroke-width:2.0px;stroke-linecap:butt;stroke-linejoin:miter;stroke-opacity:1"/>
<path class="bond-15 atom-14 atom-16" d="M 702.0,591.8 L 701.6,561.1" style="fill:none;fill-rule:evenodd;stroke:#000000;stroke-width:2.0px;stroke-linecap:butt;stroke-linejoin:miter;stroke-opacity:1"/>
<path class="bond-16 atom-14 atom-17" d="M 702.0,591.8 L 712.9,620.6" style="fill:none;fill-rule:evenodd;stroke:#000000;stroke-width:2.0px;stroke-linecap:butt;stroke-linejoin:miter;stroke-opacity:1"/>
<path class="bond-17 atom-17 atom-18" d="M 712.9,620.6 L 697.9,638.8" style="fill:none;fill-rule:evenodd;stroke:#000000;stroke-width:2.0px;stroke-linecap:butt;stroke-linejoin:miter;stroke-opacity:1"/>
<path class="bond-18 atom-18 atom-19" d="M 695.5,649.9 L 702.3,667.8" style="fill:none;fill-rule:evenodd;stroke:#000000;stroke-width:2.0px;stroke-linecap:butt;stroke-linejoin:miter;stroke-opacity:1"/>
<path class="bond-19 atom-19 atom-20" d="M 708.6,670.7 L 730.1,674.2" style="fill:none;fill-rule:evenodd;stroke:#000000;stroke-width:2.0px;stroke-linecap:butt;stroke-linejoin:miter;stroke-opacity:1"/>
<path class="bond-19 atom-19 atom-20" d="M 707.6,676.8 L 729.1,680.3" style="fill:none;fill-rule:evenodd;stroke:#000000;stroke-width:2.0px;stroke-linecap:butt;stroke-linejoin:miter;stroke-opacity:1"/>
<path class="bond-20 atom-18 atom-2" d="M 689.6,643.7 L 663.1,639.4" style="fill:none;fill-rule:evenodd;stroke:#000000;stroke-width:2.0px;stroke-linecap:butt;stroke-linejoin:miter;stroke-opacity:1"/>
<path class="bond-21 atom-12 atom-7" d="M 552.6,648.3 L 572.0,624.5" style="fill:none;fill-rule:evenodd;stroke:#000000;stroke-width:2.0px;stroke-linecap:butt;stroke-linejoin:miter;stroke-opacity:1"/>
<path class="atom-1" d="M 640.3 663.2 Q 640.3 661.1, 641.3 659.9 Q 642.3 658.8, 644.2 658.8 Q 646.0 658.8, 647.0 660.1 L 646.2 660.7 Q 645.5 659.8, 644.2 659.8 Q 642.9 659.8, 642.2 660.7 Q 641.5 661.6, 641.5 663.2 Q 641.5 665.0, 642.2 665.8 Q 642.9 666.7, 644.3 666.7 Q 645.3 666.7, 646.4 666.1 L 646.8 667.1 Q 646.3 667.4, 645.6 667.5 Q 644.9 667.7, 644.2 667.7 Q 642.3 667.7, 641.3 666.6 Q 640.3 665.4, 640.3 663.2 " fill="#000000"/>
<path class="atom-6" d="M 609.3 658.3 Q 609.3 656.2, 610.3 655.0 Q 611.3 653.8, 613.3 653.8 Q 615.2 653.8, 616.2 655.0 Q 617.3 656.2, 617.3 658.3 Q 617.3 660.4, 616.2 661.6 Q 615.2 662.8, 613.3 662.8 Q 611.3 662.8, 610.3 661.6 Q 609.3 660.4, 609.3 658.3 M 613.3 661.8 Q 614.6 661.8, 615.3 660.9 Q 616.0 660.0, 616.0 658.3 Q 616.0 656.6, 615.3 655.7 Q 614.6 654.8, 613.3 654.8 Q 611.9 654.8, 611.2 655.7 Q 610.5 656.5, 610.5 658.3 Q 610.5 660.0, 611.2 660.9 Q 611.9 661.8, 613.3 661.8 " fill="#000000"/>
<path class="atom-15" d="M 728.9 586.4 Q 728.9 584.2, 729.9 583.1 Q 730.9 581.9, 732.8 581.9 Q 734.6 581.9, 735.6 583.2 L 734.8 583.9 Q 734.1 583.0, 732.8 583.0 Q 731.5 583.0, 730.8 583.8 Q 730.1 584.7, 730.1 586.4 Q 730.1 588.1, 730.8 589.0 Q 731.6 589.9, 733.0 589.9 Q 733.9 589.9, 735.0 589.3 L 735.4 590.2 Q 734.9 590.5, 734.2 590.7 Q 733.5 590.9, 732.8 590.9 Q 730.9 590.9, 729.9 589.7 Q 728.9 588.6, 728.9 586.4 " fill="#000000"/>
<path class="atom-15" d="M 736.1 581.4 L 737.2 581.4 L 737.2 590.8 L 736.1 590.8 L 736.1 581.4 " fill="#000000"/>
<path class="atom-18" d="M 691.0 647.3 Q 691.1 647.4, 691.5 647.6 Q 691.9 647.7, 692.3 647.8 Q 692.8 647.9, 693.2 647.9 Q 694.0 647.9, 694.5 647.5 Q 695.0 647.1, 695.0 646.4 Q 695.0 646.0, 694.7 645.7 Q 694.5 645.4, 694.1 645.2 Q 693.8 645.0, 693.2 644.9 Q 692.4 644.6, 691.9 644.4 Q 691.5 644.2, 691.1 643.7 Q 690.8 643.3, 690.8 642.5 Q 690.8 641.4, 691.6 640.7 Q 692.3 640.0, 693.8 640.0 Q 694.8 640.0, 695.9 640.5 L 695.6 641.4 Q 694.6 641.0, 693.8 641.0 Q 693.0 641.0, 692.5 641.4 Q 692.0 641.7, 692.0 642.3 Q 692.0 642.8, 692.3 643.1 Q 692.5 643.3, 692.9 643.5 Q 693.2 643.7, 693.8 643.9 Q 694.6 644.1, 695.1 644.3 Q 695.5 644.6, 695.9 645.1 Q 696.2 645.6, 696.2 646.4 Q 696.2 647.6, 695.4 648.3 Q 694.6 648.9, 693.3 648.9 Q 692.5 648.9, 691.9 648.8 Q 691.3 648.6, 690.6 648.3 L 691.0 647.3 " fill="#000000"/>
<path class="atom-18" d="M 696.8 641.5 L 698.3 641.5 L 698.3 639.8 L 699.0 639.8 L 699.0 641.5 L 700.6 641.5 L 700.6 642.0 L 699.0 642.0 L 699.0 643.7 L 698.3 643.7 L 698.3 642.0 L 696.8 642.0 L 696.8 641.5 " fill="#000000"/>
<path class="atom-19" d="M 701.8 676.1 Q 701.9 676.1, 702.3 676.3 Q 702.7 676.5, 703.2 676.6 Q 703.6 676.7, 704.1 676.7 Q 704.9 676.7, 705.4 676.3 Q 705.9 675.9, 705.9 675.2 Q 705.9 674.7, 705.6 674.4 Q 705.4 674.1, 705.0 674.0 Q 704.7 673.8, 704.0 673.6 Q 703.3 673.4, 702.8 673.2 Q 702.3 672.9, 702.0 672.5 Q 701.7 672.0, 701.7 671.2 Q 701.7 670.1, 702.4 669.5 Q 703.2 668.8, 704.7 668.8 Q 705.7 668.8, 706.8 669.3 L 706.5 670.2 Q 705.5 669.8, 704.7 669.8 Q 703.8 669.8, 703.4 670.1 Q 702.9 670.5, 702.9 671.1 Q 702.9 671.5, 703.2 671.8 Q 703.4 672.1, 703.7 672.3 Q 704.1 672.4, 704.7 672.6 Q 705.5 672.9, 705.9 673.1 Q 706.4 673.3, 706.7 673.9 Q 707.1 674.3, 707.1 675.2 Q 707.1 676.4, 706.3 677.1 Q 705.5 677.7, 704.1 677.7 Q 703.4 677.7, 702.8 677.5 Q 702.2 677.4, 701.5 677.1 L 701.8 676.1 " fill="#000000"/>
<path class="atom-20" d="M 730.6 678.1 Q 730.6 676.0, 731.7 674.8 Q 732.7 673.7, 734.6 673.7 Q 736.6 673.7, 737.6 674.8 Q 738.6 676.0, 738.6 678.1 Q 738.6 680.2, 737.6 681.4 Q 736.5 682.6, 734.6 682.6 Q 732.7 682.6, 731.7 681.4 Q 730.6 680.2, 730.6 678.1 M 734.6 681.6 Q 736.0 681.6, 736.7 680.7 Q 737.4 679.8, 737.4 678.1 Q 737.4 676.4, 736.7 675.5 Q 736.0 674.7, 734.6 674.7 Q 733.3 674.7, 732.6 675.5 Q 731.9 676.4, 731.9 678.1 Q 731.9 679.9, 732.6 680.7 Q 733.3 681.6, 734.6 681.6 " fill="#000000"/>
<path class="atom-19" d="M 700.3,673.1 L 700.3,673.2 L 700.3,673.2 L 700.3,673.3 L 700.2,673.3 L 700.2,673.4 L 700.2,673.4 L 700.2,673.5 L 700.1,673.5 L 700.1,673.5 L 700.1,673.6 L 700.0,673.6 L 700.0,673.6 L 699.9,673.7 L 699.9,673.7 L 699.8,673.7 L 699.8,673.7 L 699.7,673.7 L 699.7,673.7 L 699.6,673.7 L 699.6,673.7 L 699.5,673.7 L 699.5,673.7 L 699.4,673.7 L 699.4,673.7 L 699.3,673.6 L 699.3,673.6 L 699.2,673.6 L 699.2,673.5 L 699.2,673.5 L 699.1,673.4 L 699.1,673.4 L 699.1,673.3 L 699.1,673.3 L 699.1,673.2 L 699.1,673.2 L 699.0,673.1 L 699.0,673.1 L 699.1,673.0 L 699.1,673.0 L 699.1,672.9 L 699.1,672.9 L 699.1,672.8 L 699.1,672.8 L 699.2,672.7 L 699.2,672.7 L 699.2,672.7 L 699.3,672.6 L 699.3,672.6 L 699.4,672.6 L 699.4,672.6 L 699.5,672.5 L 699.5,672.5 L 699.6,672.5 L 699.6,672.5 L 699.7,672.5 L 699.7,672.5 L 699.8,672.5 L 699.8,672.5 L 699.9,672.5 L 699.9,672.6 L 700.0,672.6 L 700.0,672.6 L 700.1,672.6 L 700.1,672.7 L 700.1,672.7 L 700.2,672.8 L 700.2,672.8 L 700.2,672.9 L 700.2,672.9 L 700.3,673.0 L 700.3,673.0 L 700.3,673.1 L 700.3,673.1 L 699.7,673.1 Z" style="fill:#000000;fill-rule:evenodd;fill-opacity:1;stroke:#000000;stroke-width:0.0px;stroke-linecap:butt;stroke-linejoin:miter;stroke-opacity:1;"/>
</svg>